<svg width="390" height="300" viewBox="0 0 390 300" fill="none" xmlns="http://www.w3.org/2000/svg">
<path d="M49.1279 265H386.221" stroke="#1B1B1B" stroke-dasharray="3 3"/>
<path d="M49.1279 200H386.221" stroke="#1B1B1B" stroke-dasharray="3 3"/>
<path d="M49.1279 135H386.221" stroke="#1B1B1B" stroke-dasharray="3 3"/>
<path d="M49.1279 70H386.221" stroke="#1B1B1B" stroke-dasharray="3 3"/>
<path d="M49.1279 5H386.221" stroke="#1B1B1B" stroke-dasharray="3 3"/>
<path d="M77.219 5V265" stroke="#1B1B1B" stroke-dasharray="3 3"/>
<path d="M133.401 5V265" stroke="#1B1B1B" stroke-dasharray="3 3"/>
<path d="M189.583 5V265" stroke="#1B1B1B" stroke-dasharray="3 3"/>
<path d="M245.766 5V265" stroke="#1B1B1B" stroke-dasharray="3 3"/>
<path d="M301.948 5V265" stroke="#1B1B1B" stroke-dasharray="3 3"/>
<path d="M358.13 5V265" stroke="#1B1B1B" stroke-dasharray="3 3"/>
<path d="M49.1279 5V265" stroke="#1B1B1B" stroke-dasharray="3 3"/>
<path d="M386.221 5V265" stroke="#1B1B1B" stroke-dasharray="3 3"/>
<path d="M49.1279 265H386.221" stroke="#6C757D"/>
<path d="M77.219 271V265" stroke="#6C757D"/>
<path d="M72.8569 271.667H73.7376V276.866C73.7376 277.33 73.6524 277.724 73.4819 278.049C73.3115 278.373 73.0712 278.619 72.761 278.787C72.4509 278.955 72.0851 279.039 71.6637 279.039C71.266 279.039 70.9121 278.967 70.6019 278.823C70.2918 278.676 70.048 278.468 69.8704 278.198C69.6928 277.928 69.6041 277.607 69.6041 277.235H70.4705C70.4705 277.441 70.5214 277.621 70.6232 277.775C70.7274 277.927 70.8695 278.045 71.0494 278.13C71.2293 278.216 71.4341 278.258 71.6637 278.258C71.917 278.258 72.1325 278.205 72.31 278.098C72.4876 277.992 72.6225 277.836 72.7149 277.63C72.8096 277.421 72.8569 277.167 72.8569 276.866V271.667ZM76.994 279.068C76.6483 279.068 76.3347 279.003 76.0529 278.872C75.7712 278.74 75.5475 278.549 75.3818 278.301C75.216 278.05 75.1332 277.747 75.1332 277.392C75.1332 277.079 75.1947 276.826 75.3178 276.632C75.441 276.435 75.6055 276.281 75.8115 276.17C76.0174 276.059 76.2447 275.976 76.4933 275.921C76.7442 275.865 76.9964 275.82 77.2497 275.787C77.5811 275.744 77.8498 275.712 78.0558 275.691C78.2641 275.667 78.4156 275.628 78.5103 275.573C78.6074 275.519 78.6559 275.424 78.6559 275.289V275.261C78.6559 274.911 78.56 274.638 78.3683 274.444C78.1789 274.25 77.8912 274.153 77.5053 274.153C77.1053 274.153 76.7916 274.241 76.5643 274.416C76.337 274.591 76.1772 274.778 76.0849 274.977L75.2894 274.693C75.4315 274.361 75.6209 274.103 75.8576 273.919C76.0967 273.732 76.3571 273.601 76.6389 273.528C76.923 273.452 77.2023 273.414 77.4769 273.414C77.6521 273.414 77.8534 273.436 78.0806 273.478C78.3103 273.519 78.5316 273.603 78.7447 273.73C78.9601 273.858 79.1389 274.051 79.2809 274.309C79.423 274.567 79.494 274.913 79.494 275.346V278.94H78.6559V278.201H78.6133C78.5565 278.32 78.4618 278.446 78.3292 278.581C78.1966 278.716 78.0203 278.831 77.8001 278.926C77.5799 279.02 77.3112 279.068 76.994 279.068ZM77.1218 278.315C77.4533 278.315 77.7326 278.25 77.9599 278.12C78.1895 277.989 78.3624 277.821 78.4784 277.615C78.5967 277.409 78.6559 277.193 78.6559 276.966V276.198C78.6204 276.241 78.5423 276.28 78.4215 276.316C78.3032 276.349 78.1659 276.378 78.0096 276.404C77.8557 276.428 77.7054 276.449 77.5586 276.468C77.4142 276.485 77.297 276.499 77.2071 276.511C76.9893 276.539 76.7857 276.586 76.5963 276.649C76.4092 276.711 76.2577 276.805 76.1417 276.93C76.0281 277.053 75.9713 277.221 75.9713 277.434C75.9713 277.725 76.079 277.946 76.2944 278.095C76.5122 278.242 76.788 278.315 77.1218 278.315ZM81.8617 275.659V278.94H81.0236V273.485H81.8333V274.338H81.9043C82.0322 274.061 82.2263 273.838 82.4867 273.67C82.7471 273.5 83.0833 273.414 83.4952 273.414C83.8645 273.414 84.1877 273.49 84.4647 273.642C84.7417 273.791 84.9571 274.018 85.111 274.323C85.2649 274.626 85.3418 275.01 85.3418 275.474V278.94H84.5038V275.531C84.5038 275.102 84.3925 274.769 84.1699 274.529C83.9474 274.288 83.642 274.167 83.2538 274.167C82.9862 274.167 82.7471 274.225 82.5364 274.341C82.3281 274.457 82.1636 274.626 82.0428 274.849C81.9221 275.072 81.8617 275.341 81.8617 275.659Z" fill="#6C757D"/>
<path d="M133.401 271V265" stroke="#6C757D"/>
<path d="M125.084 278.94V271.667H129.445V272.448H125.965V274.906H129.118V275.687H125.965V278.94H125.084ZM132.726 279.054C132.201 279.054 131.747 278.938 131.366 278.706C130.987 278.471 130.695 278.144 130.489 277.725C130.285 277.304 130.183 276.814 130.183 276.255C130.183 275.697 130.285 275.204 130.489 274.778C130.695 274.35 130.981 274.016 131.348 273.777C131.718 273.535 132.148 273.414 132.641 273.414C132.925 273.414 133.205 273.462 133.482 273.556C133.759 273.651 134.012 273.805 134.239 274.018C134.466 274.229 134.647 274.508 134.782 274.856C134.917 275.204 134.985 275.633 134.985 276.142V276.497H130.78V275.772H134.132C134.132 275.465 134.071 275.19 133.948 274.948C133.827 274.707 133.654 274.516 133.429 274.377C133.207 274.237 132.944 274.167 132.641 274.167C132.307 274.167 132.018 274.25 131.774 274.416C131.533 274.579 131.347 274.792 131.217 275.055C131.087 275.318 131.022 275.6 131.022 275.9V276.383C131.022 276.795 131.093 277.144 131.235 277.431C131.379 277.715 131.579 277.931 131.835 278.081C132.09 278.227 132.388 278.301 132.726 278.301C132.946 278.301 133.145 278.27 133.323 278.208C133.503 278.144 133.658 278.05 133.788 277.924C133.918 277.796 134.019 277.638 134.09 277.448L134.899 277.676C134.814 277.95 134.671 278.192 134.47 278.4C134.268 278.606 134.02 278.767 133.724 278.883C133.428 278.997 133.095 279.054 132.726 279.054ZM136.373 278.94V271.667H137.211V274.352H137.282C137.344 274.257 137.429 274.136 137.538 273.99C137.649 273.841 137.808 273.708 138.014 273.592C138.222 273.474 138.504 273.414 138.859 273.414C139.318 273.414 139.723 273.529 140.073 273.759C140.424 273.988 140.697 274.314 140.894 274.735C141.09 275.157 141.188 275.654 141.188 276.227C141.188 276.805 141.09 277.305 140.894 277.729C140.697 278.15 140.425 278.477 140.077 278.709C139.729 278.939 139.328 279.054 138.873 279.054C138.523 279.054 138.242 278.996 138.031 278.88C137.821 278.761 137.659 278.627 137.545 278.478C137.431 278.327 137.344 278.201 137.282 278.102H137.183V278.94H136.373ZM137.197 276.213C137.197 276.625 137.257 276.988 137.378 277.303C137.499 277.615 137.675 277.86 137.907 278.038C138.139 278.213 138.423 278.301 138.759 278.301C139.11 278.301 139.402 278.208 139.637 278.024C139.873 277.837 140.051 277.586 140.169 277.271C140.29 276.954 140.35 276.601 140.35 276.213C140.35 275.829 140.291 275.484 140.173 275.176C140.057 274.866 139.88 274.621 139.644 274.441C139.409 274.258 139.115 274.167 138.759 274.167C138.419 274.167 138.132 274.254 137.9 274.426C137.668 274.597 137.493 274.836 137.375 275.144C137.256 275.449 137.197 275.805 137.197 276.213Z" fill="#6C757D"/>
<path d="M189.583 271V265" stroke="#6C757D"/>
<path d="M181.013 271.667H182.064L184.535 277.704H184.62L187.092 271.667H188.143V278.94H187.319V273.414H187.248L184.976 278.94H184.18L181.907 273.414H181.836V278.94H181.013V271.667ZM191.4 279.068C191.055 279.068 190.741 279.003 190.459 278.872C190.178 278.74 189.954 278.549 189.788 278.301C189.623 278.05 189.54 277.747 189.54 277.392C189.54 277.079 189.601 276.826 189.724 276.632C189.847 276.435 190.012 276.281 190.218 276.17C190.424 276.059 190.651 275.976 190.9 275.921C191.151 275.865 191.403 275.82 191.656 275.787C191.988 275.744 192.256 275.712 192.462 275.691C192.671 275.667 192.822 275.628 192.917 275.573C193.014 275.519 193.062 275.424 193.062 275.289V275.261C193.062 274.911 192.967 274.638 192.775 274.444C192.585 274.25 192.298 274.153 191.912 274.153C191.512 274.153 191.198 274.241 190.971 274.416C190.744 274.591 190.584 274.778 190.491 274.977L189.696 274.693C189.838 274.361 190.027 274.103 190.264 273.919C190.503 273.732 190.764 273.601 191.045 273.528C191.329 273.452 191.609 273.414 191.883 273.414C192.059 273.414 192.26 273.436 192.487 273.478C192.717 273.519 192.938 273.603 193.151 273.73C193.367 273.858 193.545 274.051 193.687 274.309C193.829 274.567 193.9 274.913 193.9 275.346V278.94H193.062V278.201H193.02C192.963 278.32 192.868 278.446 192.736 278.581C192.603 278.716 192.427 278.831 192.207 278.926C191.986 279.02 191.718 279.068 191.4 279.068ZM191.528 278.315C191.86 278.315 192.139 278.25 192.366 278.12C192.596 277.989 192.769 277.821 192.885 277.615C193.003 277.409 193.062 277.193 193.062 276.966V276.198C193.027 276.241 192.949 276.28 192.828 276.316C192.71 276.349 192.572 276.378 192.416 276.404C192.262 276.428 192.112 276.449 191.965 276.468C191.821 276.485 191.704 276.499 191.614 276.511C191.396 276.539 191.192 276.586 191.003 276.649C190.816 276.711 190.664 276.805 190.548 276.93C190.435 277.053 190.378 277.221 190.378 277.434C190.378 277.725 190.485 277.946 190.701 278.095C190.919 278.242 191.195 278.315 191.528 278.315ZM195.43 278.94V273.485H196.24V274.309H196.297C196.396 274.039 196.576 273.82 196.836 273.652C197.097 273.484 197.39 273.4 197.717 273.4C197.779 273.4 197.856 273.401 197.948 273.404C198.04 273.406 198.11 273.41 198.157 273.414V274.267C198.129 274.26 198.064 274.249 197.962 274.235C197.863 274.218 197.757 274.21 197.646 274.21C197.381 274.21 197.144 274.265 196.936 274.377C196.73 274.486 196.566 274.637 196.446 274.831C196.327 275.023 196.268 275.242 196.268 275.488V278.94H195.43Z" fill="#6C757D"/>
<path d="M245.766 271V265" stroke="#6C757D"/>
<path d="M239.089 278.94H238.165L240.836 271.667H241.745L244.415 278.94H243.492L241.319 272.818H241.262L239.089 278.94ZM239.43 276.099H243.151V276.88H239.43V276.099ZM245.435 280.985V273.485H246.244V274.352H246.344C246.405 274.257 246.49 274.136 246.599 273.99C246.711 273.841 246.869 273.708 247.075 273.592C247.283 273.474 247.565 273.414 247.92 273.414C248.38 273.414 248.784 273.529 249.135 273.759C249.485 273.988 249.759 274.314 249.955 274.735C250.152 275.157 250.25 275.654 250.25 276.227C250.25 276.805 250.152 277.305 249.955 277.729C249.759 278.15 249.486 278.477 249.138 278.709C248.79 278.939 248.389 279.054 247.935 279.054C247.584 279.054 247.304 278.996 247.093 278.88C246.882 278.761 246.72 278.627 246.606 278.478C246.493 278.327 246.405 278.201 246.344 278.102H246.273V280.985H245.435ZM246.258 276.213C246.258 276.625 246.319 276.988 246.439 277.303C246.56 277.615 246.737 277.86 246.969 278.038C247.201 278.213 247.485 278.301 247.821 278.301C248.171 278.301 248.464 278.208 248.698 278.024C248.935 277.837 249.112 277.586 249.231 277.271C249.351 276.954 249.412 276.601 249.412 276.213C249.412 275.829 249.353 275.484 249.234 275.176C249.118 274.866 248.942 274.621 248.705 274.441C248.471 274.258 248.176 274.167 247.821 274.167C247.48 274.167 247.194 274.254 246.962 274.426C246.73 274.597 246.554 274.836 246.436 275.144C246.318 275.449 246.258 275.805 246.258 276.213ZM251.528 278.94V273.485H252.338V274.309H252.395C252.494 274.039 252.674 273.82 252.935 273.652C253.195 273.484 253.489 273.4 253.815 273.4C253.877 273.4 253.954 273.401 254.046 273.404C254.138 273.406 254.208 273.41 254.256 273.414V274.267C254.227 274.26 254.162 274.249 254.06 274.235C253.961 274.218 253.855 274.21 253.744 274.21C253.479 274.21 253.242 274.265 253.034 274.377C252.828 274.486 252.665 274.637 252.544 274.831C252.426 275.023 252.366 275.242 252.366 275.488V278.94H251.528Z" fill="#6C757D"/>
<path d="M301.948 271V265" stroke="#6C757D"/>
<path d="M292.296 271.667H293.347L295.818 277.704H295.904L298.375 271.667H299.426V278.94H298.603V273.414H298.532L296.259 278.94H295.463L293.191 273.414H293.12V278.94H292.296V271.667ZM302.684 279.068C302.338 279.068 302.024 279.003 301.743 278.872C301.461 278.74 301.237 278.549 301.071 278.301C300.906 278.05 300.823 277.747 300.823 277.392C300.823 277.079 300.884 276.826 301.008 276.632C301.131 276.435 301.295 276.281 301.501 276.17C301.707 276.059 301.934 275.976 302.183 275.921C302.434 275.865 302.686 275.82 302.939 275.787C303.271 275.744 303.54 275.712 303.745 275.691C303.954 275.667 304.105 275.628 304.2 275.573C304.297 275.519 304.346 275.424 304.346 275.289V275.261C304.346 274.911 304.25 274.638 304.058 274.444C303.869 274.25 303.581 274.153 303.195 274.153C302.795 274.153 302.481 274.241 302.254 274.416C302.027 274.591 301.867 274.778 301.775 274.977L300.979 274.693C301.121 274.361 301.311 274.103 301.547 273.919C301.786 273.732 302.047 273.601 302.329 273.528C302.613 273.452 302.892 273.414 303.167 273.414C303.342 273.414 303.543 273.436 303.77 273.478C304 273.519 304.221 273.603 304.434 273.73C304.65 273.858 304.829 274.051 304.971 274.309C305.113 274.567 305.184 274.913 305.184 275.346V278.94H304.346V278.201H304.303C304.246 278.32 304.151 278.446 304.019 278.581C303.886 278.716 303.71 278.831 303.49 278.926C303.27 279.02 303.001 279.068 302.684 279.068ZM302.812 278.315C303.143 278.315 303.422 278.25 303.65 278.12C303.879 277.989 304.052 277.821 304.168 277.615C304.286 277.409 304.346 277.193 304.346 276.966V276.198C304.31 276.241 304.232 276.28 304.111 276.316C303.993 276.349 303.856 276.378 303.699 276.404C303.545 276.428 303.395 276.449 303.248 276.468C303.104 276.485 302.987 276.499 302.897 276.511C302.679 276.539 302.475 276.586 302.286 276.649C302.099 276.711 301.947 276.805 301.831 276.93C301.718 277.053 301.661 277.221 301.661 277.434C301.661 277.725 301.769 277.946 301.984 278.095C302.202 278.242 302.478 278.315 302.812 278.315ZM307.058 280.985C306.916 280.985 306.789 280.974 306.678 280.95C306.567 280.929 306.49 280.907 306.447 280.886L306.66 280.147C306.864 280.199 307.044 280.218 307.2 280.204C307.356 280.19 307.495 280.12 307.615 279.995C307.738 279.872 307.851 279.671 307.953 279.394L308.109 278.968L306.092 273.485H307.001L308.507 277.832H308.563L310.069 273.485H310.978L308.663 279.735C308.559 280.017 308.43 280.25 308.276 280.435C308.122 280.622 307.943 280.76 307.74 280.85C307.538 280.94 307.311 280.985 307.058 280.985Z" fill="#6C757D"/>
<path d="M358.13 271V265" stroke="#6C757D"/>
<path d="M353.18 271.667H354.061V276.866C354.061 277.33 353.975 277.724 353.805 278.049C353.634 278.373 353.394 278.619 353.084 278.787C352.774 278.955 352.408 279.039 351.987 279.039C351.589 279.039 351.235 278.967 350.925 278.823C350.615 278.676 350.371 278.468 350.193 278.198C350.016 277.928 349.927 277.607 349.927 277.235H350.794C350.794 277.441 350.844 277.621 350.946 277.775C351.05 277.927 351.192 278.045 351.372 278.13C351.552 278.216 351.757 278.258 351.987 278.258C352.24 278.258 352.455 278.205 352.633 278.098C352.811 277.992 352.946 277.836 353.038 277.63C353.133 277.421 353.18 277.167 353.18 276.866V271.667ZM359.149 276.71V273.485H359.987V278.94H359.149V278.017H359.093C358.965 278.294 358.766 278.529 358.496 278.723C358.226 278.915 357.885 279.011 357.473 279.011C357.132 279.011 356.829 278.936 356.564 278.787C356.299 278.636 356.091 278.408 355.939 278.105C355.788 277.8 355.712 277.415 355.712 276.951V273.485H356.55V276.894C356.55 277.292 356.661 277.609 356.884 277.846C357.109 278.083 357.395 278.201 357.743 278.201C357.951 278.201 358.163 278.148 358.379 278.042C358.597 277.935 358.779 277.772 358.926 277.551C359.075 277.331 359.149 277.051 359.149 276.71ZM362.36 275.659V278.94H361.522V273.485H362.332V274.338H362.403C362.531 274.061 362.725 273.838 362.985 273.67C363.246 273.5 363.582 273.414 363.994 273.414C364.363 273.414 364.686 273.49 364.963 273.642C365.24 273.791 365.456 274.018 365.61 274.323C365.764 274.626 365.841 275.01 365.841 275.474V278.94H365.003V275.531C365.003 275.102 364.891 274.769 364.669 274.529C364.446 274.288 364.141 274.167 363.753 274.167C363.485 274.167 363.246 274.225 363.035 274.341C362.827 274.457 362.662 274.626 362.542 274.849C362.421 275.072 362.36 275.341 362.36 275.659Z" fill="#6C757D"/>
<path d="M49.1279 5V265" stroke="#6C757D"/>
<path d="M44.593 265H49.1279" stroke="#6C757D"/>
<path d="M39.3314 268.089C38.6893 268.089 38.1425 267.915 37.6908 267.565C37.239 267.213 36.8939 266.703 36.6552 266.035C36.4166 265.365 36.2973 264.555 36.2973 263.606C36.2973 262.663 36.4166 261.858 36.6552 261.19C36.8967 260.52 37.2433 260.008 37.695 259.656C38.1496 259.301 38.695 259.123 39.3314 259.123C39.9677 259.123 40.5118 259.301 40.9635 259.656C41.418 260.008 41.7646 260.52 42.0033 261.19C42.2447 261.858 42.3655 262.663 42.3655 263.606C42.3655 264.555 42.2462 265.365 42.0075 266.035C41.7689 266.703 41.4237 267.213 40.972 267.565C40.5203 267.915 39.9734 268.089 39.3314 268.089ZM39.3314 267.152C39.9677 267.152 40.4621 266.845 40.8143 266.231C41.1666 265.618 41.3427 264.743 41.3427 263.606C41.3427 262.851 41.2618 262.207 41.0998 261.676C40.9408 261.145 40.7106 260.74 40.4095 260.461C40.1112 260.183 39.7518 260.044 39.3314 260.044C38.7007 260.044 38.2078 260.355 37.8527 260.977C37.4976 261.596 37.32 262.473 37.32 263.606C37.32 264.362 37.3996 265.004 37.5587 265.532C37.7177 266.061 37.9464 266.463 38.2447 266.738C38.5459 267.014 38.9081 267.152 39.3314 267.152Z" fill="#6C757D"/>
<path d="M44.593 200H49.1279" stroke="#6C757D"/>
<path d="M12.7797 200.97V200.331L15.1802 197.703C15.4619 197.395 15.6939 197.128 15.8762 196.9C16.0585 196.671 16.1935 196.455 16.2811 196.254C16.371 196.05 16.416 195.837 16.416 195.615C16.416 195.359 16.3545 195.138 16.2314 194.951C16.1106 194.764 15.9449 194.619 15.7342 194.518C15.5235 194.416 15.2868 194.365 15.024 194.365C14.7446 194.365 14.5008 194.423 14.2924 194.539C14.0865 194.652 13.9267 194.812 13.813 195.018C13.7018 195.224 13.6461 195.466 13.6461 195.743H12.8081C12.8081 195.317 12.9063 194.943 13.1028 194.621C13.2993 194.299 13.5668 194.048 13.9054 193.868C14.2463 193.688 14.6286 193.598 15.0524 193.598C15.4785 193.598 15.8561 193.688 16.1852 193.868C16.5143 194.048 16.7723 194.29 16.9593 194.596C17.1464 194.901 17.2399 195.241 17.2399 195.615C17.2399 195.882 17.1913 196.144 17.0943 196.4C16.9996 196.653 16.8339 196.936 16.5971 197.248C16.3627 197.559 16.0372 197.937 15.6206 198.385L13.987 200.132V200.189H17.3677V200.97H12.7797ZM21.2065 201.069C20.6715 201.069 20.2157 200.924 19.8393 200.633C19.4629 200.339 19.1752 199.914 18.9764 199.358C18.7775 198.799 18.6781 198.124 18.6781 197.334C18.6781 196.548 18.7775 195.876 18.9764 195.32C19.1776 194.761 19.4664 194.335 19.8429 194.042C20.2216 193.746 20.6762 193.598 21.2065 193.598C21.7368 193.598 22.1902 193.746 22.5666 194.042C22.9454 194.335 23.2342 194.761 23.4331 195.32C23.6343 195.876 23.7349 196.548 23.7349 197.334C23.7349 198.124 23.6355 198.799 23.4366 199.358C23.2377 199.914 22.9501 200.339 22.5737 200.633C22.1973 200.924 21.7415 201.069 21.2065 201.069ZM21.2065 200.288C21.7368 200.288 22.1487 200.032 22.4423 199.521C22.7359 199.01 22.8826 198.281 22.8826 197.334C22.8826 196.704 22.8152 196.168 22.6802 195.725C22.5476 195.282 22.3559 194.945 22.1049 194.713C21.8564 194.481 21.5569 194.365 21.2065 194.365C20.6809 194.365 20.2702 194.624 19.9743 195.143C19.6783 195.659 19.5304 196.389 19.5304 197.334C19.5304 197.963 19.5966 198.498 19.7292 198.939C19.8618 199.379 20.0524 199.714 20.301 199.944C20.5519 200.173 20.8538 200.288 21.2065 200.288ZM27.4565 201.069C26.9215 201.069 26.4657 200.924 26.0893 200.633C25.7129 200.339 25.4252 199.914 25.2264 199.358C25.0275 198.799 24.9281 198.124 24.9281 197.334C24.9281 196.548 25.0275 195.876 25.2264 195.32C25.4276 194.761 25.7164 194.335 26.0929 194.042C26.4716 193.746 26.9262 193.598 27.4565 193.598C27.9868 193.598 28.4402 193.746 28.8166 194.042C29.1954 194.335 29.4842 194.761 29.6831 195.32C29.8843 195.876 29.9849 196.548 29.9849 197.334C29.9849 198.124 29.8855 198.799 29.6866 199.358C29.4877 199.914 29.2001 200.339 28.8237 200.633C28.4473 200.924 27.9915 201.069 27.4565 201.069ZM27.4565 200.288C27.9868 200.288 28.3987 200.032 28.6923 199.521C28.9859 199.01 29.1326 198.281 29.1326 197.334C29.1326 196.704 29.0652 196.168 28.9302 195.725C28.7976 195.282 28.6059 194.945 28.3549 194.713C28.1064 194.481 27.8069 194.365 27.4565 194.365C26.9309 194.365 26.5202 194.624 26.2243 195.143C25.9283 195.659 25.7804 196.389 25.7804 197.334C25.7804 197.963 25.8466 198.498 25.9792 198.939C26.1118 199.379 26.3024 199.714 26.551 199.944C26.8019 200.173 27.1038 200.288 27.4565 200.288ZM33.7065 201.069C33.1715 201.069 32.7157 200.924 32.3393 200.633C31.9629 200.339 31.6752 199.914 31.4764 199.358C31.2775 198.799 31.1781 198.124 31.1781 197.334C31.1781 196.548 31.2775 195.876 31.4764 195.32C31.6776 194.761 31.9664 194.335 32.3429 194.042C32.7216 193.746 33.1762 193.598 33.7065 193.598C34.2368 193.598 34.6902 193.746 35.0666 194.042C35.4454 194.335 35.7342 194.761 35.9331 195.32C36.1343 195.876 36.2349 196.548 36.2349 197.334C36.2349 198.124 36.1355 198.799 35.9366 199.358C35.7377 199.914 35.4501 200.339 35.0737 200.633C34.6973 200.924 34.2415 201.069 33.7065 201.069ZM33.7065 200.288C34.2368 200.288 34.6487 200.032 34.9423 199.521C35.2359 199.01 35.3826 198.281 35.3826 197.334C35.3826 196.704 35.3152 196.168 35.1802 195.725C35.0476 195.282 34.8559 194.945 34.6049 194.713C34.3564 194.481 34.0569 194.365 33.7065 194.365C33.1809 194.365 32.7702 194.624 32.4743 195.143C32.1783 195.659 32.0304 196.389 32.0304 197.334C32.0304 197.963 32.0966 198.498 32.2292 198.939C32.3618 199.379 32.5524 199.714 32.801 199.944C33.0519 200.173 33.3538 200.288 33.7065 200.288ZM39.9565 201.069C39.4215 201.069 38.9657 200.924 38.5893 200.633C38.2129 200.339 37.9252 199.914 37.7264 199.358C37.5275 198.799 37.4281 198.124 37.4281 197.334C37.4281 196.548 37.5275 195.876 37.7264 195.32C37.9276 194.761 38.2164 194.335 38.5929 194.042C38.9716 193.746 39.4262 193.598 39.9565 193.598C40.4868 193.598 40.9402 193.746 41.3166 194.042C41.6954 194.335 41.9842 194.761 42.1831 195.32C42.3843 195.876 42.4849 196.548 42.4849 197.334C42.4849 198.124 42.3855 198.799 42.1866 199.358C41.9877 199.914 41.7001 200.339 41.3237 200.633C40.9473 200.924 40.4915 201.069 39.9565 201.069ZM39.9565 200.288C40.4868 200.288 40.8987 200.032 41.1923 199.521C41.4859 199.01 41.6326 198.281 41.6326 197.334C41.6326 196.704 41.5652 196.168 41.4302 195.725C41.2976 195.282 41.1059 194.945 40.8549 194.713C40.6064 194.481 40.3069 194.365 39.9565 194.365C39.4309 194.365 39.0202 194.624 38.7243 195.143C38.4283 195.659 38.2804 196.389 38.2804 197.334C38.2804 197.963 38.3466 198.498 38.4792 198.939C38.6118 199.379 38.8024 199.714 39.051 199.944C39.3019 200.173 39.6038 200.288 39.9565 200.288Z" fill="#6C757D"/>
<path d="M44.593 135H49.1279" stroke="#6C757D"/>
<path d="M12.2479 134.478V133.754L15.4439 128.697H15.9695V129.819H15.6143L13.1996 133.64V133.697H17.5035V134.478H12.2479ZM15.6712 135.97V134.258V133.921V128.697H16.5092V135.97H15.6712ZM21.2065 136.069C20.6715 136.069 20.2157 135.924 19.8393 135.633C19.4629 135.339 19.1752 134.914 18.9764 134.358C18.7775 133.799 18.6781 133.124 18.6781 132.334C18.6781 131.548 18.7775 130.876 18.9764 130.32C19.1776 129.761 19.4664 129.335 19.8429 129.042C20.2216 128.746 20.6762 128.598 21.2065 128.598C21.7368 128.598 22.1902 128.746 22.5666 129.042C22.9454 129.335 23.2342 129.761 23.4331 130.32C23.6343 130.876 23.7349 131.548 23.7349 132.334C23.7349 133.124 23.6355 133.799 23.4366 134.358C23.2377 134.914 22.9501 135.339 22.5737 135.633C22.1973 135.924 21.7415 136.069 21.2065 136.069ZM21.2065 135.288C21.7368 135.288 22.1487 135.032 22.4423 134.521C22.7359 134.01 22.8826 133.281 22.8826 132.334C22.8826 131.704 22.8152 131.168 22.6802 130.725C22.5476 130.282 22.3559 129.945 22.1049 129.713C21.8564 129.481 21.5569 129.365 21.2065 129.365C20.6809 129.365 20.2702 129.624 19.9743 130.143C19.6783 130.659 19.5304 131.389 19.5304 132.334C19.5304 132.963 19.5966 133.498 19.7292 133.939C19.8618 134.379 20.0524 134.714 20.301 134.944C20.5519 135.173 20.8538 135.288 21.2065 135.288ZM27.4565 136.069C26.9215 136.069 26.4657 135.924 26.0893 135.633C25.7129 135.339 25.4252 134.914 25.2264 134.358C25.0275 133.799 24.9281 133.124 24.9281 132.334C24.9281 131.548 25.0275 130.876 25.2264 130.32C25.4276 129.761 25.7164 129.335 26.0929 129.042C26.4716 128.746 26.9262 128.598 27.4565 128.598C27.9868 128.598 28.4402 128.746 28.8166 129.042C29.1954 129.335 29.4842 129.761 29.6831 130.32C29.8843 130.876 29.9849 131.548 29.9849 132.334C29.9849 133.124 29.8855 133.799 29.6866 134.358C29.4877 134.914 29.2001 135.339 28.8237 135.633C28.4473 135.924 27.9915 136.069 27.4565 136.069ZM27.4565 135.288C27.9868 135.288 28.3987 135.032 28.6923 134.521C28.9859 134.01 29.1326 133.281 29.1326 132.334C29.1326 131.704 29.0652 131.168 28.9302 130.725C28.7976 130.282 28.6059 129.945 28.3549 129.713C28.1064 129.481 27.8069 129.365 27.4565 129.365C26.9309 129.365 26.5202 129.624 26.2243 130.143C25.9283 130.659 25.7804 131.389 25.7804 132.334C25.7804 132.963 25.8466 133.498 25.9792 133.939C26.1118 134.379 26.3024 134.714 26.551 134.944C26.8019 135.173 27.1038 135.288 27.4565 135.288ZM33.7065 136.069C33.1715 136.069 32.7157 135.924 32.3393 135.633C31.9629 135.339 31.6752 134.914 31.4764 134.358C31.2775 133.799 31.1781 133.124 31.1781 132.334C31.1781 131.548 31.2775 130.876 31.4764 130.32C31.6776 129.761 31.9664 129.335 32.3429 129.042C32.7216 128.746 33.1762 128.598 33.7065 128.598C34.2368 128.598 34.6902 128.746 35.0666 129.042C35.4454 129.335 35.7342 129.761 35.9331 130.32C36.1343 130.876 36.2349 131.548 36.2349 132.334C36.2349 133.124 36.1355 133.799 35.9366 134.358C35.7377 134.914 35.4501 135.339 35.0737 135.633C34.6973 135.924 34.2415 136.069 33.7065 136.069ZM33.7065 135.288C34.2368 135.288 34.6487 135.032 34.9423 134.521C35.2359 134.01 35.3826 133.281 35.3826 132.334C35.3826 131.704 35.3152 131.168 35.1802 130.725C35.0476 130.282 34.8559 129.945 34.6049 129.713C34.3564 129.481 34.0569 129.365 33.7065 129.365C33.1809 129.365 32.7702 129.624 32.4743 130.143C32.1783 130.659 32.0304 131.389 32.0304 132.334C32.0304 132.963 32.0966 133.498 32.2292 133.939C32.3618 134.379 32.5524 134.714 32.801 134.944C33.0519 135.173 33.3538 135.288 33.7065 135.288ZM39.9565 136.069C39.4215 136.069 38.9657 135.924 38.5893 135.633C38.2129 135.339 37.9252 134.914 37.7264 134.358C37.5275 133.799 37.4281 133.124 37.4281 132.334C37.4281 131.548 37.5275 130.876 37.7264 130.32C37.9276 129.761 38.2164 129.335 38.5929 129.042C38.9716 128.746 39.4262 128.598 39.9565 128.598C40.4868 128.598 40.9402 128.746 41.3166 129.042C41.6954 129.335 41.9842 129.761 42.1831 130.32C42.3843 130.876 42.4849 131.548 42.4849 132.334C42.4849 133.124 42.3855 133.799 42.1866 134.358C41.9877 134.914 41.7001 135.339 41.3237 135.633C40.9473 135.924 40.4915 136.069 39.9565 136.069ZM39.9565 135.288C40.4868 135.288 40.8987 135.032 41.1923 134.521C41.4859 134.01 41.6326 133.281 41.6326 132.334C41.6326 131.704 41.5652 131.168 41.4302 130.725C41.2976 130.282 41.1059 129.945 40.8549 129.713C40.6064 129.481 40.3069 129.365 39.9565 129.365C39.4309 129.365 39.0202 129.624 38.7243 130.143C38.4283 130.659 38.2804 131.389 38.2804 132.334C38.2804 132.963 38.3466 133.498 38.4792 133.939C38.6118 134.379 38.8024 134.714 39.051 134.944C39.3019 135.173 39.6038 135.288 39.9565 135.288Z" fill="#6C757D"/>
<path d="M44.593 70H49.1279" stroke="#6C757D"/>
<path d="M15.0089 71.0694C14.7106 71.0647 14.4123 71.0078 14.114 70.8989C13.8157 70.79 13.5434 70.6066 13.2972 70.3485C13.051 70.0881 12.8533 69.7365 12.7042 69.2938C12.555 68.8488 12.4805 68.29 12.4805 67.6177C12.4805 66.9738 12.5408 66.4032 12.6616 65.9061C12.7823 65.4065 12.9575 64.9863 13.1871 64.6454C13.4168 64.3021 13.6938 64.0417 14.0181 63.8641C14.3448 63.6866 14.7129 63.5978 15.1225 63.5978C15.5297 63.5978 15.8919 63.6795 16.2092 63.8428C16.5288 64.0038 16.7892 64.2287 16.9904 64.5176C17.1916 64.8064 17.3219 65.139 17.381 65.5154H16.5146C16.4341 65.1887 16.2778 64.9177 16.0458 64.7022C15.8138 64.4868 15.506 64.3791 15.1225 64.3791C14.5591 64.3791 14.1152 64.6241 13.7908 65.1141C13.4689 65.6042 13.3067 66.2919 13.3043 67.1774H13.3611C13.4937 66.9761 13.6512 66.8045 13.8335 66.6624C14.0181 66.518 14.2217 66.4068 14.4442 66.3286C14.6668 66.2505 14.9023 66.2114 15.1509 66.2114C15.5676 66.2114 15.9487 66.3156 16.2944 66.5239C16.64 66.7299 16.917 67.0152 17.1254 67.3798C17.3337 67.742 17.4379 68.1575 17.4379 68.6262C17.4379 69.076 17.3372 69.488 17.136 69.862C16.9348 70.2337 16.6519 70.5296 16.2873 70.7498C15.9251 70.9676 15.4989 71.0741 15.0089 71.0694ZM15.0089 70.2882C15.3072 70.2882 15.5747 70.2136 15.8114 70.0644C16.0505 69.9153 16.2388 69.7152 16.3761 69.4643C16.5157 69.2133 16.5856 68.934 16.5856 68.6262C16.5856 68.3256 16.5181 68.0521 16.3832 67.8059C16.2506 67.5573 16.0671 67.3596 15.8327 67.2129C15.6007 67.0661 15.3356 66.9927 15.0373 66.9927C14.8124 66.9927 14.6029 67.0377 14.4087 67.1276C14.2146 67.2152 14.0442 67.336 13.8974 67.4899C13.753 67.6437 13.6393 67.8201 13.5565 68.019C13.4736 68.2155 13.4322 68.4226 13.4322 68.6404C13.4322 68.9293 13.4996 69.1991 13.6346 69.4501C13.7719 69.701 13.9589 69.9034 14.1957 70.0573C14.4348 70.2112 14.7058 70.2882 15.0089 70.2882ZM21.2065 71.0694C20.6715 71.0694 20.2157 70.9238 19.8393 70.6326C19.4629 70.3391 19.1752 69.9141 18.9764 69.3578C18.7775 68.799 18.6781 68.1243 18.6781 67.3336C18.6781 66.5476 18.7775 65.8765 18.9764 65.3201C19.1776 64.7614 19.4664 64.3353 19.8429 64.0417C20.2216 63.7458 20.6762 63.5978 21.2065 63.5978C21.7368 63.5978 22.1902 63.7458 22.5666 64.0417C22.9454 64.3353 23.2342 64.7614 23.4331 65.3201C23.6343 65.8765 23.7349 66.5476 23.7349 67.3336C23.7349 68.1243 23.6355 68.799 23.4366 69.3578C23.2377 69.9141 22.9501 70.3391 22.5737 70.6326C22.1973 70.9238 21.7415 71.0694 21.2065 71.0694ZM21.2065 70.2882C21.7368 70.2882 22.1487 70.0325 22.4423 69.5211C22.7359 69.0097 22.8826 68.2806 22.8826 67.3336C22.8826 66.7039 22.8152 66.1677 22.6802 65.7249C22.5476 65.2822 22.3559 64.9449 22.1049 64.7129C21.8564 64.4809 21.5569 64.3649 21.2065 64.3649C20.6809 64.3649 20.2702 64.6241 19.9743 65.1426C19.6783 65.6587 19.5304 66.389 19.5304 67.3336C19.5304 67.9633 19.5966 68.4984 19.7292 68.9387C19.8618 69.3791 20.0524 69.7141 20.301 69.9437C20.5519 70.1733 20.8538 70.2882 21.2065 70.2882ZM27.4565 71.0694C26.9215 71.0694 26.4657 70.9238 26.0893 70.6326C25.7129 70.3391 25.4252 69.9141 25.2264 69.3578C25.0275 68.799 24.9281 68.1243 24.9281 67.3336C24.9281 66.5476 25.0275 65.8765 25.2264 65.3201C25.4276 64.7614 25.7164 64.3353 26.0929 64.0417C26.4716 63.7458 26.9262 63.5978 27.4565 63.5978C27.9868 63.5978 28.4402 63.7458 28.8166 64.0417C29.1954 64.3353 29.4842 64.7614 29.6831 65.3201C29.8843 65.8765 29.9849 66.5476 29.9849 67.3336C29.9849 68.1243 29.8855 68.799 29.6866 69.3578C29.4877 69.9141 29.2001 70.3391 28.8237 70.6326C28.4473 70.9238 27.9915 71.0694 27.4565 71.0694ZM27.4565 70.2882C27.9868 70.2882 28.3987 70.0325 28.6923 69.5211C28.9859 69.0097 29.1326 68.2806 29.1326 67.3336C29.1326 66.7039 29.0652 66.1677 28.9302 65.7249C28.7976 65.2822 28.6059 64.9449 28.3549 64.7129C28.1064 64.4809 27.8069 64.3649 27.4565 64.3649C26.9309 64.3649 26.5202 64.6241 26.2243 65.1426C25.9283 65.6587 25.7804 66.389 25.7804 67.3336C25.7804 67.9633 25.8466 68.4984 25.9792 68.9387C26.1118 69.3791 26.3024 69.7141 26.551 69.9437C26.8019 70.1733 27.1038 70.2882 27.4565 70.2882ZM33.7065 71.0694C33.1715 71.0694 32.7157 70.9238 32.3393 70.6326C31.9629 70.3391 31.6752 69.9141 31.4764 69.3578C31.2775 68.799 31.1781 68.1243 31.1781 67.3336C31.1781 66.5476 31.2775 65.8765 31.4764 65.3201C31.6776 64.7614 31.9664 64.3353 32.3429 64.0417C32.7216 63.7458 33.1762 63.5978 33.7065 63.5978C34.2368 63.5978 34.6902 63.7458 35.0666 64.0417C35.4454 64.3353 35.7342 64.7614 35.9331 65.3201C36.1343 65.8765 36.2349 66.5476 36.2349 67.3336C36.2349 68.1243 36.1355 68.799 35.9366 69.3578C35.7377 69.9141 35.4501 70.3391 35.0737 70.6326C34.6973 70.9238 34.2415 71.0694 33.7065 71.0694ZM33.7065 70.2882C34.2368 70.2882 34.6487 70.0325 34.9423 69.5211C35.2359 69.0097 35.3826 68.2806 35.3826 67.3336C35.3826 66.7039 35.3152 66.1677 35.1802 65.7249C35.0476 65.2822 34.8559 64.9449 34.6049 64.7129C34.3564 64.4809 34.0569 64.3649 33.7065 64.3649C33.1809 64.3649 32.7702 64.6241 32.4743 65.1426C32.1783 65.6587 32.0304 66.389 32.0304 67.3336C32.0304 67.9633 32.0966 68.4984 32.2292 68.9387C32.3618 69.3791 32.5524 69.7141 32.801 69.9437C33.0519 70.1733 33.3538 70.2882 33.7065 70.2882ZM39.9565 71.0694C39.4215 71.0694 38.9657 70.9238 38.5893 70.6326C38.2129 70.3391 37.9252 69.9141 37.7264 69.3578C37.5275 68.799 37.4281 68.1243 37.4281 67.3336C37.4281 66.5476 37.5275 65.8765 37.7264 65.3201C37.9276 64.7614 38.2164 64.3353 38.5929 64.0417C38.9716 63.7458 39.4262 63.5978 39.9565 63.5978C40.4868 63.5978 40.9402 63.7458 41.3166 64.0417C41.6954 64.3353 41.9842 64.7614 42.1831 65.3201C42.3843 65.8765 42.4849 66.5476 42.4849 67.3336C42.4849 68.1243 42.3855 68.799 42.1866 69.3578C41.9877 69.9141 41.7001 70.3391 41.3237 70.6326C40.9473 70.9238 40.4915 71.0694 39.9565 71.0694ZM39.9565 70.2882C40.4868 70.2882 40.8987 70.0325 41.1923 69.5211C41.4859 69.0097 41.6326 68.2806 41.6326 67.3336C41.6326 66.7039 41.5652 66.1677 41.4302 65.7249C41.2976 65.2822 41.1059 64.9449 40.8549 64.7129C40.6064 64.4809 40.3069 64.3649 39.9565 64.3649C39.4309 64.3649 39.0202 64.6241 38.7243 65.1426C38.4283 65.6587 38.2804 66.389 38.2804 67.3336C38.2804 67.9633 38.3466 68.4984 38.4792 68.9387C38.6118 69.3791 38.8024 69.7141 39.051 69.9437C39.3019 70.1733 39.6038 70.2882 39.9565 70.2882Z" fill="#6C757D"/>
<path d="M44.593 5H49.1279" stroke="#6C757D"/>
<path d="M15.0018 11.5694C14.5141 11.5694 14.0832 11.483 13.7092 11.3102C13.3375 11.135 13.0475 10.8947 12.8391 10.5893C12.6308 10.2815 12.5278 9.93114 12.5302 9.53815C12.5278 9.23039 12.5882 8.9463 12.7113 8.68588C12.8344 8.4231 13.0025 8.20411 13.2156 8.02892C13.431 7.85136 13.6713 7.73891 13.9364 7.69156V7.64895C13.5884 7.55899 13.3114 7.36367 13.1055 7.06301C12.8995 6.75998 12.7977 6.41552 12.8001 6.02963C12.7977 5.66031 12.8912 5.33006 13.0806 5.03886C13.27 4.74767 13.5304 4.51803 13.8619 4.34994C14.1957 4.18185 14.5756 4.09781 15.0018 4.09781C15.4232 4.09781 15.7996 4.18185 16.131 4.34994C16.4625 4.51803 16.7229 4.74767 16.9123 5.03886C17.104 5.33006 17.2011 5.66031 17.2035 6.02963C17.2011 6.41552 17.0958 6.75998 16.8874 7.06301C16.6815 7.36367 16.408 7.55899 16.0671 7.64895V7.69156C16.3299 7.73891 16.5666 7.85136 16.7773 8.02892C16.988 8.20411 17.1561 8.4231 17.2816 8.68588C17.4071 8.9463 17.471 9.23039 17.4734 9.53815C17.471 9.93114 17.3645 10.2815 17.1538 10.5893C16.9454 10.8947 16.6554 11.135 16.2837 11.3102C15.9144 11.483 15.4871 11.5694 15.0018 11.5694ZM15.0018 10.7882C15.3308 10.7882 15.6149 10.7349 15.854 10.6284C16.0932 10.5218 16.2778 10.3715 16.408 10.1774C16.5382 9.98323 16.6045 9.75596 16.6069 9.49554C16.6045 9.22092 16.5335 8.97826 16.3938 8.76756C16.2541 8.55686 16.0636 8.39114 15.8221 8.2704C15.583 8.14966 15.3095 8.08929 15.0018 8.08929C14.6916 8.08929 14.4147 8.14966 14.1708 8.2704C13.9293 8.39114 13.7388 8.55686 13.5991 8.76756C13.4618 8.97826 13.3943 9.22092 13.3967 9.49554C13.3943 9.75596 13.457 9.98323 13.5849 10.1774C13.7151 10.3715 13.9009 10.5218 14.1424 10.6284C14.3839 10.7349 14.6703 10.7882 15.0018 10.7882ZM15.0018 7.33645C15.2622 7.33645 15.493 7.28436 15.6942 7.1802C15.8978 7.07603 16.0576 6.93043 16.1736 6.74341C16.2897 6.55638 16.3488 6.33739 16.3512 6.08645C16.3488 5.84024 16.2908 5.62598 16.1772 5.44369C16.0636 5.25903 15.9061 5.11699 15.7049 5.01756C15.5037 4.91576 15.2693 4.86486 15.0018 4.86486C14.7295 4.86486 14.4916 4.91576 14.288 5.01756C14.0844 5.11699 13.927 5.25903 13.8157 5.44369C13.7044 5.62598 13.65 5.84024 13.6523 6.08645C13.65 6.33739 13.7056 6.55638 13.8192 6.74341C13.9352 6.93043 14.0951 7.07603 14.2986 7.1802C14.5022 7.28436 14.7366 7.33645 15.0018 7.33645ZM21.2065 11.5694C20.6715 11.5694 20.2157 11.4238 19.8393 11.1326C19.4629 10.8391 19.1752 10.4141 18.9764 9.85775C18.7775 9.29904 18.6781 8.62433 18.6781 7.83361C18.6781 7.04762 18.7775 6.37646 18.9764 5.82011C19.1776 5.2614 19.4664 4.83526 19.8429 4.5417C20.2216 4.24578 20.6762 4.09781 21.2065 4.09781C21.7368 4.09781 22.1902 4.24578 22.5666 4.5417C22.9454 4.83526 23.2342 5.2614 23.4331 5.82011C23.6343 6.37646 23.7349 7.04762 23.7349 7.83361C23.7349 8.62433 23.6355 9.29904 23.4366 9.85775C23.2377 10.4141 22.9501 10.8391 22.5737 11.1326C22.1973 11.4238 21.7415 11.5694 21.2065 11.5694ZM21.2065 10.7882C21.7368 10.7882 22.1487 10.5325 22.4423 10.0211C22.7359 9.50974 22.8826 8.78058 22.8826 7.83361C22.8826 7.20387 22.8152 6.66765 22.6802 6.22494C22.5476 5.78223 22.3559 5.44488 22.1049 5.21287C21.8564 4.98086 21.5569 4.86486 21.2065 4.86486C20.6809 4.86486 20.2702 5.12409 19.9743 5.64256C19.6783 6.15865 19.5304 6.889 19.5304 7.83361C19.5304 8.46334 19.5966 8.99838 19.7292 9.43872C19.8618 9.87906 20.0524 10.2141 20.301 10.4437C20.5519 10.6733 20.8538 10.7882 21.2065 10.7882ZM27.4565 11.5694C26.9215 11.5694 26.4657 11.4238 26.0893 11.1326C25.7129 10.8391 25.4252 10.4141 25.2264 9.85775C25.0275 9.29904 24.9281 8.62433 24.9281 7.83361C24.9281 7.04762 25.0275 6.37646 25.2264 5.82011C25.4276 5.2614 25.7164 4.83526 26.0929 4.5417C26.4716 4.24578 26.9262 4.09781 27.4565 4.09781C27.9868 4.09781 28.4402 4.24578 28.8166 4.5417C29.1954 4.83526 29.4842 5.2614 29.6831 5.82011C29.8843 6.37646 29.9849 7.04762 29.9849 7.83361C29.9849 8.62433 29.8855 9.29904 29.6866 9.85775C29.4877 10.4141 29.2001 10.8391 28.8237 11.1326C28.4473 11.4238 27.9915 11.5694 27.4565 11.5694ZM27.4565 10.7882C27.9868 10.7882 28.3987 10.5325 28.6923 10.0211C28.9859 9.50974 29.1326 8.78058 29.1326 7.83361C29.1326 7.20387 29.0652 6.66765 28.9302 6.22494C28.7976 5.78223 28.6059 5.44488 28.3549 5.21287C28.1064 4.98086 27.8069 4.86486 27.4565 4.86486C26.9309 4.86486 26.5202 5.12409 26.2243 5.64256C25.9283 6.15865 25.7804 6.889 25.7804 7.83361C25.7804 8.46334 25.8466 8.99838 25.9792 9.43872C26.1118 9.87906 26.3024 10.2141 26.551 10.4437C26.8019 10.6733 27.1038 10.7882 27.4565 10.7882ZM33.7065 11.5694C33.1715 11.5694 32.7157 11.4238 32.3393 11.1326C31.9629 10.8391 31.6752 10.4141 31.4764 9.85775C31.2775 9.29904 31.1781 8.62433 31.1781 7.83361C31.1781 7.04762 31.2775 6.37646 31.4764 5.82011C31.6776 5.2614 31.9664 4.83526 32.3429 4.5417C32.7216 4.24578 33.1762 4.09781 33.7065 4.09781C34.2368 4.09781 34.6902 4.24578 35.0666 4.5417C35.4454 4.83526 35.7342 5.2614 35.9331 5.82011C36.1343 6.37646 36.2349 7.04762 36.2349 7.83361C36.2349 8.62433 36.1355 9.29904 35.9366 9.85775C35.7377 10.4141 35.4501 10.8391 35.0737 11.1326C34.6973 11.4238 34.2415 11.5694 33.7065 11.5694ZM33.7065 10.7882C34.2368 10.7882 34.6487 10.5325 34.9423 10.0211C35.2359 9.50974 35.3826 8.78058 35.3826 7.83361C35.3826 7.20387 35.3152 6.66765 35.1802 6.22494C35.0476 5.78223 34.8559 5.44488 34.6049 5.21287C34.3564 4.98086 34.0569 4.86486 33.7065 4.86486C33.1809 4.86486 32.7702 5.12409 32.4743 5.64256C32.1783 6.15865 32.0304 6.889 32.0304 7.83361C32.0304 8.46334 32.0966 8.99838 32.2292 9.43872C32.3618 9.87906 32.5524 10.2141 32.801 10.4437C33.0519 10.6733 33.3538 10.7882 33.7065 10.7882ZM39.9565 11.5694C39.4215 11.5694 38.9657 11.4238 38.5893 11.1326C38.2129 10.8391 37.9252 10.4141 37.7264 9.85775C37.5275 9.29904 37.4281 8.62433 37.4281 7.83361C37.4281 7.04762 37.5275 6.37646 37.7264 5.82011C37.9276 5.2614 38.2164 4.83526 38.5929 4.5417C38.9716 4.24578 39.4262 4.09781 39.9565 4.09781C40.4868 4.09781 40.9402 4.24578 41.3166 4.5417C41.6954 4.83526 41.9842 5.2614 42.1831 5.82011C42.3843 6.37646 42.4849 7.04762 42.4849 7.83361C42.4849 8.62433 42.3855 9.29904 42.1866 9.85775C41.9877 10.4141 41.7001 10.8391 41.3237 11.1326C40.9473 11.4238 40.4915 11.5694 39.9565 11.5694ZM39.9565 10.7882C40.4868 10.7882 40.8987 10.5325 41.1923 10.0211C41.4859 9.50974 41.6326 8.78058 41.6326 7.83361C41.6326 7.20387 41.5652 6.66765 41.4302 6.22494C41.2976 5.78223 41.1059 5.44488 40.8549 5.21287C40.6064 4.98086 40.3069 4.86486 39.9565 4.86486C39.4309 4.86486 39.0202 5.12409 38.7243 5.64256C38.4283 6.15865 38.2804 6.889 38.2804 7.83361C38.2804 8.46334 38.3466 8.99838 38.4792 9.43872C38.6118 9.87906 38.8024 10.2141 39.051 10.4437C39.3019 10.6733 39.6038 10.7882 39.9565 10.7882Z" fill="#6C757D"/>
<path d="M54.7461 130.75C54.7461 127.567 55.7017 124.515 57.4026 122.265C59.1035 120.014 61.4104 118.75 63.8159 118.75H90.2693C92.6748 118.75 94.9817 120.014 96.6826 122.265C98.3836 124.515 99.3391 127.567 99.3391 130.75V265H54.7461V130.75Z" fill="#FF6B00"/>
<path d="M110.928 108C110.928 104.817 111.884 101.765 113.585 99.5147C115.286 97.2643 117.593 96 119.998 96H146.451C148.857 96 151.164 97.2643 152.865 99.5147C154.566 101.765 155.521 104.817 155.521 108V265H110.928V108Z" fill="#FF6B00"/>
<path d="M167.11 78.75C167.11 75.5674 168.066 72.5152 169.767 70.2647C171.468 68.0143 173.775 66.75 176.18 66.75H202.634C205.039 66.75 207.346 68.0143 209.047 70.2647C210.748 72.5152 211.703 75.5674 211.703 78.75V265H167.11V78.75Z" fill="#FF6B00"/>
<path d="M223.292 88.5C223.292 85.3174 224.248 82.2652 225.949 80.0147C227.65 77.7643 229.957 76.5 232.362 76.5H258.816C261.221 76.5 263.528 77.7643 265.229 80.0147C266.93 82.2652 267.886 85.3174 267.886 88.5V265H223.292V88.5Z" fill="#FF6B00"/>
<path d="M279.475 52.75C279.475 49.5674 280.43 46.5152 282.131 44.2647C283.832 42.0143 286.139 40.75 288.545 40.75H314.998C317.404 40.75 319.71 42.0143 321.411 44.2647C323.112 46.5152 324.068 49.5674 324.068 52.75V265H279.475V52.75Z" fill="#FF6B00"/>
<path d="M335.657 33.25C335.657 30.0674 336.613 27.0152 338.313 24.7647C340.014 22.5143 342.321 21.25 344.727 21.25H371.18C373.586 21.25 375.893 22.5143 377.594 24.7647C379.294 27.0152 380.25 30.0674 380.25 33.25V265H335.657V33.25Z" fill="#FF6B00"/>
</svg>
