<svg width="42" height="42" viewBox="0 0 42 42" fill="none" xmlns="http://www.w3.org/2000/svg">
<path d="M0 12.25C0 5.48451 5.48451 0 12.25 0H29.75C36.5155 0 42 5.48451 42 12.25V29.75C42 36.5155 36.5155 42 29.75 42H12.25C5.48451 42 0 36.5155 0 29.75V12.25Z" fill="#FF6900" fill-opacity="0.2"/>
<path d="M20.7975 27.2021C25.106 27.9616 26.17 21.9303 21.8615 21.1699M20.7975 27.2021L15.6289 26.2904M20.7975 27.2021L20.4948 28.9259M18.4149 20.5626L21.8624 21.1699C26.1709 21.9303 27.2349 15.898 22.9255 15.1385L17.7552 14.2268M22.9247 15.1385L23.2292 13.4148M17.0464 28.3178L19.7817 12.8066" stroke="#FF6900" stroke-width="1.75" stroke-linecap="round" stroke-linejoin="round"/>
</svg>
