<svg width="26" height="26" viewBox="0 0 26 26" fill="none" xmlns="http://www.w3.org/2000/svg">
<g clip-path="url(#clip0_298_6451)">
<path d="M13 26C20.1797 26 26 20.1797 26 13C26 5.8203 20.1797 0 13 0C5.8203 0 0 5.8203 0 13C0 20.1797 5.8203 26 13 26Z" fill="#4701FF"/>
<path fill-rule="evenodd" clip-rule="evenodd" d="M12.6921 4.67895C12.7304 4.67284 12.7696 4.67382 12.8076 4.68184L15.1219 5.17018L13.3007 7.6434L13.5718 7.85178L15.3395 5.64763C15.4274 5.53794 15.5704 5.48827 15.7074 5.51979L17.6434 5.9651L15.3999 13.4116L15.3934 13.4332L15.3927 13.4558L15.1918 20.107C15.1829 20.4021 14.979 20.6554 14.6926 20.727L13.4796 21.0302L10.9824 20.6348C10.8317 20.611 10.7192 20.4833 10.7146 20.3307L10.5107 13.5783L13.288 14.0449L13.3446 13.7076L10.3379 13.2025L6.82095 9.16131C6.79701 9.13379 6.77718 9.10378 6.76164 9.07215L9.21013 9.61869L12.959 11.128L13.1892 11.2207L13.1939 10.9726L13.2916 5.79388L13.2943 5.65012L13.1531 5.62282L10.41 5.09188C10.4708 5.05043 10.5413 5.02155 10.6182 5.0093L12.6921 4.67895ZM10.1992 5.39941C10.1892 5.44261 10.1846 5.48773 10.1862 5.53393L10.2336 6.87965L10.7394 6.99156L10.6655 7.32544L10.0304 7.18493L9.90114 7.15633L8.23762 6.78832C8.10779 6.75956 7.97378 6.81481 7.90185 6.92666L6.78493 8.66417C6.77328 8.68226 6.76321 8.701 6.75465 8.72018L9.29826 9.28795L9.31191 9.29099L9.32486 9.29624L12.8566 10.7181L12.9469 5.93124L10.1992 5.39941ZM9.84448 5.54596L9.88868 6.80333L8.31145 6.45439C8.04181 6.39475 7.76356 6.50942 7.61422 6.74174L6.49725 8.47924C6.31514 8.76243 6.34195 9.13184 6.56301 9.38583L10.167 13.5271L10.3728 20.341C10.3824 20.6579 10.6159 20.923 10.9289 20.9726L13.4605 21.3734L13.4949 21.3789L13.5287 21.3704L14.7755 21.0587C15.2104 20.95 15.5201 20.5655 15.5337 20.1173L15.7339 13.4886L18.0236 5.88872L18.0763 5.71371L17.8982 5.67276L15.7841 5.18651C15.693 5.16556 15.6006 5.16317 15.5116 5.17766C15.5409 5.03922 15.4557 4.8911 15.3039 4.85906L12.8782 4.34722C12.7992 4.33056 12.7179 4.32853 12.6382 4.34122L10.5644 4.67156C10.1381 4.73947 9.82926 5.11454 9.84448 5.54596Z" fill="#022538"/>
<path d="M9.1148 8.76623L10.2326 7.07488C10.4088 6.80816 10.7895 6.77978 11.0033 7.01741L12.5595 8.74646L12.4211 5.94085C12.4026 5.5645 12.6725 5.23541 13.0451 5.1799L15.2722 4.8482C15.5675 4.80423 15.8328 5.03295 15.8328 5.33143V8.08693L17.3269 5.85548C17.5226 5.56314 17.9418 5.53465 18.1754 5.79774L19.1928 6.94401C19.4584 7.24318 19.4886 7.68377 19.2664 8.01635L15.7107 13.3389V20.3695C15.7107 20.7796 15.4112 21.1284 15.0059 21.1905L13.5402 21.415C13.2518 21.4591 12.9893 21.2424 12.9781 20.9509L12.706 13.9007L9.19112 9.88987C8.91541 9.57527 8.88416 9.11518 9.1148 8.76623Z" fill="#022538"/>
</g>
<defs>
<clipPath id="clip0_298_6451">
<rect width="26" height="26" fill="white"/>
</clipPath>
</defs>
</svg>
