<svg width="42" height="42" viewBox="0 0 42 42" fill="none" xmlns="http://www.w3.org/2000/svg">
<path d="M0 12.25C0 5.48451 5.48451 0 12.25 0H29.75C36.5155 0 42 5.48451 42 12.25V29.75C42 36.5155 36.5155 42 29.75 42H12.25C5.48451 42 0 36.5155 0 29.75V12.25Z" fill="#2B7FFF" fill-opacity="0.2"/>
<path d="M23.625 26.25H19.25" stroke="#2B7FFF" stroke-width="1.75" stroke-linecap="round" stroke-linejoin="round"/>
<path d="M26.25 22.75H19.25" stroke="#2B7FFF" stroke-width="1.75" stroke-linecap="round" stroke-linejoin="round"/>
<path d="M14 29.75H28C28.4641 29.75 28.9092 29.5656 29.2374 29.2374C29.5656 28.9092 29.75 28.4641 29.75 28V14C29.75 13.5359 29.5656 13.0908 29.2374 12.7626C28.9092 12.4344 28.4641 12.25 28 12.25H17.5C17.0359 12.25 16.5908 12.4344 16.2626 12.7626C15.9344 13.0908 15.75 13.5359 15.75 14V28C15.75 28.4641 15.5656 28.9092 15.2374 29.2374C14.9092 29.5656 14.4641 29.75 14 29.75ZM14 29.75C13.5359 29.75 13.0908 29.5656 12.7626 29.2374C12.4344 28.9092 12.25 28.4641 12.25 28V20.125C12.25 19.6609 12.4344 19.2158 12.7626 18.8876C13.0908 18.5594 13.5359 18.375 14 18.375H15.75" stroke="#2B7FFF" stroke-width="1.75" stroke-linecap="round" stroke-linejoin="round"/>
<path d="M25.375 15.75H20.125C19.6418 15.75 19.25 16.1418 19.25 16.625V18.375C19.25 18.8582 19.6418 19.25 20.125 19.25H25.375C25.8582 19.25 26.25 18.8582 26.25 18.375V16.625C26.25 16.1418 25.8582 15.75 25.375 15.75Z" stroke="#2B7FFF" stroke-width="1.75" stroke-linecap="round" stroke-linejoin="round"/>
</svg>
