<svg width="42" height="42" viewBox="0 0 42 42" fill="none" xmlns="http://www.w3.org/2000/svg">
<path d="M0 12.25C0 5.48451 5.48451 0 12.25 0H29.75C36.5155 0 42 5.48451 42 12.25V29.75C42 36.5155 36.5155 42 29.75 42H12.25C5.48451 42 0 36.5155 0 29.75V12.25Z" fill="#AD46FF" fill-opacity="0.2"/>
<path d="M21 12.25V29.75" stroke="#AD46FF" stroke-width="1.75" stroke-linecap="round" stroke-linejoin="round"/>
<path d="M25.375 14.875H18.8125C18.0003 14.875 17.2213 15.1977 16.647 15.772C16.0727 16.3463 15.75 17.1253 15.75 17.9375C15.75 18.7497 16.0727 19.5287 16.647 20.103C17.2213 20.6773 18.0003 21 18.8125 21H23.1875C23.9997 21 24.7787 21.3227 25.353 21.897C25.9273 22.4713 26.25 23.2503 26.25 24.0625C26.25 24.8747 25.9273 25.6537 25.353 26.228C24.7787 26.8023 23.9997 27.125 23.1875 27.125H15.75" stroke="#AD46FF" stroke-width="1.75" stroke-linecap="round" stroke-linejoin="round"/>
</svg>
