<svg width="36" height="36" viewBox="0 0 36 36" fill="none" xmlns="http://www.w3.org/2000/svg">
<rect width="36" height="36" rx="18" fill="#495057" fill-opacity="0.08"/>
<path d="M25.85 17.1017C25.9991 17.0359 26.1257 16.9277 26.2141 16.7907C26.3024 16.6536 26.3486 16.4937 26.3469 16.3306C26.3452 16.1676 26.2957 16.0086 26.2046 15.8734C26.1134 15.7382 25.9846 15.6327 25.8341 15.57L18.6916 12.3167C18.4745 12.2176 18.2386 12.1664 18 12.1664C17.7613 12.1664 17.5254 12.2176 17.3083 12.3167L10.1666 15.5667C10.0183 15.6317 9.89205 15.7385 9.80343 15.874C9.7148 16.0096 9.6676 16.168 9.6676 16.33C9.6676 16.492 9.7148 16.6504 9.80343 16.786C9.89205 16.9216 10.0183 17.0284 10.1666 17.0933L17.3083 20.35C17.5254 20.4491 17.7613 20.5003 18 20.5003C18.2386 20.5003 18.4745 20.4491 18.6916 20.35L25.85 17.1017Z" stroke="#EBEFF2" stroke-width="1.5" stroke-linecap="round" stroke-linejoin="round"/>
<path d="M26.3334 16.3334V21.3334" stroke="#EBEFF2" stroke-width="1.5" stroke-linecap="round" stroke-linejoin="round"/>
<path d="M13 18.4166V21.3333C13 21.9963 13.5268 22.6322 14.4645 23.1011C15.4021 23.5699 16.6739 23.8333 18 23.8333C19.3261 23.8333 20.5979 23.5699 21.5355 23.1011C22.4732 22.6322 23 21.9963 23 21.3333V18.4166" stroke="#EBEFF2" stroke-width="1.5" stroke-linecap="round" stroke-linejoin="round"/>
</svg>
