<svg width="36" height="36" viewBox="0 0 36 36" fill="none" xmlns="http://www.w3.org/2000/svg">
<rect width="36" height="36" rx="18" fill="#495057" fill-opacity="0.08"/>
<path d="M25.85 17.1016C25.9991 17.0357 26.1257 16.9276 26.2141 16.7906C26.3024 16.6535 26.3486 16.4935 26.3469 16.3305C26.3452 16.1675 26.2957 16.0085 26.2046 15.8733C26.1134 15.7381 25.9846 15.6326 25.8341 15.5699L18.6916 12.3166C18.4745 12.2175 18.2386 12.1663 18 12.1663C17.7613 12.1663 17.5254 12.2175 17.3083 12.3166L10.1666 15.5666C10.0183 15.6315 9.89205 15.7383 9.80343 15.8739C9.7148 16.0095 9.6676 16.1679 9.6676 16.3299C9.6676 16.4919 9.7148 16.6503 9.80343 16.7859C9.89205 16.9214 10.0183 17.0282 10.1666 17.0932L17.3083 20.3499C17.5254 20.4489 17.7613 20.5002 18 20.5002C18.2386 20.5002 18.4745 20.4489 18.6916 20.3499L25.85 17.1016Z" stroke="#022538" stroke-width="1.5" stroke-linecap="round" stroke-linejoin="round"/>
<path d="M26.3334 16.3333V21.3333" stroke="#022538" stroke-width="1.5" stroke-linecap="round" stroke-linejoin="round"/>
<path d="M13 18.4167V21.3334C13 21.9965 13.5268 22.6323 14.4645 23.1012C15.4021 23.57 16.6739 23.8334 18 23.8334C19.3261 23.8334 20.5979 23.57 21.5355 23.1012C22.4732 22.6323 23 21.9965 23 21.3334V18.4167" stroke="#022538" stroke-width="1.5" stroke-linecap="round" stroke-linejoin="round"/>
</svg>
