<svg width="20" height="20" viewBox="0 0 20 20" fill="none" xmlns="http://www.w3.org/2000/svg">
<rect width="20" height="20" rx="10" fill="#262626"/>
<path d="M3.33816 10.0085C3.20492 6.50029 6.27778 3.2583 9.78949 3.21624C11.5793 3.06358 13.3206 3.75863 14.6751 4.89224C14.1195 5.50316 13.5542 6.10703 12.9503 6.67236C11.7579 5.9479 10.3222 5.3958 8.92855 5.88613C6.68075 6.52617 5.31948 9.18018 6.1513 11.3792C6.84017 13.6758 9.6336 14.9362 11.8229 13.9714C12.9565 13.5655 13.7039 12.5195 14.0318 11.3956C12.7326 11.3697 11.4331 11.3859 10.1339 11.35C10.1307 10.577 10.1275 9.80699 10.1307 9.03399C12.2973 9.03076 14.4672 9.02429 16.637 9.0437C16.7703 10.9377 16.4908 12.9646 15.2596 14.4847C13.5736 16.6545 10.4587 17.2913 7.92466 16.4401C5.23535 15.5568 3.27963 12.8475 3.33816 10.0085Z" fill="white"/>
</svg>
