<svg width="527" height="195" viewBox="0 0 527 195" fill="none" xmlns="http://www.w3.org/2000/svg">
<g clip-path="url(#clip0_1902_3088)">
<path d="M22.71 171.949H359.134" stroke="#E5E7EB" stroke-opacity="0.1" stroke-width="0.648864" stroke-dasharray="1.95 1.95"/>
<path d="M22.71 45.4204H526.877" stroke="#E5E7EB" stroke-opacity="0.1" stroke-width="0.648864" stroke-dasharray="1.95 1.95"/>
<path d="M22.71 87.5966H526.877" stroke="#E5E7EB" stroke-opacity="0.1" stroke-width="0.648864" stroke-dasharray="1.95 1.95"/>
<path d="M22.71 129.773H526.877" stroke="#E5E7EB" stroke-opacity="0.1" stroke-width="0.648864" stroke-dasharray="1.95 1.95"/>
<path d="M22.71 3.2442H526.877" stroke="#E5E7EB" stroke-opacity="0.1" stroke-width="0.648864" stroke-dasharray="1.95 1.95"/>
<path d="M22.71 3.2442V171.949" stroke="#E5E7EB" stroke-opacity="0.1" stroke-width="0.648864" stroke-dasharray="1.95 1.95"/>
<path d="M106.738 3.24426V171.949" stroke="#E5E7EB" stroke-opacity="0.1" stroke-width="0.648864" stroke-dasharray="1.95 1.95"/>
<path d="M190.766 3.24426V171.949" stroke="#E5E7EB" stroke-opacity="0.1" stroke-width="0.648864" stroke-dasharray="1.95 1.95"/>
<path d="M274.793 3.24426V171.949" stroke="#E5E7EB" stroke-opacity="0.1" stroke-width="0.648864" stroke-dasharray="1.95 1.95"/>
<path d="M358.821 3.24426V171.949" stroke="#E5E7EB" stroke-opacity="0.1" stroke-width="0.648864" stroke-dasharray="1.95 1.95"/>
<path d="M442.849 3.24426V171.949" stroke="#E5E7EB" stroke-opacity="0.1" stroke-width="0.648864" stroke-dasharray="1.95 1.95"/>
<path d="M526.877 3.24426V171.949" stroke="#E5E7EB" stroke-opacity="0.1" stroke-width="0.648864" stroke-dasharray="1.95 1.95"/>
<path d="M22.0615 171.948L526.877 171.948" stroke="#6C757D" stroke-width="0.648864"/>
<path d="M22.0615 175.84V171.947" stroke="#6C757D" stroke-width="0.648864"/>
<path d="M16.1499 181.1C15.8027 181.1 15.507 181.005 15.2628 180.817C15.0186 180.626 14.8319 180.35 14.7029 179.989C14.5738 179.627 14.5093 179.189 14.5093 178.676C14.5093 178.166 14.5738 177.73 14.7029 177.369C14.8334 177.007 15.0209 176.73 15.2651 176.54C15.5109 176.348 15.8058 176.252 16.1499 176.252C16.494 176.252 16.7882 176.348 17.0324 176.54C17.2782 176.73 17.4656 177.007 17.5946 177.369C17.7252 177.73 17.7905 178.166 17.7905 178.676C17.7905 179.189 17.726 179.627 17.597 179.989C17.4679 180.35 17.2813 180.626 17.037 180.817C16.7928 181.005 16.4971 181.1 16.1499 181.1ZM16.1499 180.593C16.494 180.593 16.7613 180.427 16.9518 180.095C17.1423 179.763 17.2375 179.29 17.2375 178.676C17.2375 178.267 17.1937 177.919 17.1062 177.632C17.0201 177.345 16.8957 177.126 16.7329 176.975C16.5716 176.825 16.3773 176.75 16.1499 176.75C15.8089 176.75 15.5424 176.918 15.3504 177.254C15.1583 177.589 15.0623 178.063 15.0623 178.676C15.0623 179.085 15.1053 179.432 15.1914 179.717C15.2774 180.003 15.401 180.22 15.5623 180.369C15.7252 180.518 15.921 180.593 16.1499 180.593ZM20.2053 181.1C19.8581 181.1 19.5624 181.005 19.3182 180.817C19.0739 180.626 18.8873 180.35 18.7583 179.989C18.6292 179.627 18.5647 179.189 18.5647 178.676C18.5647 178.166 18.6292 177.73 18.7583 177.369C18.8888 177.007 19.0763 176.73 19.3205 176.54C19.5663 176.348 19.8612 176.252 20.2053 176.252C20.5494 176.252 20.8436 176.348 21.0878 176.54C21.3336 176.73 21.521 177.007 21.65 177.369C21.7806 177.73 21.8459 178.166 21.8459 178.676C21.8459 179.189 21.7814 179.627 21.6524 179.989C21.5233 180.35 21.3367 180.626 21.0924 180.817C20.8482 181.005 20.5525 181.1 20.2053 181.1ZM20.2053 180.593C20.5494 180.593 20.8167 180.427 21.0072 180.095C21.1977 179.763 21.2929 179.29 21.2929 178.676C21.2929 178.267 21.2491 177.919 21.1616 177.632C21.0755 177.345 20.9511 177.126 20.7883 176.975C20.627 176.825 20.4327 176.75 20.2053 176.75C19.8643 176.75 19.5978 176.918 19.4058 177.254C19.2137 177.589 19.1177 178.063 19.1177 178.676C19.1177 179.085 19.1607 179.432 19.2468 179.717C19.3328 180.003 19.4564 180.22 19.6177 180.369C19.7806 180.518 19.9764 180.593 20.2053 180.593ZM23.127 180.432C23.0134 180.432 22.9158 180.391 22.8344 180.31C22.753 180.228 22.7123 180.131 22.7123 180.017C22.7123 179.903 22.753 179.806 22.8344 179.724C22.9158 179.643 23.0134 179.602 23.127 179.602C23.2407 179.602 23.3383 179.643 23.4197 179.724C23.5011 179.806 23.5418 179.903 23.5418 180.017C23.5418 180.092 23.5226 180.161 23.4842 180.224C23.4473 180.287 23.3974 180.338 23.3344 180.376C23.273 180.413 23.2038 180.432 23.127 180.432ZM23.127 178.045C23.0134 178.045 22.9158 178.004 22.8344 177.922C22.753 177.841 22.7123 177.743 22.7123 177.63C22.7123 177.516 22.753 177.419 22.8344 177.337C22.9158 177.256 23.0134 177.215 23.127 177.215C23.2407 177.215 23.3383 177.256 23.4197 177.337C23.5011 177.419 23.5418 177.516 23.5418 177.63C23.5418 177.705 23.5226 177.774 23.4842 177.837C23.4473 177.9 23.3974 177.951 23.3344 177.989C23.273 178.026 23.2038 178.045 23.127 178.045ZM26.0476 181.1C25.7005 181.1 25.4047 181.005 25.1605 180.817C24.9163 180.626 24.7296 180.35 24.6006 179.989C24.4715 179.627 24.407 179.189 24.407 178.676C24.407 178.166 24.4715 177.73 24.6006 177.369C24.7312 177.007 24.9186 176.73 25.1628 176.54C25.4086 176.348 25.7035 176.252 26.0476 176.252C26.3917 176.252 26.6859 176.348 26.9301 176.54C27.1759 176.73 27.3633 177.007 27.4924 177.369C27.6229 177.73 27.6882 178.166 27.6882 178.676C27.6882 179.189 27.6237 179.627 27.4947 179.989C27.3656 180.35 27.179 180.626 26.9347 180.817C26.6905 181.005 26.3948 181.1 26.0476 181.1ZM26.0476 180.593C26.3917 180.593 26.659 180.427 26.8495 180.095C27.04 179.763 27.1352 179.29 27.1352 178.676C27.1352 178.267 27.0914 177.919 27.0039 177.632C26.9178 177.345 26.7934 177.126 26.6306 176.975C26.4693 176.825 26.275 176.75 26.0476 176.75C25.7066 176.75 25.4401 176.918 25.2481 177.254C25.056 177.589 24.96 178.063 24.96 178.676C24.96 179.085 25.003 179.432 25.0891 179.717C25.1751 180.003 25.2988 180.22 25.46 180.369C25.6229 180.518 25.8187 180.593 26.0476 180.593ZM30.103 181.1C29.7558 181.1 29.4601 181.005 29.2159 180.817C28.9717 180.626 28.785 180.35 28.656 179.989C28.5269 179.627 28.4624 179.189 28.4624 178.676C28.4624 178.166 28.5269 177.73 28.656 177.369C28.7865 177.007 28.974 176.73 29.2182 176.54C29.464 176.348 29.7589 176.252 30.103 176.252C30.4471 176.252 30.7413 176.348 30.9855 176.54C31.2313 176.73 31.4187 177.007 31.5478 177.369C31.6783 177.73 31.7436 178.166 31.7436 178.676C31.7436 179.189 31.6791 179.627 31.5501 179.989C31.421 180.35 31.2344 180.626 30.9901 180.817C30.7459 181.005 30.4502 181.1 30.103 181.1ZM30.103 180.593C30.4471 180.593 30.7144 180.427 30.9049 180.095C31.0954 179.763 31.1906 179.29 31.1906 178.676C31.1906 178.267 31.1468 177.919 31.0593 177.632C30.9732 177.345 30.8488 177.126 30.686 176.975C30.5247 176.825 30.3304 176.75 30.103 176.75C29.762 176.75 29.4955 176.918 29.3035 177.254C29.1114 177.589 29.0154 178.063 29.0154 178.676C29.0154 179.085 29.0584 179.432 29.1445 179.717C29.2305 180.003 29.3542 180.22 29.5154 180.369C29.6783 180.518 29.8741 180.593 30.103 180.593Z" fill="#6C757D"/>
<path d="M509.254 181.036V180.621L510.812 178.916C510.994 178.716 511.145 178.543 511.263 178.395C511.381 178.246 511.469 178.106 511.526 177.976C511.584 177.844 511.613 177.706 511.613 177.561C511.613 177.395 511.573 177.252 511.494 177.13C511.415 177.009 511.308 176.915 511.171 176.849C511.034 176.783 510.881 176.75 510.71 176.75C510.529 176.75 510.371 176.788 510.236 176.863C510.102 176.937 509.998 177.04 509.924 177.174C509.852 177.308 509.816 177.464 509.816 177.644H509.272C509.272 177.368 509.336 177.125 509.464 176.916C509.591 176.707 509.765 176.544 509.984 176.427C510.206 176.311 510.454 176.252 510.729 176.252C511.005 176.252 511.25 176.311 511.464 176.427C511.677 176.544 511.845 176.702 511.966 176.9C512.087 177.098 512.148 177.318 512.148 177.561C512.148 177.735 512.116 177.904 512.054 178.07C511.992 178.235 511.885 178.418 511.731 178.621C511.579 178.822 511.368 179.068 511.097 179.358L510.037 180.492V180.529H512.231V181.036H509.254ZM512.971 180.068V179.598L515.044 176.317H515.385V177.045H515.155L513.588 179.524V179.561H516.381V180.068H512.971ZM515.192 181.036V179.925V179.706V176.317H515.736V181.036H515.192ZM517.65 180.432C517.536 180.432 517.439 180.391 517.357 180.31C517.276 180.229 517.235 180.131 517.235 180.017C517.235 179.904 517.276 179.806 517.357 179.725C517.439 179.643 517.536 179.603 517.65 179.603C517.764 179.603 517.861 179.643 517.942 179.725C518.024 179.806 518.065 179.904 518.065 180.017C518.065 180.093 518.045 180.162 518.007 180.225C517.97 180.288 517.92 180.338 517.857 180.377C517.796 180.414 517.727 180.432 517.65 180.432ZM517.65 178.045C517.536 178.045 517.439 178.004 517.357 177.923C517.276 177.841 517.235 177.744 517.235 177.63C517.235 177.517 517.276 177.419 517.357 177.338C517.439 177.256 517.536 177.216 517.65 177.216C517.764 177.216 517.861 177.256 517.942 177.338C518.024 177.419 518.065 177.517 518.065 177.63C518.065 177.706 518.045 177.775 518.007 177.838C517.97 177.901 517.92 177.951 517.857 177.99C517.796 178.027 517.727 178.045 517.65 178.045ZM520.57 181.1C520.223 181.1 519.928 181.006 519.683 180.817C519.439 180.627 519.252 180.351 519.123 179.99C518.994 179.627 518.93 179.189 518.93 178.676C518.93 178.166 518.994 177.731 519.123 177.37C519.254 177.007 519.441 176.731 519.686 176.54C519.931 176.348 520.226 176.252 520.57 176.252C520.915 176.252 521.209 176.348 521.453 176.54C521.699 176.731 521.886 177.007 522.015 177.37C522.146 177.731 522.211 178.166 522.211 178.676C522.211 179.189 522.147 179.627 522.017 179.99C521.888 180.351 521.702 180.627 521.458 180.817C521.213 181.006 520.918 181.1 520.57 181.1ZM520.57 180.593C520.915 180.593 521.182 180.428 521.372 180.096C521.563 179.764 521.658 179.291 521.658 178.676C521.658 178.268 521.614 177.92 521.527 177.633C521.441 177.345 521.316 177.126 521.153 176.976C520.992 176.825 520.798 176.75 520.57 176.75C520.229 176.75 519.963 176.918 519.771 177.255C519.579 177.59 519.483 178.063 519.483 178.676C519.483 179.085 519.526 179.432 519.612 179.718C519.698 180.004 519.822 180.221 519.983 180.37C520.146 180.519 520.342 180.593 520.57 180.593ZM524.626 181.1C524.279 181.1 523.983 181.006 523.739 180.817C523.494 180.627 523.308 180.351 523.179 179.99C523.05 179.627 522.985 179.189 522.985 178.676C522.985 178.166 523.05 177.731 523.179 177.37C523.309 177.007 523.497 176.731 523.741 176.54C523.987 176.348 524.282 176.252 524.626 176.252C524.97 176.252 525.264 176.348 525.508 176.54C525.754 176.731 525.942 177.007 526.071 177.37C526.201 177.731 526.266 178.166 526.266 178.676C526.266 179.189 526.202 179.627 526.073 179.99C525.944 180.351 525.757 180.627 525.513 180.817C525.269 181.006 524.973 181.1 524.626 181.1ZM524.626 180.593C524.97 180.593 525.237 180.428 525.428 180.096C525.618 179.764 525.713 179.291 525.713 178.676C525.713 178.268 525.67 177.92 525.582 177.633C525.496 177.345 525.372 177.126 525.209 176.976C525.047 176.825 524.853 176.75 524.626 176.75C524.285 176.75 524.018 176.918 523.826 177.255C523.634 177.59 523.538 178.063 523.538 178.676C523.538 179.085 523.581 179.432 523.667 179.718C523.753 180.004 523.877 180.221 524.038 180.37C524.201 180.519 524.397 180.593 524.626 180.593Z" fill="#6C757D"/>
<path d="M106.414 175.997V172.104" stroke="#6C757D" stroke-width="0.648864"/>
<path d="M99.7992 181.101C99.452 181.101 99.1563 181.006 98.9121 180.817C98.6678 180.627 98.4812 180.351 98.3521 179.99C98.2231 179.628 98.1586 179.19 98.1586 178.677C98.1586 178.167 98.2231 177.731 98.3521 177.37C98.4827 177.008 98.6701 176.731 98.9144 176.541C99.1601 176.349 99.4551 176.253 99.7992 176.253C100.143 176.253 100.437 176.349 100.682 176.541C100.927 176.731 101.115 177.008 101.244 177.37C101.374 177.731 101.44 178.167 101.44 178.677C101.44 179.19 101.375 179.628 101.246 179.99C101.117 180.351 100.931 180.627 100.686 180.817C100.442 181.006 100.146 181.101 99.7992 181.101ZM99.7992 180.594C100.143 180.594 100.411 180.428 100.601 180.096C100.792 179.764 100.887 179.291 100.887 178.677C100.887 178.268 100.843 177.92 100.755 177.633C100.669 177.346 100.545 177.127 100.382 176.976C100.221 176.826 100.027 176.75 99.7992 176.75C99.4582 176.75 99.1916 176.919 98.9996 177.255C98.8076 177.59 98.7116 178.064 98.7116 178.677C98.7116 179.085 98.7546 179.433 98.8406 179.718C98.9267 180.004 99.0503 180.221 99.2116 180.37C99.3744 180.519 99.5703 180.594 99.7992 180.594ZM102.205 180.069V179.598L104.279 176.317H104.62V177.045H104.389L102.822 179.525V179.562H105.615V180.069H102.205ZM104.426 181.036V179.926V179.707V176.317H104.97V181.036H104.426ZM106.884 180.433C106.77 180.433 106.673 180.392 106.591 180.31C106.51 180.229 106.469 180.132 106.469 180.018C106.469 179.904 106.51 179.807 106.591 179.725C106.673 179.644 106.77 179.603 106.884 179.603C106.998 179.603 107.095 179.644 107.177 179.725C107.258 179.807 107.299 179.904 107.299 180.018C107.299 180.093 107.28 180.162 107.241 180.225C107.204 180.288 107.154 180.339 107.091 180.377C107.03 180.414 106.961 180.433 106.884 180.433ZM106.884 178.045C106.77 178.045 106.673 178.005 106.591 177.923C106.51 177.842 106.469 177.744 106.469 177.631C106.469 177.517 106.51 177.419 106.591 177.338C106.673 177.257 106.77 177.216 106.884 177.216C106.998 177.216 107.095 177.257 107.177 177.338C107.258 177.419 107.299 177.517 107.299 177.631C107.299 177.706 107.28 177.775 107.241 177.838C107.204 177.901 107.154 177.952 107.091 177.99C107.03 178.027 106.961 178.045 106.884 178.045ZM109.805 181.101C109.457 181.101 109.162 181.006 108.917 180.817C108.673 180.627 108.487 180.351 108.358 179.99C108.229 179.628 108.164 179.19 108.164 178.677C108.164 178.167 108.229 177.731 108.358 177.37C108.488 177.008 108.676 176.731 108.92 176.541C109.166 176.349 109.461 176.253 109.805 176.253C110.149 176.253 110.443 176.349 110.687 176.541C110.933 176.731 111.12 177.008 111.249 177.37C111.38 177.731 111.445 178.167 111.445 178.677C111.445 179.19 111.381 179.628 111.252 179.99C111.123 180.351 110.936 180.627 110.692 180.817C110.447 181.006 110.152 181.101 109.805 181.101ZM109.805 180.594C110.149 180.594 110.416 180.428 110.606 180.096C110.797 179.764 110.892 179.291 110.892 178.677C110.892 178.268 110.848 177.92 110.761 177.633C110.675 177.346 110.55 177.127 110.388 176.976C110.226 176.826 110.032 176.75 109.805 176.75C109.464 176.75 109.197 176.919 109.005 177.255C108.813 177.59 108.717 178.064 108.717 178.677C108.717 179.085 108.76 179.433 108.846 179.718C108.932 180.004 109.056 180.221 109.217 180.37C109.38 180.519 109.576 180.594 109.805 180.594ZM113.86 181.101C113.513 181.101 113.217 181.006 112.973 180.817C112.729 180.627 112.542 180.351 112.413 179.99C112.284 179.628 112.219 179.19 112.219 178.677C112.219 178.167 112.284 177.731 112.413 177.37C112.544 177.008 112.731 176.731 112.975 176.541C113.221 176.349 113.516 176.253 113.86 176.253C114.204 176.253 114.498 176.349 114.743 176.541C114.988 176.731 115.176 177.008 115.305 177.37C115.435 177.731 115.501 178.167 115.501 178.677C115.501 179.19 115.436 179.628 115.307 179.99C115.178 180.351 114.991 180.627 114.747 180.817C114.503 181.006 114.207 181.101 113.86 181.101ZM113.86 180.594C114.204 180.594 114.471 180.428 114.662 180.096C114.852 179.764 114.948 179.291 114.948 178.677C114.948 178.268 114.904 177.92 114.816 177.633C114.73 177.346 114.606 177.127 114.443 176.976C114.282 176.826 114.087 176.75 113.86 176.75C113.519 176.75 113.252 176.919 113.06 177.255C112.868 177.59 112.772 178.064 112.772 178.677C112.772 179.085 112.815 179.433 112.901 179.718C112.987 180.004 113.111 180.221 113.272 180.37C113.435 180.519 113.631 180.594 113.86 180.594Z" fill="#6C757D"/>
<path d="M190.766 175.997V172.104" stroke="#6C757D" stroke-width="0.648864"/>
<path d="M183.734 181.101C183.386 181.101 183.091 181.006 182.846 180.817C182.602 180.627 182.416 180.351 182.287 179.99C182.158 179.628 182.093 179.19 182.093 178.677C182.093 178.167 182.158 177.731 182.287 177.37C182.417 177.008 182.605 176.731 182.849 176.541C183.095 176.349 183.39 176.253 183.734 176.253C184.078 176.253 184.372 176.349 184.616 176.541C184.862 176.731 185.049 177.008 185.178 177.37C185.309 177.731 185.374 178.167 185.374 178.677C185.374 179.19 185.31 179.628 185.181 179.99C185.052 180.351 184.865 180.627 184.621 180.817C184.376 181.006 184.081 181.101 183.734 181.101ZM183.734 180.594C184.078 180.594 184.345 180.428 184.535 180.096C184.726 179.764 184.821 179.291 184.821 178.677C184.821 178.268 184.777 177.92 184.69 177.633C184.604 177.346 184.479 177.127 184.317 176.976C184.155 176.826 183.961 176.75 183.734 176.75C183.393 176.75 183.126 176.919 182.934 177.255C182.742 177.59 182.646 178.064 182.646 178.677C182.646 179.085 182.689 179.433 182.775 179.718C182.861 180.004 182.985 180.221 183.146 180.37C183.309 180.519 183.505 180.594 183.734 180.594ZM187.761 181.101C187.445 181.101 187.165 181.045 186.923 180.933C186.681 180.819 186.493 180.663 186.358 180.465C186.223 180.265 186.156 180.038 186.158 179.783C186.156 179.583 186.195 179.399 186.275 179.23C186.355 179.059 186.464 178.917 186.602 178.804C186.742 178.688 186.898 178.615 187.07 178.585V178.557C186.844 178.499 186.665 178.372 186.531 178.177C186.397 177.98 186.331 177.757 186.333 177.506C186.331 177.267 186.392 177.052 186.515 176.863C186.638 176.674 186.807 176.525 187.022 176.416C187.238 176.307 187.485 176.253 187.761 176.253C188.035 176.253 188.279 176.307 188.494 176.416C188.709 176.525 188.878 176.674 189.001 176.863C189.125 177.052 189.188 177.267 189.19 177.506C189.188 177.757 189.12 177.98 188.985 178.177C188.851 178.372 188.674 178.499 188.453 178.557V178.585C188.623 178.615 188.777 178.688 188.913 178.804C189.05 178.917 189.159 179.059 189.241 179.23C189.322 179.399 189.364 179.583 189.365 179.783C189.364 180.038 189.294 180.265 189.158 180.465C189.023 180.663 188.834 180.819 188.593 180.933C188.354 181.045 188.076 181.101 187.761 181.101ZM187.761 180.594C187.975 180.594 188.159 180.559 188.314 180.49C188.47 180.421 188.589 180.324 188.674 180.198C188.758 180.072 188.801 179.924 188.803 179.755C188.801 179.577 188.755 179.42 188.665 179.283C188.574 179.146 188.45 179.039 188.294 178.96C188.138 178.882 187.961 178.843 187.761 178.843C187.56 178.843 187.38 178.882 187.222 178.96C187.065 179.039 186.942 179.146 186.851 179.283C186.762 179.42 186.718 179.577 186.72 179.755C186.718 179.924 186.759 180.072 186.842 180.198C186.926 180.324 187.047 180.421 187.204 180.49C187.36 180.559 187.546 180.594 187.761 180.594ZM187.761 178.354C187.93 178.354 188.08 178.32 188.211 178.253C188.343 178.185 188.446 178.091 188.522 177.969C188.597 177.848 188.635 177.706 188.637 177.543C188.635 177.383 188.598 177.244 188.524 177.126C188.45 177.006 188.348 176.914 188.218 176.85C188.087 176.784 187.935 176.75 187.761 176.75C187.585 176.75 187.43 176.784 187.298 176.85C187.166 176.914 187.064 177.006 186.992 177.126C186.92 177.244 186.884 177.383 186.886 177.543C186.884 177.706 186.92 177.848 186.994 177.969C187.069 178.091 187.173 178.185 187.305 178.253C187.437 178.32 187.589 178.354 187.761 178.354ZM190.654 180.433C190.54 180.433 190.442 180.392 190.361 180.31C190.28 180.229 190.239 180.132 190.239 180.018C190.239 179.904 190.28 179.807 190.361 179.725C190.442 179.644 190.54 179.603 190.654 179.603C190.767 179.603 190.865 179.644 190.946 179.725C191.028 179.807 191.068 179.904 191.068 180.018C191.068 180.093 191.049 180.162 191.011 180.225C190.974 180.288 190.924 180.339 190.861 180.377C190.8 180.414 190.731 180.433 190.654 180.433ZM190.654 178.045C190.54 178.045 190.442 178.005 190.361 177.923C190.28 177.842 190.239 177.744 190.239 177.631C190.239 177.517 190.28 177.419 190.361 177.338C190.442 177.257 190.54 177.216 190.654 177.216C190.767 177.216 190.865 177.257 190.946 177.338C191.028 177.419 191.068 177.517 191.068 177.631C191.068 177.706 191.049 177.775 191.011 177.838C190.974 177.901 190.924 177.952 190.861 177.99C190.8 178.027 190.731 178.045 190.654 178.045ZM193.574 181.101C193.227 181.101 192.931 181.006 192.687 180.817C192.443 180.627 192.256 180.351 192.127 179.99C191.998 179.628 191.934 179.19 191.934 178.677C191.934 178.167 191.998 177.731 192.127 177.37C192.258 177.008 192.445 176.731 192.689 176.541C192.935 176.349 193.23 176.253 193.574 176.253C193.918 176.253 194.213 176.349 194.457 176.541C194.703 176.731 194.89 177.008 195.019 177.37C195.15 177.731 195.215 178.167 195.215 178.677C195.215 179.19 195.15 179.628 195.021 179.99C194.892 180.351 194.706 180.627 194.461 180.817C194.217 181.006 193.921 181.101 193.574 181.101ZM193.574 180.594C193.918 180.594 194.186 180.428 194.376 180.096C194.567 179.764 194.662 179.291 194.662 178.677C194.662 178.268 194.618 177.92 194.531 177.633C194.444 177.346 194.32 177.127 194.157 176.976C193.996 176.826 193.802 176.75 193.574 176.75C193.233 176.75 192.967 176.919 192.775 177.255C192.583 177.59 192.487 178.064 192.487 178.677C192.487 179.085 192.53 179.433 192.616 179.718C192.702 180.004 192.825 180.221 192.987 180.37C193.15 180.519 193.345 180.594 193.574 180.594ZM197.63 181.101C197.283 181.101 196.987 181.006 196.743 180.817C196.498 180.627 196.312 180.351 196.183 179.99C196.054 179.628 195.989 179.19 195.989 178.677C195.989 178.167 196.054 177.731 196.183 177.37C196.313 177.008 196.501 176.731 196.745 176.541C196.991 176.349 197.286 176.253 197.63 176.253C197.974 176.253 198.268 176.349 198.512 176.541C198.758 176.731 198.945 177.008 199.074 177.37C199.205 177.731 199.27 178.167 199.27 178.677C199.27 179.19 199.206 179.628 199.077 179.99C198.948 180.351 198.761 180.627 198.517 180.817C198.273 181.006 197.977 181.101 197.63 181.101ZM197.63 180.594C197.974 180.594 198.241 180.428 198.432 180.096C198.622 179.764 198.717 179.291 198.717 178.677C198.717 178.268 198.673 177.92 198.586 177.633C198.5 177.346 198.375 177.127 198.213 176.976C198.051 176.826 197.857 176.75 197.63 176.75C197.289 176.75 197.022 176.919 196.83 177.255C196.638 177.59 196.542 178.064 196.542 178.677C196.542 179.085 196.585 179.433 196.671 179.718C196.757 180.004 196.881 180.221 197.042 180.37C197.205 180.519 197.401 180.594 197.63 180.594Z" fill="#6C757D"/>
<path d="M274.469 175.997V172.104" stroke="#6C757D" stroke-width="0.648864"/>
<path d="M267.611 176.317V181.036H267.04V176.916H267.012L265.86 177.681V177.101L267.04 176.317H267.611ZM268.969 181.036V180.622L270.526 178.916C270.709 178.717 270.86 178.543 270.978 178.396C271.096 178.247 271.184 178.107 271.241 177.976C271.299 177.844 271.328 177.706 271.328 177.562C271.328 177.396 271.288 177.252 271.208 177.131C271.13 177.009 271.022 176.916 270.886 176.85C270.749 176.784 270.595 176.75 270.425 176.75C270.244 176.75 270.085 176.788 269.95 176.863C269.817 176.937 269.713 177.041 269.639 177.174C269.567 177.308 269.531 177.465 269.531 177.645H268.987C268.987 177.368 269.051 177.125 269.178 176.916C269.306 176.707 269.479 176.545 269.699 176.428C269.92 176.311 270.168 176.253 270.443 176.253C270.72 176.253 270.965 176.311 271.178 176.428C271.392 176.545 271.559 176.702 271.681 176.9C271.802 177.098 271.863 177.319 271.863 177.562C271.863 177.735 271.831 177.905 271.768 178.071C271.707 178.235 271.599 178.419 271.446 178.622C271.294 178.823 271.082 179.069 270.812 179.359L269.752 180.493V180.529H271.946V181.036H268.969ZM273.303 180.433C273.189 180.433 273.092 180.392 273.01 180.31C272.929 180.229 272.888 180.132 272.888 180.018C272.888 179.904 272.929 179.807 273.01 179.725C273.092 179.644 273.189 179.603 273.303 179.603C273.417 179.603 273.514 179.644 273.596 179.725C273.677 179.807 273.718 179.904 273.718 180.018C273.718 180.093 273.698 180.162 273.66 180.225C273.623 180.288 273.573 180.339 273.51 180.377C273.449 180.414 273.38 180.433 273.303 180.433ZM273.303 178.045C273.189 178.045 273.092 178.005 273.01 177.923C272.929 177.842 272.888 177.744 272.888 177.631C272.888 177.517 272.929 177.419 273.01 177.338C273.092 177.257 273.189 177.216 273.303 177.216C273.417 177.216 273.514 177.257 273.596 177.338C273.677 177.419 273.718 177.517 273.718 177.631C273.718 177.706 273.698 177.775 273.66 177.838C273.623 177.901 273.573 177.952 273.51 177.99C273.449 178.027 273.38 178.045 273.303 178.045ZM276.223 181.101C275.876 181.101 275.581 181.006 275.336 180.817C275.092 180.627 274.905 180.351 274.776 179.99C274.647 179.628 274.583 179.19 274.583 178.677C274.583 178.167 274.647 177.731 274.776 177.37C274.907 177.008 275.094 176.731 275.339 176.541C275.584 176.349 275.879 176.253 276.223 176.253C276.568 176.253 276.862 176.349 277.106 176.541C277.352 176.731 277.539 177.008 277.668 177.37C277.799 177.731 277.864 178.167 277.864 178.677C277.864 179.19 277.8 179.628 277.67 179.99C277.541 180.351 277.355 180.627 277.111 180.817C276.866 181.006 276.571 181.101 276.223 181.101ZM276.223 180.594C276.568 180.594 276.835 180.428 277.025 180.096C277.216 179.764 277.311 179.291 277.311 178.677C277.311 178.268 277.267 177.92 277.18 177.633C277.094 177.346 276.969 177.127 276.806 176.976C276.645 176.826 276.451 176.75 276.223 176.75C275.882 176.75 275.616 176.919 275.424 177.255C275.232 177.59 275.136 178.064 275.136 178.677C275.136 179.085 275.179 179.433 275.265 179.718C275.351 180.004 275.475 180.221 275.636 180.37C275.799 180.519 275.995 180.594 276.223 180.594ZM280.279 181.101C279.932 181.101 279.636 181.006 279.392 180.817C279.147 180.627 278.961 180.351 278.832 179.99C278.703 179.628 278.638 179.19 278.638 178.677C278.638 178.167 278.703 177.731 278.832 177.37C278.962 177.008 279.15 176.731 279.394 176.541C279.64 176.349 279.935 176.253 280.279 176.253C280.623 176.253 280.917 176.349 281.161 176.541C281.407 176.731 281.595 177.008 281.724 177.37C281.854 177.731 281.919 178.167 281.919 178.677C281.919 179.19 281.855 179.628 281.726 179.99C281.597 180.351 281.41 180.627 281.166 180.817C280.922 181.006 280.626 181.101 280.279 181.101ZM280.279 180.594C280.623 180.594 280.89 180.428 281.081 180.096C281.271 179.764 281.366 179.291 281.366 178.677C281.366 178.268 281.323 177.92 281.235 177.633C281.149 177.346 281.025 177.127 280.862 176.976C280.701 176.826 280.506 176.75 280.279 176.75C279.938 176.75 279.671 176.919 279.479 177.255C279.287 177.59 279.191 178.064 279.191 178.677C279.191 179.085 279.234 179.433 279.32 179.718C279.406 180.004 279.53 180.221 279.691 180.37C279.854 180.519 280.05 180.594 280.279 180.594Z" fill="#6C757D"/>
<path d="M358.821 175.997V172.104" stroke="#6C757D" stroke-width="0.648864"/>
<path d="M351.903 176.317V181.036H351.332V176.916H351.304L350.152 177.681V177.101L351.332 176.317H351.903ZM354.827 181.101C354.634 181.098 354.44 181.061 354.247 180.99C354.053 180.92 353.877 180.801 353.717 180.633C353.557 180.464 353.429 180.236 353.332 179.949C353.235 179.66 353.187 179.297 353.187 178.861C353.187 178.443 353.226 178.073 353.304 177.751C353.383 177.426 353.496 177.154 353.645 176.933C353.794 176.71 353.974 176.541 354.184 176.426C354.396 176.31 354.635 176.253 354.901 176.253C355.165 176.253 355.4 176.306 355.606 176.412C355.814 176.516 355.983 176.662 356.113 176.85C356.244 177.037 356.328 177.253 356.367 177.497H355.804C355.752 177.285 355.651 177.109 355.5 176.969C355.35 176.83 355.15 176.76 354.901 176.76C354.536 176.76 354.247 176.919 354.037 177.237C353.828 177.555 353.723 178.001 353.721 178.575H353.758C353.844 178.445 353.946 178.333 354.065 178.241C354.184 178.148 354.317 178.075 354.461 178.025C354.605 177.974 354.758 177.949 354.92 177.949C355.19 177.949 355.437 178.016 355.661 178.151C355.886 178.285 356.065 178.47 356.201 178.707C356.336 178.942 356.403 179.211 356.403 179.516C356.403 179.807 356.338 180.075 356.208 180.317C356.077 180.559 355.893 180.751 355.657 180.893C355.422 181.035 355.145 181.104 354.827 181.101ZM354.827 180.594C355.021 180.594 355.195 180.546 355.348 180.449C355.503 180.352 355.625 180.222 355.714 180.059C355.805 179.897 355.85 179.715 355.85 179.516C355.85 179.32 355.807 179.143 355.719 178.983C355.633 178.822 355.514 178.694 355.362 178.598C355.211 178.503 355.039 178.456 354.846 178.456C354.7 178.456 354.564 178.485 354.438 178.543C354.312 178.6 354.201 178.678 354.106 178.778C354.012 178.878 353.939 178.992 353.885 179.122C353.831 179.249 353.804 179.383 353.804 179.525C353.804 179.712 353.848 179.887 353.936 180.05C354.025 180.213 354.146 180.344 354.3 180.444C354.455 180.544 354.631 180.594 354.827 180.594ZM357.715 180.433C357.601 180.433 357.504 180.392 357.422 180.31C357.341 180.229 357.3 180.132 357.3 180.018C357.3 179.904 357.341 179.807 357.422 179.725C357.504 179.644 357.601 179.603 357.715 179.603C357.829 179.603 357.926 179.644 358.008 179.725C358.089 179.807 358.13 179.904 358.13 180.018C358.13 180.093 358.111 180.162 358.072 180.225C358.035 180.288 357.985 180.339 357.922 180.377C357.861 180.414 357.792 180.433 357.715 180.433ZM357.715 178.045C357.601 178.045 357.504 178.005 357.422 177.923C357.341 177.842 357.3 177.744 357.3 177.631C357.3 177.517 357.341 177.419 357.422 177.338C357.504 177.257 357.601 177.216 357.715 177.216C357.829 177.216 357.926 177.257 358.008 177.338C358.089 177.419 358.13 177.517 358.13 177.631C358.13 177.706 358.111 177.775 358.072 177.838C358.035 177.901 357.985 177.952 357.922 177.99C357.861 178.027 357.792 178.045 357.715 178.045ZM360.636 181.101C360.289 181.101 359.993 181.006 359.749 180.817C359.504 180.627 359.318 180.351 359.189 179.99C359.06 179.628 358.995 179.19 358.995 178.677C358.995 178.167 359.06 177.731 359.189 177.37C359.319 177.008 359.507 176.731 359.751 176.541C359.997 176.349 360.292 176.253 360.636 176.253C360.98 176.253 361.274 176.349 361.518 176.541C361.764 176.731 361.951 177.008 362.08 177.37C362.211 177.731 362.276 178.167 362.276 178.677C362.276 179.19 362.212 179.628 362.083 179.99C361.954 180.351 361.767 180.627 361.523 180.817C361.279 181.006 360.983 181.101 360.636 181.101ZM360.636 180.594C360.98 180.594 361.247 180.428 361.438 180.096C361.628 179.764 361.723 179.291 361.723 178.677C361.723 178.268 361.679 177.92 361.592 177.633C361.506 177.346 361.381 177.127 361.219 176.976C361.057 176.826 360.863 176.75 360.636 176.75C360.295 176.75 360.028 176.919 359.836 177.255C359.644 177.59 359.548 178.064 359.548 178.677C359.548 179.085 359.591 179.433 359.677 179.718C359.763 180.004 359.887 180.221 360.048 180.37C360.211 180.519 360.407 180.594 360.636 180.594ZM364.691 181.101C364.344 181.101 364.048 181.006 363.804 180.817C363.56 180.627 363.373 180.351 363.244 179.99C363.115 179.628 363.05 179.19 363.05 178.677C363.05 178.167 363.115 177.731 363.244 177.37C363.375 177.008 363.562 176.731 363.806 176.541C364.052 176.349 364.347 176.253 364.691 176.253C365.035 176.253 365.329 176.349 365.574 176.541C365.819 176.731 366.007 177.008 366.136 177.37C366.266 177.731 366.332 178.167 366.332 178.677C366.332 179.19 366.267 179.628 366.138 179.99C366.009 180.351 365.822 180.627 365.578 180.817C365.334 181.006 365.038 181.101 364.691 181.101ZM364.691 180.594C365.035 180.594 365.302 180.428 365.493 180.096C365.683 179.764 365.779 179.291 365.779 178.677C365.779 178.268 365.735 177.92 365.647 177.633C365.561 177.346 365.437 177.127 365.274 176.976C365.113 176.826 364.918 176.75 364.691 176.75C364.35 176.75 364.084 176.919 363.892 177.255C363.7 177.59 363.604 178.064 363.604 178.677C363.604 179.085 363.647 179.433 363.733 179.718C363.819 180.004 363.942 180.221 364.104 180.37C364.266 180.519 364.462 180.594 364.691 180.594Z" fill="#6C757D"/>
<path d="M442.525 175.997V172.104" stroke="#6C757D" stroke-width="0.648864"/>
<path d="M433.34 181.036V180.622L434.897 178.916C435.08 178.717 435.231 178.543 435.349 178.396C435.467 178.247 435.555 178.107 435.612 177.976C435.67 177.844 435.699 177.706 435.699 177.562C435.699 177.396 435.659 177.252 435.579 177.131C435.501 177.009 435.393 176.916 435.257 176.85C435.12 176.784 434.966 176.75 434.796 176.75C434.615 176.75 434.456 176.788 434.321 176.863C434.188 176.937 434.084 177.041 434.01 177.174C433.938 177.308 433.902 177.465 433.902 177.645H433.358C433.358 177.368 433.422 177.125 433.549 176.916C433.677 176.707 433.85 176.545 434.07 176.428C434.291 176.311 434.539 176.253 434.814 176.253C435.091 176.253 435.336 176.311 435.549 176.428C435.763 176.545 435.93 176.702 436.052 176.9C436.173 177.098 436.234 177.319 436.234 177.562C436.234 177.735 436.202 177.905 436.139 178.071C436.078 178.235 435.97 178.419 435.817 178.622C435.665 178.823 435.453 179.069 435.183 179.359L434.123 180.493V180.529H436.317V181.036H433.34ZM438.807 181.101C438.46 181.101 438.165 181.006 437.92 180.817C437.676 180.627 437.489 180.351 437.36 179.99C437.231 179.628 437.167 179.19 437.167 178.677C437.167 178.167 437.231 177.731 437.36 177.37C437.491 177.008 437.678 176.731 437.923 176.541C438.168 176.349 438.463 176.253 438.807 176.253C439.152 176.253 439.446 176.349 439.69 176.541C439.936 176.731 440.123 177.008 440.252 177.37C440.383 177.731 440.448 178.167 440.448 178.677C440.448 179.19 440.384 179.628 440.255 179.99C440.125 180.351 439.939 180.627 439.695 180.817C439.45 181.006 439.155 181.101 438.807 181.101ZM438.807 180.594C439.152 180.594 439.419 180.428 439.609 180.096C439.8 179.764 439.895 179.291 439.895 178.677C439.895 178.268 439.851 177.92 439.764 177.633C439.678 177.346 439.553 177.127 439.39 176.976C439.229 176.826 439.035 176.75 438.807 176.75C438.466 176.75 438.2 176.919 438.008 177.255C437.816 177.59 437.72 178.064 437.72 178.677C437.72 179.085 437.763 179.433 437.849 179.718C437.935 180.004 438.059 180.221 438.22 180.37C438.383 180.519 438.579 180.594 438.807 180.594ZM441.729 180.433C441.616 180.433 441.518 180.392 441.437 180.31C441.355 180.229 441.314 180.132 441.314 180.018C441.314 179.904 441.355 179.807 441.437 179.725C441.518 179.644 441.616 179.603 441.729 179.603C441.843 179.603 441.94 179.644 442.022 179.725C442.103 179.807 442.144 179.904 442.144 180.018C442.144 180.093 442.125 180.162 442.086 180.225C442.049 180.288 442 180.339 441.937 180.377C441.875 180.414 441.806 180.433 441.729 180.433ZM441.729 178.045C441.616 178.045 441.518 178.005 441.437 177.923C441.355 177.842 441.314 177.744 441.314 177.631C441.314 177.517 441.355 177.419 441.437 177.338C441.518 177.257 441.616 177.216 441.729 177.216C441.843 177.216 441.94 177.257 442.022 177.338C442.103 177.419 442.144 177.517 442.144 177.631C442.144 177.706 442.125 177.775 442.086 177.838C442.049 177.901 442 177.952 441.937 177.99C441.875 178.027 441.806 178.045 441.729 178.045ZM444.65 181.101C444.303 181.101 444.007 181.006 443.763 180.817C443.518 180.627 443.332 180.351 443.203 179.99C443.074 179.628 443.009 179.19 443.009 178.677C443.009 178.167 443.074 177.731 443.203 177.37C443.333 177.008 443.521 176.731 443.765 176.541C444.011 176.349 444.306 176.253 444.65 176.253C444.994 176.253 445.288 176.349 445.532 176.541C445.778 176.731 445.965 177.008 446.095 177.37C446.225 177.731 446.29 178.167 446.29 178.677C446.29 179.19 446.226 179.628 446.097 179.99C445.968 180.351 445.781 180.627 445.537 180.817C445.293 181.006 444.997 181.101 444.65 181.101ZM444.65 180.594C444.994 180.594 445.261 180.428 445.452 180.096C445.642 179.764 445.737 179.291 445.737 178.677C445.737 178.268 445.694 177.92 445.606 177.633C445.52 177.346 445.396 177.127 445.233 176.976C445.071 176.826 444.877 176.75 444.65 176.75C444.309 176.75 444.042 176.919 443.85 177.255C443.658 177.59 443.562 178.064 443.562 178.677C443.562 179.085 443.605 179.433 443.691 179.718C443.777 180.004 443.901 180.221 444.062 180.37C444.225 180.519 444.421 180.594 444.65 180.594ZM448.705 181.101C448.358 181.101 448.062 181.006 447.818 180.817C447.574 180.627 447.387 180.351 447.258 179.99C447.129 179.628 447.065 179.19 447.065 178.677C447.065 178.167 447.129 177.731 447.258 177.37C447.389 177.008 447.576 176.731 447.82 176.541C448.066 176.349 448.361 176.253 448.705 176.253C449.049 176.253 449.343 176.349 449.588 176.541C449.833 176.731 450.021 177.008 450.15 177.37C450.28 177.731 450.346 178.167 450.346 178.677C450.346 179.19 450.281 179.628 450.152 179.99C450.023 180.351 449.837 180.627 449.592 180.817C449.348 181.006 449.052 181.101 448.705 181.101ZM448.705 180.594C449.049 180.594 449.317 180.428 449.507 180.096C449.698 179.764 449.793 179.291 449.793 178.677C449.793 178.268 449.749 177.92 449.661 177.633C449.575 177.346 449.451 177.127 449.288 176.976C449.127 176.826 448.933 176.75 448.705 176.75C448.364 176.75 448.098 176.919 447.906 177.255C447.714 177.59 447.618 178.064 447.618 178.677C447.618 179.085 447.661 179.433 447.747 179.718C447.833 180.004 447.956 180.221 448.118 180.37C448.28 180.519 448.476 180.594 448.705 180.594Z" fill="#6C757D"/>
<path d="M22.061 3.07599V171.781" stroke="#6C757D" stroke-width="0.648864"/>
<path d="M18.8325 171.781H22.061" stroke="#6C757D" stroke-width="0.648864"/>
<path d="M15.1905 172.472C14.8434 172.472 14.5477 172.377 14.3034 172.188C14.0592 171.998 13.8725 171.722 13.7435 171.361C13.6145 170.999 13.55 170.561 13.55 170.048C13.55 169.538 13.6145 169.102 13.7435 168.741C13.8741 168.379 14.0615 168.102 14.3057 167.912C14.5515 167.72 14.8464 167.624 15.1905 167.624C15.5346 167.624 15.8288 167.72 16.0731 167.912C16.3188 168.102 16.5062 168.379 16.6353 168.741C16.7659 169.102 16.8311 169.538 16.8311 170.048C16.8311 170.561 16.7666 170.999 16.6376 171.361C16.5085 171.722 16.3219 171.998 16.0777 172.188C15.8334 172.377 15.5377 172.472 15.1905 172.472ZM15.1905 171.965C15.5346 171.965 15.8019 171.799 15.9924 171.467C16.1829 171.135 16.2781 170.662 16.2781 170.048C16.2781 169.639 16.2343 169.291 16.1468 169.004C16.0608 168.717 15.9363 168.498 15.7735 168.347C15.6122 168.197 15.4179 168.122 15.1905 168.122C14.8495 168.122 14.583 168.29 14.391 168.626C14.199 168.961 14.103 169.435 14.103 170.048C14.103 170.456 14.146 170.804 14.232 171.089C14.318 171.375 14.4417 171.592 14.603 171.741C14.7658 171.89 14.9617 171.965 15.1905 171.965Z" fill="#6C757D"/>
<path d="M18.8325 129.605H22.061" stroke="#6C757D" stroke-width="0.648864"/>
<path d="M3.7529 125.512V130.231H3.18146V126.111H3.15381L2.00171 126.876V126.296L3.18146 125.512H3.7529ZM6.58477 130.296C6.31441 130.296 6.07093 130.242 5.85434 130.134C5.63774 130.027 5.46416 129.879 5.33359 129.692C5.20301 129.505 5.13158 129.291 5.11929 129.051H5.6723C5.69381 129.265 5.79059 129.442 5.96263 129.581C6.13622 129.72 6.34359 129.789 6.58477 129.789C6.77832 129.789 6.95037 129.743 7.10091 129.653C7.25299 129.562 7.37204 129.438 7.45806 129.28C7.54562 129.12 7.5894 128.939 7.5894 128.738C7.5894 128.532 7.54408 128.349 7.45345 128.187C7.36436 128.025 7.24147 127.896 7.08478 127.803C6.92809 127.709 6.74913 127.661 6.5479 127.66C6.4035 127.658 6.25527 127.68 6.10319 127.727C5.95111 127.771 5.82592 127.829 5.7276 127.899L5.19303 127.835L5.47875 125.512H7.93042V126.019H5.95802L5.79212 127.411H5.81977C5.91655 127.334 6.0379 127.27 6.18384 127.22C6.32977 127.169 6.48185 127.144 6.64007 127.144C6.92886 127.144 7.18616 127.213 7.41198 127.351C7.63932 127.488 7.81752 127.675 7.94655 127.913C8.07712 128.151 8.14241 128.423 8.14241 128.729C8.14241 129.03 8.07482 129.299 7.93964 129.535C7.806 129.77 7.62166 129.956 7.38663 130.093C7.1516 130.228 6.88431 130.296 6.58477 130.296ZM10.597 130.296C10.2498 130.296 9.95409 130.201 9.70984 130.012C9.4656 129.822 9.27896 129.546 9.14992 129.185C9.02089 128.823 8.95637 128.385 8.95637 127.872C8.95637 127.362 9.02089 126.926 9.14992 126.565C9.28049 126.203 9.4679 125.926 9.71215 125.736C9.95793 125.544 10.2529 125.448 10.597 125.448C10.9411 125.448 11.2352 125.544 11.4795 125.736C11.7253 125.926 11.9127 126.203 12.0417 126.565C12.1723 126.926 12.2376 127.362 12.2376 127.872C12.2376 128.385 12.173 128.823 12.044 129.185C11.915 129.546 11.7283 129.822 11.4841 130.012C11.2398 130.201 10.9441 130.296 10.597 130.296ZM10.597 129.789C10.9411 129.789 11.2083 129.623 11.3988 129.291C11.5893 128.959 11.6845 128.486 11.6845 127.872C11.6845 127.463 11.6408 127.115 11.5532 126.828C11.4672 126.541 11.3428 126.322 11.1799 126.171C11.0186 126.021 10.8243 125.945 10.597 125.945C10.2559 125.945 9.98942 126.114 9.7974 126.45C9.60539 126.785 9.50938 127.259 9.50938 127.872C9.50938 128.28 9.55239 128.627 9.63841 128.913C9.72444 129.199 9.8481 129.416 10.0094 129.565C10.1722 129.714 10.3681 129.789 10.597 129.789ZM14.6524 130.296C14.3052 130.296 14.0095 130.201 13.7652 130.012C13.521 129.822 13.3344 129.546 13.2053 129.185C13.0763 128.823 13.0118 128.385 13.0118 127.872C13.0118 127.362 13.0763 126.926 13.2053 126.565C13.3359 126.203 13.5233 125.926 13.7675 125.736C14.0133 125.544 14.3083 125.448 14.6524 125.448C14.9965 125.448 15.2906 125.544 15.5349 125.736C15.7807 125.926 15.9681 126.203 16.0971 126.565C16.2277 126.926 16.293 127.362 16.293 127.872C16.293 128.385 16.2284 128.823 16.0994 129.185C15.9704 129.546 15.7837 129.822 15.5395 130.012C15.2952 130.201 14.9995 130.296 14.6524 130.296ZM14.6524 129.789C14.9965 129.789 15.2637 129.623 15.4542 129.291C15.6447 128.959 15.7399 128.486 15.7399 127.872C15.7399 127.463 15.6962 127.115 15.6086 126.828C15.5226 126.541 15.3982 126.322 15.2353 126.171C15.074 126.021 14.8797 125.945 14.6524 125.945C14.3113 125.945 14.0448 126.114 13.8528 126.45C13.6608 126.785 13.5648 127.259 13.5648 127.872C13.5648 128.28 13.6078 128.627 13.6938 128.913C13.7798 129.199 13.9035 129.416 14.0648 129.565C14.2276 129.714 14.4235 129.789 14.6524 129.789Z" fill="#6C757D"/>
<path d="M18.8325 87.4285H22.061" stroke="#6C757D" stroke-width="0.648864"/>
<path d="M3.54159 88.1196C3.23744 88.1196 2.96631 88.0673 2.72821 87.9629C2.49164 87.8584 2.30347 87.7133 2.16368 87.5274C2.02543 87.34 1.95016 87.1226 1.93787 86.8753H2.51853C2.53082 87.0274 2.58304 87.1587 2.67521 87.2693C2.76738 87.3784 2.88797 87.4629 3.03697 87.5228C3.18598 87.5827 3.35111 87.6126 3.53238 87.6126C3.73515 87.6126 3.91487 87.5773 4.07156 87.5067C4.22825 87.436 4.35114 87.3377 4.44023 87.2117C4.52933 87.0858 4.57388 86.9398 4.57388 86.7739C4.57388 86.6003 4.53086 86.4475 4.44484 86.3154C4.35882 86.1817 4.23285 86.0773 4.06695 86.002C3.90105 85.9267 3.69828 85.8891 3.45864 85.8891H3.08075V85.3822H3.45864C3.64605 85.3822 3.81042 85.3484 3.95174 85.2808C4.0946 85.2132 4.20597 85.118 4.28585 84.9951C4.36727 84.8722 4.40797 84.7278 4.40797 84.5619C4.40797 84.4021 4.37264 84.2631 4.30198 84.1448C4.23132 84.0265 4.13147 83.9344 4.00243 83.8683C3.87493 83.8023 3.72439 83.7692 3.55081 83.7692C3.38798 83.7692 3.23437 83.7992 3.08997 83.8591C2.94711 83.9175 2.83036 84.0027 2.73973 84.1149C2.6491 84.2255 2.59994 84.3591 2.59226 84.5158H2.03925C2.04847 84.2685 2.12297 84.0519 2.26276 83.866C2.40255 83.6786 2.58535 83.5327 2.81116 83.4282C3.03851 83.3238 3.28813 83.2715 3.56003 83.2715C3.85189 83.2715 4.10228 83.3307 4.3112 83.449C4.52011 83.5657 4.68064 83.7201 4.79278 83.9121C4.90491 84.1041 4.96098 84.3115 4.96098 84.5342C4.96098 84.8 4.89109 85.0266 4.7513 85.214C4.61305 85.4014 4.42487 85.5312 4.18677 85.6034V85.6402C4.48478 85.6894 4.7175 85.8161 4.88494 86.0204C5.05238 86.2232 5.1361 86.4744 5.1361 86.7739C5.1361 87.0305 5.06621 87.2609 4.92642 87.4652C4.78817 87.6679 4.59922 87.8277 4.35959 87.9445C4.11995 88.0612 3.84728 88.1196 3.54159 88.1196ZM7.61773 88.1196C7.27056 88.1196 6.97486 88.0251 6.73061 87.8362C6.48636 87.6457 6.29972 87.3699 6.17069 87.0089C6.04165 86.6464 5.97714 86.2086 5.97714 85.6955C5.97714 85.1856 6.04165 84.7501 6.17069 84.3891C6.30126 84.0265 6.48867 83.75 6.73291 83.5596C6.9787 83.3675 7.27363 83.2715 7.61773 83.2715C7.96182 83.2715 8.25599 83.3675 8.50024 83.5596C8.74602 83.75 8.93343 84.0265 9.06246 84.3891C9.19304 84.7501 9.25832 85.1856 9.25832 85.6955C9.25832 86.2086 9.1938 86.6464 9.06477 87.0089C8.93573 87.3699 8.74909 87.6457 8.50485 87.8362C8.2606 88.0251 7.9649 88.1196 7.61773 88.1196ZM7.61773 87.6126C7.96182 87.6126 8.22911 87.4467 8.41959 87.1149C8.61007 86.7831 8.70531 86.31 8.70531 85.6955C8.70531 85.2869 8.66153 84.939 8.57397 84.6517C8.48795 84.3645 8.36352 84.1456 8.20069 83.995C8.0394 83.8445 7.84508 83.7692 7.61773 83.7692C7.27671 83.7692 7.01019 83.9374 6.81817 84.2739C6.62615 84.6087 6.53014 85.0826 6.53014 85.6955C6.53014 86.1042 6.57316 86.4513 6.65918 86.737C6.7452 87.0228 6.86886 87.2401 7.03016 87.3891C7.19299 87.5381 7.38884 87.6126 7.61773 87.6126ZM11.6731 88.1196C11.326 88.1196 11.0303 88.0251 10.786 87.8362C10.5418 87.6457 10.3551 87.3699 10.2261 87.0089C10.0971 86.6464 10.0325 86.2086 10.0325 85.6955C10.0325 85.1856 10.0971 84.7501 10.2261 84.3891C10.3567 84.0265 10.5441 83.75 10.7883 83.5596C11.0341 83.3675 11.329 83.2715 11.6731 83.2715C12.0172 83.2715 12.3114 83.3675 12.5556 83.5596C12.8014 83.75 12.9888 84.0265 13.1179 84.3891C13.2484 84.7501 13.3137 85.1856 13.3137 85.6955C13.3137 86.2086 13.2492 86.6464 13.1202 87.0089C12.9911 87.3699 12.8045 87.6457 12.5602 87.8362C12.316 88.0251 12.0203 88.1196 11.6731 88.1196ZM11.6731 87.6126C12.0172 87.6126 12.2845 87.4467 12.475 87.1149C12.6655 86.7831 12.7607 86.31 12.7607 85.6955C12.7607 85.2869 12.7169 84.939 12.6294 84.6517C12.5433 84.3645 12.4189 84.1456 12.2561 83.995C12.0948 83.8445 11.9005 83.7692 11.6731 83.7692C11.3321 83.7692 11.0656 83.9374 10.8736 84.2739C10.6816 84.6087 10.5855 85.0826 10.5855 85.6955C10.5855 86.1042 10.6286 86.4513 10.7146 86.737C10.8006 87.0228 10.9243 87.2401 11.0856 87.3891C11.2484 87.5381 11.4442 87.6126 11.6731 87.6126ZM15.7285 88.1196C15.3814 88.1196 15.0857 88.0251 14.8414 87.8362C14.5972 87.6457 14.4105 87.3699 14.2815 87.0089C14.1524 86.6464 14.0879 86.2086 14.0879 85.6955C14.0879 85.1856 14.1524 84.7501 14.2815 84.3891C14.4121 84.0265 14.5995 83.75 14.8437 83.5596C15.0895 83.3675 15.3844 83.2715 15.7285 83.2715C16.0726 83.2715 16.3668 83.3675 16.611 83.5596C16.8568 83.75 17.0442 84.0265 17.1733 84.3891C17.3038 84.7501 17.3691 85.1856 17.3691 85.6955C17.3691 86.2086 17.3046 86.6464 17.1756 87.0089C17.0465 87.3699 16.8599 87.6457 16.6156 87.8362C16.3714 88.0251 16.0757 88.1196 15.7285 88.1196ZM15.7285 87.6126C16.0726 87.6126 16.3399 87.4467 16.5304 87.1149C16.7209 86.7831 16.8161 86.31 16.8161 85.6955C16.8161 85.2869 16.7723 84.939 16.6848 84.6517C16.5987 84.3645 16.4743 84.1456 16.3115 83.995C16.1502 83.8445 15.9559 83.7692 15.7285 83.7692C15.3875 83.7692 15.121 83.9374 14.929 84.2739C14.7369 84.6087 14.6409 85.0826 14.6409 85.6955C14.6409 86.1042 14.684 86.4513 14.77 86.737C14.856 87.0228 14.9797 87.2401 15.141 87.3891C15.3038 87.5381 15.4996 87.6126 15.7285 87.6126Z" fill="#6C757D"/>
<path d="M18.8325 45.2524H22.061" stroke="#6C757D" stroke-width="0.648864"/>
<path d="M1.37444 44.9111V44.4411L3.44822 41.1599H3.78924V41.888H3.55882L1.99196 44.3673V44.4042H4.78466V44.9111H1.37444ZM3.59569 45.8789V44.7683V44.5494V41.1599H4.13948V45.8789H3.59569ZM7.12285 45.9434C6.85249 45.9434 6.60901 45.8897 6.39241 45.7821C6.17582 45.6746 6.00223 45.5271 5.87166 45.3397C5.74109 45.1523 5.66966 44.9388 5.65737 44.6992H6.21038C6.23189 44.9127 6.32866 45.0893 6.50071 45.2291C6.67429 45.3674 6.88167 45.4365 7.12285 45.4365C7.3164 45.4365 7.48845 45.3912 7.63899 45.3006C7.79106 45.2099 7.91012 45.0855 7.99614 44.9273C8.0837 44.7675 8.12748 44.587 8.12748 44.3858C8.12748 44.1799 8.08216 43.9964 7.99153 43.8351C7.90243 43.6722 7.77954 43.544 7.62286 43.4503C7.46617 43.3566 7.28721 43.309 7.08598 43.3074C6.94158 43.3059 6.79334 43.3282 6.64127 43.3742C6.48919 43.4188 6.36399 43.4764 6.26568 43.5471L5.73111 43.4825L6.01683 41.1599H8.4685V41.6668H6.4961L6.3302 43.0586H6.35785C6.45463 42.9818 6.57598 42.918 6.72191 42.8673C6.86785 42.8166 7.01992 42.7913 7.17815 42.7913C7.46694 42.7913 7.72424 42.8604 7.95005 42.9987C8.1774 43.1354 8.35559 43.3228 8.48463 43.5609C8.6152 43.799 8.68049 44.0709 8.68049 44.3766C8.68049 44.6776 8.6129 44.9465 8.47772 45.183C8.34407 45.4181 8.15974 45.6039 7.92471 45.7407C7.68968 45.8758 7.42239 45.9434 7.12285 45.9434ZM11.135 45.9434C10.7879 45.9434 10.4922 45.849 10.2479 45.66C10.0037 45.4695 9.81704 45.1938 9.688 44.8328C9.55896 44.4703 9.49445 44.0325 9.49445 43.5194C9.49445 43.0094 9.55896 42.5739 9.688 42.2129C9.81857 41.8504 10.006 41.5739 10.2502 41.3834C10.496 41.1914 10.7909 41.0954 11.135 41.0954C11.4791 41.0954 11.7733 41.1914 12.0175 41.3834C12.2633 41.5739 12.4507 41.8504 12.5798 42.2129C12.7103 42.5739 12.7756 43.0094 12.7756 43.5194C12.7756 44.0325 12.7111 44.4703 12.5821 44.8328C12.453 45.1938 12.2664 45.4695 12.0222 45.66C11.7779 45.849 11.4822 45.9434 11.135 45.9434ZM11.135 45.4365C11.4791 45.4365 11.7464 45.2706 11.9369 44.9388C12.1274 44.607 12.2226 44.1339 12.2226 43.5194C12.2226 43.1108 12.1788 42.7629 12.0913 42.4756C12.0053 42.1883 11.8808 41.9694 11.718 41.8189C11.5567 41.6684 11.3624 41.5931 11.135 41.5931C10.794 41.5931 10.5275 41.7613 10.3355 42.0977C10.1435 42.4326 10.0475 42.9065 10.0475 43.5194C10.0475 43.928 10.0905 44.2752 10.1765 44.5609C10.2625 44.8466 10.3862 45.064 10.5475 45.213C10.7103 45.362 10.9062 45.4365 11.135 45.4365ZM15.1904 45.9434C14.8433 45.9434 14.5476 45.849 14.3033 45.66C14.0591 45.4695 13.8724 45.1938 13.7434 44.8328C13.6144 44.4703 13.5498 44.0325 13.5498 43.5194C13.5498 43.0094 13.6144 42.5739 13.7434 42.2129C13.874 41.8504 14.0614 41.5739 14.3056 41.3834C14.5514 41.1914 14.8463 41.0954 15.1904 41.0954C15.5345 41.0954 15.8287 41.1914 16.0729 41.3834C16.3187 41.5739 16.5061 41.8504 16.6352 42.2129C16.7657 42.5739 16.831 43.0094 16.831 43.5194C16.831 44.0325 16.7665 44.4703 16.6375 44.8328C16.5084 45.1938 16.3218 45.4695 16.0776 45.66C15.8333 45.849 15.5376 45.9434 15.1904 45.9434ZM15.1904 45.4365C15.5345 45.4365 15.8018 45.2706 15.9923 44.9388C16.1828 44.607 16.278 44.1339 16.278 43.5194C16.278 43.1108 16.2342 42.7629 16.1467 42.4756C16.0607 42.1883 15.9362 41.9694 15.7734 41.8189C15.6121 41.6684 15.4178 41.5931 15.1904 41.5931C14.8494 41.5931 14.5829 41.7613 14.3909 42.0977C14.1989 42.4326 14.1029 42.9065 14.1029 43.5194C14.1029 43.928 14.1459 44.2752 14.2319 44.5609C14.3179 44.8466 14.4416 45.064 14.6029 45.213C14.7657 45.362 14.9616 45.4365 15.1904 45.4365Z" fill="#6C757D"/>
<path d="M18.8325 3.07629H22.061" stroke="#6C757D" stroke-width="0.648864"/>
<path d="M3.05823 5.71387C2.86468 5.7108 2.67113 5.67393 2.47757 5.60327C2.28402 5.53261 2.10736 5.41356 1.94761 5.24612C1.78785 5.07714 1.65958 4.84903 1.5628 4.56177C1.46603 4.27298 1.41764 3.91045 1.41764 3.47419C1.41764 3.05636 1.45681 2.68615 1.53515 2.36356C1.6135 2.03943 1.72717 1.76677 1.87618 1.54557C2.02518 1.32283 2.20491 1.15385 2.41536 1.03864C2.62735 0.923432 2.86621 0.865827 3.13197 0.865827C3.39618 0.865827 3.63121 0.918824 3.83705 1.02482C4.04443 1.12927 4.21341 1.27521 4.34398 1.46262C4.47455 1.65002 4.55904 1.86585 4.59744 2.1101H4.03521C3.98298 1.89811 3.8816 1.72222 3.73106 1.58243C3.58052 1.44265 3.38082 1.37275 3.13197 1.37275C2.76637 1.37275 2.47834 1.53174 2.26789 1.84972C2.05898 2.1677 1.95375 2.61395 1.95221 3.18846H1.98908C2.0751 3.05789 2.17726 2.94652 2.29554 2.85435C2.41536 2.76065 2.54747 2.68845 2.69186 2.63776C2.83626 2.58707 2.98911 2.56172 3.1504 2.56172C3.42076 2.56172 3.66808 2.62931 3.89235 2.76449C4.11663 2.89813 4.29636 3.08324 4.43154 3.3198C4.56672 3.55483 4.63431 3.82442 4.63431 4.12858C4.63431 4.42044 4.56902 4.68773 4.43845 4.93044C4.30788 5.17161 4.12431 5.36363 3.88774 5.50649C3.65272 5.64782 3.37621 5.71694 3.05823 5.71387ZM3.05823 5.20695C3.25178 5.20695 3.42537 5.15856 3.57898 5.06178C3.73413 4.965 3.85625 4.8352 3.94535 4.67237C4.03598 4.50954 4.0813 4.32828 4.0813 4.12858C4.0813 3.93349 4.03752 3.75607 3.94996 3.59631C3.86393 3.43501 3.74488 3.30675 3.59281 3.21151C3.44227 3.11627 3.27022 3.06865 3.07666 3.06865C2.93073 3.06865 2.79478 3.09783 2.66882 3.15621C2.54286 3.21304 2.43226 3.29139 2.33702 3.39123C2.24331 3.49108 2.16958 3.60552 2.11581 3.73456C2.06205 3.86206 2.03516 3.99647 2.03516 4.1378C2.03516 4.3252 2.07894 4.50032 2.1665 4.66315C2.2556 4.82598 2.37696 4.95732 2.53057 5.05717C2.68572 5.15702 2.86161 5.20695 3.05823 5.20695ZM7.07964 5.71387C6.73248 5.71387 6.43677 5.6194 6.19252 5.43045C5.94828 5.23997 5.76164 4.96424 5.6326 4.60324C5.50357 4.24072 5.43905 3.80292 5.43905 3.28985C5.43905 2.77985 5.50357 2.34436 5.6326 1.98337C5.76317 1.62084 5.95058 1.34433 6.19483 1.15385C6.44061 0.961836 6.73555 0.865827 7.07964 0.865827C7.42374 0.865827 7.71791 0.961836 7.96215 1.15385C8.20793 1.34433 8.39534 1.62084 8.52438 1.98337C8.65495 2.34436 8.72023 2.77985 8.72023 3.28985C8.72023 3.80292 8.65572 4.24072 8.52668 4.60324C8.39765 4.96424 8.21101 5.23997 7.96676 5.43045C7.72251 5.6194 7.42681 5.71387 7.07964 5.71387ZM7.07964 5.20695C7.42374 5.20695 7.69102 5.04104 7.8815 4.70924C8.07199 4.37743 8.16723 3.9043 8.16723 3.28985C8.16723 2.88124 8.12345 2.5333 8.03589 2.24604C7.94986 1.95879 7.82544 1.73989 7.6626 1.58935C7.50131 1.43881 7.30699 1.36354 7.07964 1.36354C6.73862 1.36354 6.4721 1.53174 6.28008 1.86816C6.08807 2.20303 5.99206 2.67693 5.99206 3.28985C5.99206 3.69846 6.03507 4.04563 6.12109 4.33135C6.20712 4.61707 6.33078 4.83443 6.49207 4.98344C6.6549 5.13244 6.85076 5.20695 7.07964 5.20695ZM11.135 5.71387C10.7879 5.71387 10.4922 5.6194 10.2479 5.43045C10.0037 5.23997 9.81703 4.96424 9.688 4.60324C9.55896 4.24072 9.49445 3.80292 9.49445 3.28985C9.49445 2.77985 9.55896 2.34436 9.688 1.98337C9.81857 1.62084 10.006 1.34433 10.2502 1.15385C10.496 0.961836 10.7909 0.865827 11.135 0.865827C11.4791 0.865827 11.7733 0.961836 12.0175 1.15385C12.2633 1.34433 12.4507 1.62084 12.5798 1.98337C12.7103 2.34436 12.7756 2.77985 12.7756 3.28985C12.7756 3.80292 12.7111 4.24072 12.5821 4.60324C12.453 4.96424 12.2664 5.23997 12.0222 5.43045C11.7779 5.6194 11.4822 5.71387 11.135 5.71387ZM11.135 5.20695C11.4791 5.20695 11.7464 5.04104 11.9369 4.70924C12.1274 4.37743 12.2226 3.9043 12.2226 3.28985C12.2226 2.88124 12.1788 2.5333 12.0913 2.24604C12.0053 1.95879 11.8808 1.73989 11.718 1.58935C11.5567 1.43881 11.3624 1.36354 11.135 1.36354C10.794 1.36354 10.5275 1.53174 10.3355 1.86816C10.1435 2.20303 10.0475 2.67693 10.0475 3.28985C10.0475 3.69846 10.0905 4.04563 10.1765 4.33135C10.2625 4.61707 10.3862 4.83443 10.5475 4.98344C10.7103 5.13244 10.9062 5.20695 11.135 5.20695ZM15.1904 5.71387C14.8433 5.71387 14.5476 5.6194 14.3033 5.43045C14.0591 5.23997 13.8724 4.96424 13.7434 4.60324C13.6144 4.24072 13.5498 3.80292 13.5498 3.28985C13.5498 2.77985 13.6144 2.34436 13.7434 1.98337C13.874 1.62084 14.0614 1.34433 14.3056 1.15385C14.5514 0.961836 14.8463 0.865827 15.1904 0.865827C15.5345 0.865827 15.8287 0.961836 16.0729 1.15385C16.3187 1.34433 16.5061 1.62084 16.6352 1.98337C16.7657 2.34436 16.831 2.77985 16.831 3.28985C16.831 3.80292 16.7665 4.24072 16.6375 4.60324C16.5084 4.96424 16.3218 5.23997 16.0776 5.43045C15.8333 5.6194 15.5376 5.71387 15.1904 5.71387ZM15.1904 5.20695C15.5345 5.20695 15.8018 5.04104 15.9923 4.70924C16.1828 4.37743 16.278 3.9043 16.278 3.28985C16.278 2.88124 16.2342 2.5333 16.1467 2.24604C16.0607 1.95879 15.9362 1.73989 15.7734 1.58935C15.6121 1.43881 15.4178 1.36354 15.1904 1.36354C14.8494 1.36354 14.5829 1.53174 14.3909 1.86816C14.1989 2.20303 14.1029 2.67693 14.1029 3.28985C14.1029 3.69846 14.1459 4.04563 14.2319 4.33135C14.3179 4.61707 14.4416 4.83443 14.6029 4.98344C14.7657 5.13244 14.9616 5.20695 15.1904 5.20695Z" fill="#6C757D"/>
<path d="M22.061 61.6129C50.1066 56.6383 78.1516 51.6637 106.197 51.6637C134.242 51.6637 162.288 62.94 190.333 62.94C218.378 62.94 246.423 51.2213 274.469 47.0212C302.515 42.8196 330.56 37.7348 358.605 37.7348C386.65 37.7348 414.696 42.3772 442.741 42.3772C470.786 42.3772 498.831 37.7348 526.877 33.0923" stroke="#FF6B00" stroke-width="1.94659"/>
<path d="M25.3054 63.5893C26.7388 63.5893 27.9009 62.4273 27.9009 60.9938C27.9009 59.5604 26.7388 58.3984 25.3054 58.3984C23.872 58.3984 22.71 59.5604 22.71 60.9938C22.71 62.4273 23.872 63.5893 25.3054 63.5893Z" fill="#FF6B00" stroke="#FF6B00" stroke-width="1.94659"/>
<path d="M106.413 55.154C107.847 55.154 109.009 53.992 109.009 52.5586C109.009 51.1252 107.847 49.9631 106.413 49.9631C104.98 49.9631 103.818 51.1252 103.818 52.5586C103.818 53.992 104.98 55.154 106.413 55.154Z" fill="#FF6B00" stroke="#FF6B00" stroke-width="1.94659"/>
<path d="M190.766 65.5359C192.199 65.5359 193.361 64.3739 193.361 62.9404C193.361 61.507 192.199 60.345 190.766 60.345C189.332 60.345 188.17 61.507 188.17 62.9404C188.17 64.3739 189.332 65.5359 190.766 65.5359Z" fill="#FF6B00" stroke="#FF6B00" stroke-width="1.94659"/>
<path d="M442.525 44.7722C443.958 44.7722 445.12 43.6102 445.12 42.1768C445.12 40.7433 443.958 39.5813 442.525 39.5813C441.091 39.5813 439.929 40.7433 439.929 42.1768C439.929 43.6102 441.091 44.7722 442.525 44.7722Z" fill="#FF6B00" stroke="#FF6B00" stroke-width="1.94659"/>
<path d="M358.822 40.2302C360.255 40.2302 361.417 39.0681 361.417 37.6347C361.417 36.2013 360.255 35.0392 358.822 35.0392C357.388 35.0392 356.226 36.2013 356.226 37.6347C356.226 39.0681 357.388 40.2302 358.822 40.2302Z" fill="#FF6B00" stroke="#FF6B00" stroke-width="1.94659"/>
<path d="M522.984 35.6881C524.418 35.6881 525.58 34.5261 525.58 33.0926C525.58 31.6592 524.418 30.4972 522.984 30.4972C521.551 30.4972 520.389 31.6592 520.389 33.0926C520.389 34.5261 521.551 35.6881 522.984 35.6881Z" fill="#FF6B00" stroke="#FF6B00" stroke-width="1.94659"/>
<path d="M274.469 49.9624C275.902 49.9624 277.064 48.8004 277.064 47.3669C277.064 45.9335 275.902 44.7715 274.469 44.7715C273.036 44.7715 271.874 45.9335 271.874 47.3669C271.874 48.8004 273.036 49.9624 274.469 49.9624Z" fill="#FF6B00" stroke="#FF6B00" stroke-width="1.94659"/>
</g>
<defs>
<clipPath id="clip0_1902_3088">
<rect width="526.877" height="194.659" fill="white"/>
</clipPath>
</defs>
</svg>
