<svg width="290" height="174" viewBox="0 0 290 174" fill="none" xmlns="http://www.w3.org/2000/svg">
<path d="M10.2656 162.941C10.2656 139.546 16.3211 116.552 27.8392 96.21" stroke="#EA3943" stroke-width="13.7018" stroke-linecap="round"/>
<path d="M38.2344 80.5105C52.4622 61.9747 71.2439 47.4635 92.7406 38.3975" stroke="#EA8C00" stroke-width="13.7018" stroke-linecap="round"/>
<path d="M110.525 32.323C133.071 26.3468 156.776 26.3468 179.321 32.323" stroke="#F3D42F" stroke-width="13.7018" stroke-linecap="round"/>
<path d="M197.105 38.3975C218.602 47.4635 237.384 61.9747 251.612 80.5105" stroke="#93D900" stroke-width="13.7018" stroke-linecap="round"/>
<path d="M262.01 96.21C273.528 116.552 279.583 139.546 279.583 162.941" stroke="#16C784" stroke-width="13.7018" stroke-linecap="round"/>
<path d="M145 13.0059C154.117 13.006 161.507 20.397 161.507 29.5137C161.507 38.6303 154.117 46.0204 145 46.0205C135.883 46.0205 128.492 38.6304 128.492 29.5137C128.492 20.3969 135.883 13.0059 145 13.0059Z" fill="#022538" stroke="white" stroke-width="5.48073"/>
<path d="M131.822 110.146C135.166 110.146 137.791 111.144 139.698 113.138C141.575 115.104 142.514 117.612 142.514 120.662C142.514 123.83 141.487 126.397 139.434 128.362C137.351 130.357 134.623 131.354 131.25 131.354C128.17 131.354 125.603 130.489 123.55 128.758C121.555 127.057 120.44 124.754 120.206 121.85H124.782C124.987 123.522 125.676 124.857 126.85 125.854C128.052 126.852 129.519 127.35 131.25 127.35C133.186 127.35 134.755 126.734 135.958 125.502C137.19 124.241 137.806 122.628 137.806 120.662C137.806 118.668 137.19 117.054 135.958 115.822C134.755 114.561 133.186 113.93 131.25 113.93C128.434 113.93 126.424 115.104 125.222 117.45H120.91L123.682 99.3224H140.71V103.414H127.378L125.97 112.39C127.642 110.894 129.592 110.146 131.822 110.146ZM158.395 110.146C161.71 110.146 164.32 111.144 166.227 113.138C168.134 115.192 169.087 117.7 169.087 120.662C169.087 123.83 168.06 126.397 166.007 128.362C163.924 130.357 161.226 131.354 157.911 131.354C155.124 131.354 152.748 130.621 150.783 129.154C147.586 126.661 145.987 122.026 145.987 115.25C145.987 110 147.014 105.922 149.067 103.018C151.15 100.085 154.127 98.6184 157.999 98.6184C160.903 98.6184 163.294 99.3811 165.171 100.906C167.048 102.402 168.207 104.5 168.647 107.198H164.115C163.822 105.673 163.147 104.514 162.091 103.722C161.035 102.901 159.686 102.49 158.043 102.49C153.203 102.49 150.695 106.436 150.519 114.326C151.37 113.036 152.499 112.024 153.907 111.29C155.315 110.528 156.811 110.146 158.395 110.146ZM153.247 125.502C154.42 126.734 155.975 127.35 157.911 127.35C159.818 127.35 161.372 126.734 162.575 125.502C163.778 124.241 164.379 122.642 164.379 120.706C164.379 118.77 163.778 117.157 162.575 115.866C161.372 114.634 159.818 114.018 157.911 114.018C155.975 114.018 154.42 114.634 153.247 115.866C152.015 117.098 151.399 118.712 151.399 120.706C151.399 122.672 152.015 124.27 153.247 125.502Z" fill="#7E7E7E"/>
<path d="M119.171 144.746V139.562H121.643V156.65H118.691L113.435 148.37C111.899 145.97 110.787 144.138 110.099 142.874C110.163 144.778 110.195 147.642 110.195 151.466V156.65H107.699V139.562H110.651L115.931 147.842C117.355 150.098 118.467 151.938 119.267 153.362C119.203 151.442 119.171 148.57 119.171 144.746ZM135.661 150.554V151.25H126.325C126.437 152.466 126.797 153.386 127.405 154.01C128.013 154.618 128.837 154.922 129.877 154.922C131.445 154.922 132.469 154.234 132.949 152.858H135.373C135.037 154.122 134.381 155.122 133.405 155.858C132.445 156.578 131.253 156.938 129.829 156.938C128.053 156.938 126.621 156.346 125.533 155.162C124.445 153.978 123.901 152.41 123.901 150.458C123.901 148.506 124.445 146.938 125.533 145.754C126.621 144.57 128.037 143.978 129.781 143.978C131.605 143.978 133.045 144.594 134.101 145.826C135.141 147.058 135.661 148.634 135.661 150.554ZM129.781 145.994C128.837 145.994 128.061 146.282 127.453 146.858C126.861 147.434 126.493 148.266 126.349 149.354H133.189C133.077 148.346 132.717 147.538 132.109 146.93C131.517 146.306 130.741 145.994 129.781 145.994ZM145.597 151.25V144.266H147.997V156.65H145.693V154.802C144.749 156.226 143.453 156.938 141.805 156.938C140.445 156.938 139.381 156.554 138.613 155.786C137.845 155.018 137.461 153.946 137.461 152.57V144.266H139.861V152.234C139.861 153.962 140.733 154.826 142.477 154.826C143.357 154.826 144.093 154.514 144.685 153.89C145.293 153.25 145.597 152.37 145.597 151.25ZM156.583 144.266V146.234H154.087V153.674C154.087 154.042 154.191 154.314 154.399 154.49C154.623 154.65 154.991 154.73 155.503 154.73H156.583V156.65C156.055 156.698 155.567 156.722 155.119 156.722C153.951 156.722 153.087 156.498 152.527 156.05C151.967 155.602 151.687 154.882 151.687 153.89V146.234H149.695V144.266H151.687V140.714H154.087V144.266H156.583ZM164.676 144.074C165.028 144.074 165.26 144.082 165.372 144.098V146.378H164.772C163.54 146.378 162.588 146.682 161.916 147.29C161.244 147.898 160.908 148.778 160.908 149.93V156.65H158.508V144.266H160.812V146.474C161.596 144.874 162.884 144.074 164.676 144.074ZM176.969 154.802H177.641V156.65C177.289 156.698 176.897 156.722 176.465 156.722C175.697 156.722 175.121 156.586 174.737 156.314C174.369 156.026 174.145 155.578 174.065 154.97C173.233 156.282 171.889 156.938 170.033 156.938C168.673 156.938 167.593 156.618 166.793 155.978C166.009 155.322 165.617 154.418 165.617 153.266C165.617 151.026 167.169 149.746 170.273 149.426L172.097 149.234C172.737 149.154 173.201 148.994 173.489 148.754C173.793 148.498 173.945 148.138 173.945 147.674C173.945 147.05 173.745 146.602 173.345 146.33C172.961 146.042 172.313 145.898 171.401 145.898C170.409 145.898 169.697 146.066 169.265 146.402C168.833 146.722 168.585 147.298 168.521 148.13H166.145C166.321 145.362 168.073 143.978 171.401 143.978C174.665 143.978 176.297 145.194 176.297 147.626V154.178C176.297 154.594 176.521 154.802 176.969 154.802ZM170.393 155.066C171.417 155.066 172.265 154.778 172.937 154.202C173.609 153.626 173.945 152.81 173.945 151.754V150.458C173.641 150.714 173.129 150.882 172.409 150.962L170.681 151.154C169.753 151.266 169.089 151.49 168.689 151.826C168.289 152.146 168.089 152.602 168.089 153.194C168.089 153.786 168.281 154.25 168.665 154.586C169.065 154.906 169.641 155.066 170.393 155.066ZM181.533 156.65H179.133V139.562H181.533V156.65Z" fill="#6C757D"/>
</svg>
