<svg width="32" height="32" viewBox="0 0 32 32" fill="none" xmlns="http://www.w3.org/2000/svg">
<path d="M0 10C0 4.47715 4.47715 0 10 0H22C27.5228 0 32 4.47715 32 10V22C32 27.5228 27.5228 32 22 32H10C4.47715 32 0 27.5228 0 22V10Z" fill="url(#paint0_linear_699_11223)"/>
<path d="M18.0001 9.33333H12.0001C11.6465 9.33333 11.3073 9.4738 11.0573 9.72385C10.8072 9.9739 10.6667 10.313 10.6667 10.6667V21.3333C10.6667 21.6869 10.8072 22.0261 11.0573 22.2761C11.3073 22.5262 11.6465 22.6667 12.0001 22.6667H20.0001C20.3537 22.6667 20.6928 22.5262 20.9429 22.2761C21.1929 22.0261 21.3334 21.6869 21.3334 21.3333V12.6667L18.0001 9.33333Z" stroke="white" stroke-width="1.33333" stroke-linecap="round" stroke-linejoin="round"/>
<path d="M17.3333 9.33333V12C17.3333 12.3536 17.4737 12.6928 17.7238 12.9428C17.9738 13.1929 18.313 13.3333 18.6666 13.3333H21.3333" stroke="white" stroke-width="1.33333" stroke-linecap="round" stroke-linejoin="round"/>
<path d="M14.6666 14H13.3333" stroke="white" stroke-width="1.33333" stroke-linecap="round" stroke-linejoin="round"/>
<path d="M18.6666 16.6667H13.3333" stroke="white" stroke-width="1.33333" stroke-linecap="round" stroke-linejoin="round"/>
<path d="M18.6666 19.3333H13.3333" stroke="white" stroke-width="1.33333" stroke-linecap="round" stroke-linejoin="round"/>
<defs>
<linearGradient id="paint0_linear_699_11223" x1="16" y1="0" x2="16" y2="32" gradientUnits="userSpaceOnUse">
<stop stop-color="#FF6B00"/>
<stop offset="1" stop-color="#FF8C42"/>
</linearGradient>
</defs>
</svg>
