<svg xmlns="http://www.w3.org/2000/svg" width="292" height="48" viewBox="0 0 292 48" fill="none">
  <path d="M318 1.5C318 2.32843 317.328 3 316.5 3C315.672 3 315 2.32843 315 1.5C315 0.671573 315.672 0 316.5 0C317.328 0 318 0.671573 318 1.5Z" fill="url(#paint0_linear_564_8779)"/>
  <path d="M333 1.5C333 2.32843 332.328 3 331.5 3C330.672 3 330 2.32843 330 1.5C330 0.671573 330.672 0 331.5 0C332.328 0 333 0.671573 333 1.5Z" fill="url(#paint1_linear_564_8779)"/>
  <path d="M348 1.5C348 2.32843 347.328 3 346.5 3C345.672 3 345 2.32843 345 1.5C345 0.671573 345.672 0 346.5 0C347.328 0 348 0.671573 348 1.5Z" fill="url(#paint2_linear_564_8779)"/>
  <path d="M363 1.5C363 2.32843 362.328 3 361.5 3C360.672 3 360 2.32843 360 1.5C360 0.671573 360.672 0 361.5 0C362.328 0 363 0.671573 363 1.5Z" fill="url(#paint3_linear_564_8779)"/>
  <path d="M378 1.5C378 2.32843 377.328 3 376.5 3C375.672 3 375 2.32843 375 1.5C375 0.671573 375.672 0 376.5 0C377.328 0 378 0.671573 378 1.5Z" fill="url(#paint4_linear_564_8779)"/>
  <path d="M393 1.5C393 2.32843 392.328 3 391.5 3C390.672 3 390 2.32843 390 1.5C390 0.671573 390.672 0 391.5 0C392.328 0 393 0.671573 393 1.5Z" fill="url(#paint5_linear_564_8779)"/>
  <path d="M408 1.5C408 2.32843 407.328 3 406.5 3C405.672 3 405 2.32843 405 1.5C405 0.671573 405.672 0 406.5 0C407.328 0 408 0.671573 408 1.5Z" fill="url(#paint6_linear_564_8779)"/>
  <path d="M423 1.5C423 2.32843 422.328 3 421.5 3C420.672 3 420 2.32843 420 1.5C420 0.671573 420.672 0 421.5 0C422.328 0 423 0.671573 423 1.5Z" fill="url(#paint7_linear_564_8779)"/>
  <path d="M438 1.5C438 2.32843 437.328 3 436.5 3C435.672 3 435 2.32843 435 1.5C435 0.671573 435.672 0 436.5 0C437.328 0 438 0.671573 438 1.5Z" fill="url(#paint8_linear_564_8779)"/>
  <path d="M453 1.5C453 2.32843 452.328 3 451.5 3C450.672 3 450 2.32843 450 1.5C450 0.671573 450.672 0 451.5 0C452.328 0 453 0.671573 453 1.5Z" fill="url(#paint9_linear_564_8779)"/>
  <path d="M468 1.5C468 2.32843 467.328 3 466.5 3C465.672 3 465 2.32843 465 1.5C465 0.671573 465.672 0 466.5 0C467.328 0 468 0.671573 468 1.5Z" fill="url(#paint10_linear_564_8779)"/>
  <path d="M483 1.5C483 2.32843 482.328 3 481.5 3C480.672 3 480 2.32843 480 1.5C480 0.671573 480.672 0 481.5 0C482.328 0 483 0.671573 483 1.5Z" fill="url(#paint11_linear_564_8779)"/>
  <path d="M498 1.5C498 2.32843 497.328 3 496.5 3C495.672 3 495 2.32843 495 1.5C495 0.671573 495.672 0 496.5 0C497.328 0 498 0.671573 498 1.5Z" fill="url(#paint12_linear_564_8779)"/>
  <path d="M513 1.5C513 2.32843 512.328 3 511.5 3C510.672 3 510 2.32843 510 1.5C510 0.671573 510.672 0 511.5 0C512.328 0 513 0.671573 513 1.5Z" fill="url(#paint13_linear_564_8779)"/>
  <path d="M528 1.5C528 2.32843 527.328 3 526.5 3C525.672 3 525 2.32843 525 1.5C525 0.671573 525.672 0 526.5 0C527.328 0 528 0.671573 528 1.5Z" fill="url(#paint14_linear_564_8779)"/>
  <path d="M543 1.5C543 2.32843 542.328 3 541.5 3C540.672 3 540 2.32843 540 1.5C540 0.671573 540.672 0 541.5 0C542.328 0 543 0.671573 543 1.5Z" fill="url(#paint15_linear_564_8779)"/>
  <path d="M558 1.5C558 2.32843 557.328 3 556.5 3C555.672 3 555 2.32843 555 1.5C555 0.671573 555.672 0 556.5 0C557.328 0 558 0.671573 558 1.5Z" fill="url(#paint16_linear_564_8779)"/>
  <path d="M573 1.5C573 2.32843 572.328 3 571.5 3C570.672 3 570 2.32843 570 1.5C570 0.671573 570.672 0 571.5 0C572.328 0 573 0.671573 573 1.5Z" fill="url(#paint17_linear_564_8779)"/>
  <path d="M588 1.5C588 2.32843 587.328 3 586.5 3C585.672 3 585 2.32843 585 1.5C585 0.671573 585.672 0 586.5 0C587.328 0 588 0.671573 588 1.5Z" fill="url(#paint18_linear_564_8779)"/>
  <path d="M603 1.5C603 2.32843 602.328 3 601.5 3C600.672 3 600 2.32843 600 1.5C600 0.671573 600.672 0 601.5 0C602.328 0 603 0.671573 603 1.5Z" fill="url(#paint19_linear_564_8779)"/>
  <path d="M618 1.5C618 2.32843 617.328 3 616.5 3C615.672 3 615 2.32843 615 1.5C615 0.671573 615.672 0 616.5 0C617.328 0 618 0.671573 618 1.5Z" fill="url(#paint20_linear_564_8779)"/>
  <path d="M318 16.5C318 17.3284 317.328 18 316.5 18C315.672 18 315 17.3284 315 16.5C315 15.6716 315.672 15 316.5 15C317.328 15 318 15.6716 318 16.5Z" fill="url(#paint21_linear_564_8779)"/>
  <path d="M333 16.5C333 17.3284 332.328 18 331.5 18C330.672 18 330 17.3284 330 16.5C330 15.6716 330.672 15 331.5 15C332.328 15 333 15.6716 333 16.5Z" fill="url(#paint22_linear_564_8779)"/>
  <path d="M348 16.5C348 17.3284 347.328 18 346.5 18C345.672 18 345 17.3284 345 16.5C345 15.6716 345.672 15 346.5 15C347.328 15 348 15.6716 348 16.5Z" fill="url(#paint23_linear_564_8779)"/>
  <path d="M363 16.5C363 17.3284 362.328 18 361.5 18C360.672 18 360 17.3284 360 16.5C360 15.6716 360.672 15 361.5 15C362.328 15 363 15.6716 363 16.5Z" fill="url(#paint24_linear_564_8779)"/>
  <path d="M378 16.5C378 17.3284 377.328 18 376.5 18C375.672 18 375 17.3284 375 16.5C375 15.6716 375.672 15 376.5 15C377.328 15 378 15.6716 378 16.5Z" fill="url(#paint25_linear_564_8779)"/>
  <path d="M393 16.5C393 17.3284 392.328 18 391.5 18C390.672 18 390 17.3284 390 16.5C390 15.6716 390.672 15 391.5 15C392.328 15 393 15.6716 393 16.5Z" fill="url(#paint26_linear_564_8779)"/>
  <path d="M408 16.5C408 17.3284 407.328 18 406.5 18C405.672 18 405 17.3284 405 16.5C405 15.6716 405.672 15 406.5 15C407.328 15 408 15.6716 408 16.5Z" fill="url(#paint27_linear_564_8779)"/>
  <path d="M423 16.5C423 17.3284 422.328 18 421.5 18C420.672 18 420 17.3284 420 16.5C420 15.6716 420.672 15 421.5 15C422.328 15 423 15.6716 423 16.5Z" fill="url(#paint28_linear_564_8779)"/>
  <path d="M438 16.5C438 17.3284 437.328 18 436.5 18C435.672 18 435 17.3284 435 16.5C435 15.6716 435.672 15 436.5 15C437.328 15 438 15.6716 438 16.5Z" fill="url(#paint29_linear_564_8779)"/>
  <path d="M453 16.5C453 17.3284 452.328 18 451.5 18C450.672 18 450 17.3284 450 16.5C450 15.6716 450.672 15 451.5 15C452.328 15 453 15.6716 453 16.5Z" fill="url(#paint30_linear_564_8779)"/>
  <path d="M468 16.5C468 17.3284 467.328 18 466.5 18C465.672 18 465 17.3284 465 16.5C465 15.6716 465.672 15 466.5 15C467.328 15 468 15.6716 468 16.5Z" fill="url(#paint31_linear_564_8779)"/>
  <path d="M483 16.5C483 17.3284 482.328 18 481.5 18C480.672 18 480 17.3284 480 16.5C480 15.6716 480.672 15 481.5 15C482.328 15 483 15.6716 483 16.5Z" fill="url(#paint32_linear_564_8779)"/>
  <path d="M498 16.5C498 17.3284 497.328 18 496.5 18C495.672 18 495 17.3284 495 16.5C495 15.6716 495.672 15 496.5 15C497.328 15 498 15.6716 498 16.5Z" fill="url(#paint33_linear_564_8779)"/>
  <path d="M513 16.5C513 17.3284 512.328 18 511.5 18C510.672 18 510 17.3284 510 16.5C510 15.6716 510.672 15 511.5 15C512.328 15 513 15.6716 513 16.5Z" fill="url(#paint34_linear_564_8779)"/>
  <path d="M528 16.5C528 17.3284 527.328 18 526.5 18C525.672 18 525 17.3284 525 16.5C525 15.6716 525.672 15 526.5 15C527.328 15 528 15.6716 528 16.5Z" fill="url(#paint35_linear_564_8779)"/>
  <path d="M543 16.5C543 17.3284 542.328 18 541.5 18C540.672 18 540 17.3284 540 16.5C540 15.6716 540.672 15 541.5 15C542.328 15 543 15.6716 543 16.5Z" fill="url(#paint36_linear_564_8779)"/>
  <path d="M558 16.5C558 17.3284 557.328 18 556.5 18C555.672 18 555 17.3284 555 16.5C555 15.6716 555.672 15 556.5 15C557.328 15 558 15.6716 558 16.5Z" fill="url(#paint37_linear_564_8779)"/>
  <path d="M573 16.5C573 17.3284 572.328 18 571.5 18C570.672 18 570 17.3284 570 16.5C570 15.6716 570.672 15 571.5 15C572.328 15 573 15.6716 573 16.5Z" fill="url(#paint38_linear_564_8779)"/>
  <path d="M588 16.5C588 17.3284 587.328 18 586.5 18C585.672 18 585 17.3284 585 16.5C585 15.6716 585.672 15 586.5 15C587.328 15 588 15.6716 588 16.5Z" fill="url(#paint39_linear_564_8779)"/>
  <path d="M603 16.5C603 17.3284 602.328 18 601.5 18C600.672 18 600 17.3284 600 16.5C600 15.6716 600.672 15 601.5 15C602.328 15 603 15.6716 603 16.5Z" fill="url(#paint40_linear_564_8779)"/>
  <path d="M618 16.5C618 17.3284 617.328 18 616.5 18C615.672 18 615 17.3284 615 16.5C615 15.6716 615.672 15 616.5 15C617.328 15 618 15.6716 618 16.5Z" fill="url(#paint41_linear_564_8779)"/>
  <path d="M318 31.5C318 32.3284 317.328 33 316.5 33C315.672 33 315 32.3284 315 31.5C315 30.6716 315.672 30 316.5 30C317.328 30 318 30.6716 318 31.5Z" fill="url(#paint42_linear_564_8779)"/>
  <path d="M333 31.5C333 32.3284 332.328 33 331.5 33C330.672 33 330 32.3284 330 31.5C330 30.6716 330.672 30 331.5 30C332.328 30 333 30.6716 333 31.5Z" fill="url(#paint43_linear_564_8779)"/>
  <path d="M348 31.5C348 32.3284 347.328 33 346.5 33C345.672 33 345 32.3284 345 31.5C345 30.6716 345.672 30 346.5 30C347.328 30 348 30.6716 348 31.5Z" fill="url(#paint44_linear_564_8779)"/>
  <path d="M363 31.5C363 32.3284 362.328 33 361.5 33C360.672 33 360 32.3284 360 31.5C360 30.6716 360.672 30 361.5 30C362.328 30 363 30.6716 363 31.5Z" fill="url(#paint45_linear_564_8779)"/>
  <path d="M378 31.5C378 32.3284 377.328 33 376.5 33C375.672 33 375 32.3284 375 31.5C375 30.6716 375.672 30 376.5 30C377.328 30 378 30.6716 378 31.5Z" fill="url(#paint46_linear_564_8779)"/>
  <path d="M393 31.5C393 32.3284 392.328 33 391.5 33C390.672 33 390 32.3284 390 31.5C390 30.6716 390.672 30 391.5 30C392.328 30 393 30.6716 393 31.5Z" fill="url(#paint47_linear_564_8779)"/>
  <path d="M408 31.5C408 32.3284 407.328 33 406.5 33C405.672 33 405 32.3284 405 31.5C405 30.6716 405.672 30 406.5 30C407.328 30 408 30.6716 408 31.5Z" fill="url(#paint48_linear_564_8779)"/>
  <path d="M423 31.5C423 32.3284 422.328 33 421.5 33C420.672 33 420 32.3284 420 31.5C420 30.6716 420.672 30 421.5 30C422.328 30 423 30.6716 423 31.5Z" fill="url(#paint49_linear_564_8779)"/>
  <path d="M438 31.5C438 32.3284 437.328 33 436.5 33C435.672 33 435 32.3284 435 31.5C435 30.6716 435.672 30 436.5 30C437.328 30 438 30.6716 438 31.5Z" fill="url(#paint50_linear_564_8779)"/>
  <path d="M453 31.5C453 32.3284 452.328 33 451.5 33C450.672 33 450 32.3284 450 31.5C450 30.6716 450.672 30 451.5 30C452.328 30 453 30.6716 453 31.5Z" fill="url(#paint51_linear_564_8779)"/>
  <path d="M468 31.5C468 32.3284 467.328 33 466.5 33C465.672 33 465 32.3284 465 31.5C465 30.6716 465.672 30 466.5 30C467.328 30 468 30.6716 468 31.5Z" fill="url(#paint52_linear_564_8779)"/>
  <path d="M483 31.5C483 32.3284 482.328 33 481.5 33C480.672 33 480 32.3284 480 31.5C480 30.6716 480.672 30 481.5 30C482.328 30 483 30.6716 483 31.5Z" fill="url(#paint53_linear_564_8779)"/>
  <path d="M498 31.5C498 32.3284 497.328 33 496.5 33C495.672 33 495 32.3284 495 31.5C495 30.6716 495.672 30 496.5 30C497.328 30 498 30.6716 498 31.5Z" fill="url(#paint54_linear_564_8779)"/>
  <path d="M513 31.5C513 32.3284 512.328 33 511.5 33C510.672 33 510 32.3284 510 31.5C510 30.6716 510.672 30 511.5 30C512.328 30 513 30.6716 513 31.5Z" fill="url(#paint55_linear_564_8779)"/>
  <path d="M528 31.5C528 32.3284 527.328 33 526.5 33C525.672 33 525 32.3284 525 31.5C525 30.6716 525.672 30 526.5 30C527.328 30 528 30.6716 528 31.5Z" fill="url(#paint56_linear_564_8779)"/>
  <path d="M543 31.5C543 32.3284 542.328 33 541.5 33C540.672 33 540 32.3284 540 31.5C540 30.6716 540.672 30 541.5 30C542.328 30 543 30.6716 543 31.5Z" fill="url(#paint57_linear_564_8779)"/>
  <path d="M558 31.5C558 32.3284 557.328 33 556.5 33C555.672 33 555 32.3284 555 31.5C555 30.6716 555.672 30 556.5 30C557.328 30 558 30.6716 558 31.5Z" fill="url(#paint58_linear_564_8779)"/>
  <path d="M573 31.5C573 32.3284 572.328 33 571.5 33C570.672 33 570 32.3284 570 31.5C570 30.6716 570.672 30 571.5 30C572.328 30 573 30.6716 573 31.5Z" fill="url(#paint59_linear_564_8779)"/>
  <path d="M588 31.5C588 32.3284 587.328 33 586.5 33C585.672 33 585 32.3284 585 31.5C585 30.6716 585.672 30 586.5 30C587.328 30 588 30.6716 588 31.5Z" fill="url(#paint60_linear_564_8779)"/>
  <path d="M603 31.5C603 32.3284 602.328 33 601.5 33C600.672 33 600 32.3284 600 31.5C600 30.6716 600.672 30 601.5 30C602.328 30 603 30.6716 603 31.5Z" fill="url(#paint61_linear_564_8779)"/>
  <path d="M618 31.5C618 32.3284 617.328 33 616.5 33C615.672 33 615 32.3284 615 31.5C615 30.6716 615.672 30 616.5 30C617.328 30 618 30.6716 618 31.5Z" fill="url(#paint62_linear_564_8779)"/>
  <path d="M318 46.5C318 47.3284 317.328 48 316.5 48C315.672 48 315 47.3284 315 46.5C315 45.6716 315.672 45 316.5 45C317.328 45 318 45.6716 318 46.5Z" fill="url(#paint63_linear_564_8779)"/>
  <path d="M333 46.5C333 47.3284 332.328 48 331.5 48C330.672 48 330 47.3284 330 46.5C330 45.6716 330.672 45 331.5 45C332.328 45 333 45.6716 333 46.5Z" fill="url(#paint64_linear_564_8779)"/>
  <path d="M348 46.5C348 47.3284 347.328 48 346.5 48C345.672 48 345 47.3284 345 46.5C345 45.6716 345.672 45 346.5 45C347.328 45 348 45.6716 348 46.5Z" fill="url(#paint65_linear_564_8779)"/>
  <path d="M363 46.5C363 47.3284 362.328 48 361.5 48C360.672 48 360 47.3284 360 46.5C360 45.6716 360.672 45 361.5 45C362.328 45 363 45.6716 363 46.5Z" fill="url(#paint66_linear_564_8779)"/>
  <path d="M378 46.5C378 47.3284 377.328 48 376.5 48C375.672 48 375 47.3284 375 46.5C375 45.6716 375.672 45 376.5 45C377.328 45 378 45.6716 378 46.5Z" fill="url(#paint67_linear_564_8779)"/>
  <path d="M393 46.5C393 47.3284 392.328 48 391.5 48C390.672 48 390 47.3284 390 46.5C390 45.6716 390.672 45 391.5 45C392.328 45 393 45.6716 393 46.5Z" fill="url(#paint68_linear_564_8779)"/>
  <path d="M408 46.5C408 47.3284 407.328 48 406.5 48C405.672 48 405 47.3284 405 46.5C405 45.6716 405.672 45 406.5 45C407.328 45 408 45.6716 408 46.5Z" fill="url(#paint69_linear_564_8779)"/>
  <path d="M423 46.5C423 47.3284 422.328 48 421.5 48C420.672 48 420 47.3284 420 46.5C420 45.6716 420.672 45 421.5 45C422.328 45 423 45.6716 423 46.5Z" fill="url(#paint70_linear_564_8779)"/>
  <path d="M438 46.5C438 47.3284 437.328 48 436.5 48C435.672 48 435 47.3284 435 46.5C435 45.6716 435.672 45 436.5 45C437.328 45 438 45.6716 438 46.5Z" fill="url(#paint71_linear_564_8779)"/>
  <path d="M453 46.5C453 47.3284 452.328 48 451.5 48C450.672 48 450 47.3284 450 46.5C450 45.6716 450.672 45 451.5 45C452.328 45 453 45.6716 453 46.5Z" fill="url(#paint72_linear_564_8779)"/>
  <path d="M468 46.5C468 47.3284 467.328 48 466.5 48C465.672 48 465 47.3284 465 46.5C465 45.6716 465.672 45 466.5 45C467.328 45 468 45.6716 468 46.5Z" fill="url(#paint73_linear_564_8779)"/>
  <path d="M483 46.5C483 47.3284 482.328 48 481.5 48C480.672 48 480 47.3284 480 46.5C480 45.6716 480.672 45 481.5 45C482.328 45 483 45.6716 483 46.5Z" fill="url(#paint74_linear_564_8779)"/>
  <path d="M498 46.5C498 47.3284 497.328 48 496.5 48C495.672 48 495 47.3284 495 46.5C495 45.6716 495.672 45 496.5 45C497.328 45 498 45.6716 498 46.5Z" fill="url(#paint75_linear_564_8779)"/>
  <path d="M513 46.5C513 47.3284 512.328 48 511.5 48C510.672 48 510 47.3284 510 46.5C510 45.6716 510.672 45 511.5 45C512.328 45 513 45.6716 513 46.5Z" fill="url(#paint76_linear_564_8779)"/>
  <path d="M528 46.5C528 47.3284 527.328 48 526.5 48C525.672 48 525 47.3284 525 46.5C525 45.6716 525.672 45 526.5 45C527.328 45 528 45.6716 528 46.5Z" fill="url(#paint77_linear_564_8779)"/>
  <path d="M543 46.5C543 47.3284 542.328 48 541.5 48C540.672 48 540 47.3284 540 46.5C540 45.6716 540.672 45 541.5 45C542.328 45 543 45.6716 543 46.5Z" fill="url(#paint78_linear_564_8779)"/>
  <path d="M558 46.5C558 47.3284 557.328 48 556.5 48C555.672 48 555 47.3284 555 46.5C555 45.6716 555.672 45 556.5 45C557.328 45 558 45.6716 558 46.5Z" fill="url(#paint79_linear_564_8779)"/>
  <path d="M573 46.5C573 47.3284 572.328 48 571.5 48C570.672 48 570 47.3284 570 46.5C570 45.6716 570.672 45 571.5 45C572.328 45 573 45.6716 573 46.5Z" fill="url(#paint80_linear_564_8779)"/>
  <path d="M588 46.5C588 47.3284 587.328 48 586.5 48C585.672 48 585 47.3284 585 46.5C585 45.6716 585.672 45 586.5 45C587.328 45 588 45.6716 588 46.5Z" fill="url(#paint81_linear_564_8779)"/>
  <path d="M603 46.5C603 47.3284 602.328 48 601.5 48C600.672 48 600 47.3284 600 46.5C600 45.6716 600.672 45 601.5 45C602.328 45 603 45.6716 603 46.5Z" fill="url(#paint82_linear_564_8779)"/>
  <path d="M618 46.5C618 47.3284 617.328 48 616.5 48C615.672 48 615 47.3284 615 46.5C615 45.6716 615.672 45 616.5 45C617.328 45 618 45.6716 618 46.5Z" fill="url(#paint83_linear_564_8779)"/>
  <path d="M3 1.5C3 2.32843 2.32843 3 1.5 3C0.671573 3 0 2.32843 0 1.5C0 0.671573 0.671573 0 1.5 0C2.32843 0 3 0.671573 3 1.5Z" fill="url(#paint84_linear_564_8779)"/>
  <path d="M18 1.5C18 2.32843 17.3284 3 16.5 3C15.6716 3 15 2.32843 15 1.5C15 0.671573 15.6716 0 16.5 0C17.3284 0 18 0.671573 18 1.5Z" fill="url(#paint85_linear_564_8779)"/>
  <path d="M33 1.5C33 2.32843 32.3284 3 31.5 3C30.6716 3 30 2.32843 30 1.5C30 0.671573 30.6716 0 31.5 0C32.3284 0 33 0.671573 33 1.5Z" fill="url(#paint86_linear_564_8779)"/>
  <path d="M48 1.5C48 2.32843 47.3284 3 46.5 3C45.6716 3 45 2.32843 45 1.5C45 0.671573 45.6716 0 46.5 0C47.3284 0 48 0.671573 48 1.5Z" fill="url(#paint87_linear_564_8779)"/>
  <path d="M63 1.5C63 2.32843 62.3284 3 61.5 3C60.6716 3 60 2.32843 60 1.5C60 0.671573 60.6716 0 61.5 0C62.3284 0 63 0.671573 63 1.5Z" fill="url(#paint88_linear_564_8779)"/>
  <path d="M78 1.5C78 2.32843 77.3284 3 76.5 3C75.6716 3 75 2.32843 75 1.5C75 0.671573 75.6716 0 76.5 0C77.3284 0 78 0.671573 78 1.5Z" fill="url(#paint89_linear_564_8779)"/>
  <path d="M93 1.5C93 2.32843 92.3284 3 91.5 3C90.6716 3 90 2.32843 90 1.5C90 0.671573 90.6716 0 91.5 0C92.3284 0 93 0.671573 93 1.5Z" fill="url(#paint90_linear_564_8779)"/>
  <path d="M108 1.5C108 2.32843 107.328 3 106.5 3C105.672 3 105 2.32843 105 1.5C105 0.671573 105.672 0 106.5 0C107.328 0 108 0.671573 108 1.5Z" fill="url(#paint91_linear_564_8779)"/>
  <path d="M123 1.5C123 2.32843 122.328 3 121.5 3C120.672 3 120 2.32843 120 1.5C120 0.671573 120.672 0 121.5 0C122.328 0 123 0.671573 123 1.5Z" fill="url(#paint92_linear_564_8779)"/>
  <path d="M138 1.5C138 2.32843 137.328 3 136.5 3C135.672 3 135 2.32843 135 1.5C135 0.671573 135.672 0 136.5 0C137.328 0 138 0.671573 138 1.5Z" fill="url(#paint93_linear_564_8779)"/>
  <path d="M153 1.5C153 2.32843 152.328 3 151.5 3C150.672 3 150 2.32843 150 1.5C150 0.671573 150.672 0 151.5 0C152.328 0 153 0.671573 153 1.5Z" fill="url(#paint94_linear_564_8779)"/>
  <path d="M168 1.5C168 2.32843 167.328 3 166.5 3C165.672 3 165 2.32843 165 1.5C165 0.671573 165.672 0 166.5 0C167.328 0 168 0.671573 168 1.5Z" fill="url(#paint95_linear_564_8779)"/>
  <path d="M183 1.5C183 2.32843 182.328 3 181.5 3C180.672 3 180 2.32843 180 1.5C180 0.671573 180.672 0 181.5 0C182.328 0 183 0.671573 183 1.5Z" fill="url(#paint96_linear_564_8779)"/>
  <path d="M198 1.5C198 2.32843 197.328 3 196.5 3C195.672 3 195 2.32843 195 1.5C195 0.671573 195.672 0 196.5 0C197.328 0 198 0.671573 198 1.5Z" fill="url(#paint97_linear_564_8779)"/>
  <path d="M213 1.5C213 2.32843 212.328 3 211.5 3C210.672 3 210 2.32843 210 1.5C210 0.671573 210.672 0 211.5 0C212.328 0 213 0.671573 213 1.5Z" fill="url(#paint98_linear_564_8779)"/>
  <path d="M228 1.5C228 2.32843 227.328 3 226.5 3C225.672 3 225 2.32843 225 1.5C225 0.671573 225.672 0 226.5 0C227.328 0 228 0.671573 228 1.5Z" fill="url(#paint99_linear_564_8779)"/>
  <path d="M243 1.5C243 2.32843 242.328 3 241.5 3C240.672 3 240 2.32843 240 1.5C240 0.671573 240.672 0 241.5 0C242.328 0 243 0.671573 243 1.5Z" fill="url(#paint100_linear_564_8779)"/>
  <path d="M258 1.5C258 2.32843 257.328 3 256.5 3C255.672 3 255 2.32843 255 1.5C255 0.671573 255.672 0 256.5 0C257.328 0 258 0.671573 258 1.5Z" fill="url(#paint101_linear_564_8779)"/>
  <path d="M273 1.5C273 2.32843 272.328 3 271.5 3C270.672 3 270 2.32843 270 1.5C270 0.671573 270.672 0 271.5 0C272.328 0 273 0.671573 273 1.5Z" fill="url(#paint102_linear_564_8779)"/>
  <path d="M288 1.5C288 2.32843 287.328 3 286.5 3C285.672 3 285 2.32843 285 1.5C285 0.671573 285.672 0 286.5 0C287.328 0 288 0.671573 288 1.5Z" fill="url(#paint103_linear_564_8779)"/>
  <path d="M303 1.5C303 2.32843 302.328 3 301.5 3C300.672 3 300 2.32843 300 1.5C300 0.671573 300.672 0 301.5 0C302.328 0 303 0.671573 303 1.5Z" fill="url(#paint104_linear_564_8779)"/>
  <path d="M3 16.5C3 17.3284 2.32843 18 1.5 18C0.671573 18 0 17.3284 0 16.5C0 15.6716 0.671573 15 1.5 15C2.32843 15 3 15.6716 3 16.5Z" fill="url(#paint105_linear_564_8779)"/>
  <path d="M18 16.5C18 17.3284 17.3284 18 16.5 18C15.6716 18 15 17.3284 15 16.5C15 15.6716 15.6716 15 16.5 15C17.3284 15 18 15.6716 18 16.5Z" fill="url(#paint106_linear_564_8779)"/>
  <path d="M33 16.5C33 17.3284 32.3284 18 31.5 18C30.6716 18 30 17.3284 30 16.5C30 15.6716 30.6716 15 31.5 15C32.3284 15 33 15.6716 33 16.5Z" fill="url(#paint107_linear_564_8779)"/>
  <path d="M48 16.5C48 17.3284 47.3284 18 46.5 18C45.6716 18 45 17.3284 45 16.5C45 15.6716 45.6716 15 46.5 15C47.3284 15 48 15.6716 48 16.5Z" fill="url(#paint108_linear_564_8779)"/>
  <path d="M63 16.5C63 17.3284 62.3284 18 61.5 18C60.6716 18 60 17.3284 60 16.5C60 15.6716 60.6716 15 61.5 15C62.3284 15 63 15.6716 63 16.5Z" fill="url(#paint109_linear_564_8779)"/>
  <path d="M78 16.5C78 17.3284 77.3284 18 76.5 18C75.6716 18 75 17.3284 75 16.5C75 15.6716 75.6716 15 76.5 15C77.3284 15 78 15.6716 78 16.5Z" fill="url(#paint110_linear_564_8779)"/>
  <path d="M93 16.5C93 17.3284 92.3284 18 91.5 18C90.6716 18 90 17.3284 90 16.5C90 15.6716 90.6716 15 91.5 15C92.3284 15 93 15.6716 93 16.5Z" fill="url(#paint111_linear_564_8779)"/>
  <path d="M108 16.5C108 17.3284 107.328 18 106.5 18C105.672 18 105 17.3284 105 16.5C105 15.6716 105.672 15 106.5 15C107.328 15 108 15.6716 108 16.5Z" fill="url(#paint112_linear_564_8779)"/>
  <path d="M123 16.5C123 17.3284 122.328 18 121.5 18C120.672 18 120 17.3284 120 16.5C120 15.6716 120.672 15 121.5 15C122.328 15 123 15.6716 123 16.5Z" fill="url(#paint113_linear_564_8779)"/>
  <path d="M138 16.5C138 17.3284 137.328 18 136.5 18C135.672 18 135 17.3284 135 16.5C135 15.6716 135.672 15 136.5 15C137.328 15 138 15.6716 138 16.5Z" fill="url(#paint114_linear_564_8779)"/>
  <path d="M153 16.5C153 17.3284 152.328 18 151.5 18C150.672 18 150 17.3284 150 16.5C150 15.6716 150.672 15 151.5 15C152.328 15 153 15.6716 153 16.5Z" fill="url(#paint115_linear_564_8779)"/>
  <path d="M168 16.5C168 17.3284 167.328 18 166.5 18C165.672 18 165 17.3284 165 16.5C165 15.6716 165.672 15 166.5 15C167.328 15 168 15.6716 168 16.5Z" fill="url(#paint116_linear_564_8779)"/>
  <path d="M183 16.5C183 17.3284 182.328 18 181.5 18C180.672 18 180 17.3284 180 16.5C180 15.6716 180.672 15 181.5 15C182.328 15 183 15.6716 183 16.5Z" fill="url(#paint117_linear_564_8779)"/>
  <path d="M198 16.5C198 17.3284 197.328 18 196.5 18C195.672 18 195 17.3284 195 16.5C195 15.6716 195.672 15 196.5 15C197.328 15 198 15.6716 198 16.5Z" fill="url(#paint118_linear_564_8779)"/>
  <path d="M213 16.5C213 17.3284 212.328 18 211.5 18C210.672 18 210 17.3284 210 16.5C210 15.6716 210.672 15 211.5 15C212.328 15 213 15.6716 213 16.5Z" fill="url(#paint119_linear_564_8779)"/>
  <path d="M228 16.5C228 17.3284 227.328 18 226.5 18C225.672 18 225 17.3284 225 16.5C225 15.6716 225.672 15 226.5 15C227.328 15 228 15.6716 228 16.5Z" fill="url(#paint120_linear_564_8779)"/>
  <path d="M243 16.5C243 17.3284 242.328 18 241.5 18C240.672 18 240 17.3284 240 16.5C240 15.6716 240.672 15 241.5 15C242.328 15 243 15.6716 243 16.5Z" fill="url(#paint121_linear_564_8779)"/>
  <path d="M258 16.5C258 17.3284 257.328 18 256.5 18C255.672 18 255 17.3284 255 16.5C255 15.6716 255.672 15 256.5 15C257.328 15 258 15.6716 258 16.5Z" fill="url(#paint122_linear_564_8779)"/>
  <path d="M273 16.5C273 17.3284 272.328 18 271.5 18C270.672 18 270 17.3284 270 16.5C270 15.6716 270.672 15 271.5 15C272.328 15 273 15.6716 273 16.5Z" fill="url(#paint123_linear_564_8779)"/>
  <path d="M288 16.5C288 17.3284 287.328 18 286.5 18C285.672 18 285 17.3284 285 16.5C285 15.6716 285.672 15 286.5 15C287.328 15 288 15.6716 288 16.5Z" fill="url(#paint124_linear_564_8779)"/>
  <path d="M303 16.5C303 17.3284 302.328 18 301.5 18C300.672 18 300 17.3284 300 16.5C300 15.6716 300.672 15 301.5 15C302.328 15 303 15.6716 303 16.5Z" fill="url(#paint125_linear_564_8779)"/>
  <path d="M3 31.5C3 32.3284 2.32843 33 1.5 33C0.671573 33 0 32.3284 0 31.5C0 30.6716 0.671573 30 1.5 30C2.32843 30 3 30.6716 3 31.5Z" fill="url(#paint126_linear_564_8779)"/>
  <path d="M18 31.5C18 32.3284 17.3284 33 16.5 33C15.6716 33 15 32.3284 15 31.5C15 30.6716 15.6716 30 16.5 30C17.3284 30 18 30.6716 18 31.5Z" fill="url(#paint127_linear_564_8779)"/>
  <path d="M33 31.5C33 32.3284 32.3284 33 31.5 33C30.6716 33 30 32.3284 30 31.5C30 30.6716 30.6716 30 31.5 30C32.3284 30 33 30.6716 33 31.5Z" fill="url(#paint128_linear_564_8779)"/>
  <path d="M48 31.5C48 32.3284 47.3284 33 46.5 33C45.6716 33 45 32.3284 45 31.5C45 30.6716 45.6716 30 46.5 30C47.3284 30 48 30.6716 48 31.5Z" fill="url(#paint129_linear_564_8779)"/>
  <path d="M63 31.5C63 32.3284 62.3284 33 61.5 33C60.6716 33 60 32.3284 60 31.5C60 30.6716 60.6716 30 61.5 30C62.3284 30 63 30.6716 63 31.5Z" fill="url(#paint130_linear_564_8779)"/>
  <path d="M78 31.5C78 32.3284 77.3284 33 76.5 33C75.6716 33 75 32.3284 75 31.5C75 30.6716 75.6716 30 76.5 30C77.3284 30 78 30.6716 78 31.5Z" fill="url(#paint131_linear_564_8779)"/>
  <path d="M93 31.5C93 32.3284 92.3284 33 91.5 33C90.6716 33 90 32.3284 90 31.5C90 30.6716 90.6716 30 91.5 30C92.3284 30 93 30.6716 93 31.5Z" fill="url(#paint132_linear_564_8779)"/>
  <path d="M108 31.5C108 32.3284 107.328 33 106.5 33C105.672 33 105 32.3284 105 31.5C105 30.6716 105.672 30 106.5 30C107.328 30 108 30.6716 108 31.5Z" fill="url(#paint133_linear_564_8779)"/>
  <path d="M123 31.5C123 32.3284 122.328 33 121.5 33C120.672 33 120 32.3284 120 31.5C120 30.6716 120.672 30 121.5 30C122.328 30 123 30.6716 123 31.5Z" fill="url(#paint134_linear_564_8779)"/>
  <path d="M138 31.5C138 32.3284 137.328 33 136.5 33C135.672 33 135 32.3284 135 31.5C135 30.6716 135.672 30 136.5 30C137.328 30 138 30.6716 138 31.5Z" fill="url(#paint135_linear_564_8779)"/>
  <path d="M153 31.5C153 32.3284 152.328 33 151.5 33C150.672 33 150 32.3284 150 31.5C150 30.6716 150.672 30 151.5 30C152.328 30 153 30.6716 153 31.5Z" fill="url(#paint136_linear_564_8779)"/>
  <path d="M168 31.5C168 32.3284 167.328 33 166.5 33C165.672 33 165 32.3284 165 31.5C165 30.6716 165.672 30 166.5 30C167.328 30 168 30.6716 168 31.5Z" fill="url(#paint137_linear_564_8779)"/>
  <path d="M183 31.5C183 32.3284 182.328 33 181.5 33C180.672 33 180 32.3284 180 31.5C180 30.6716 180.672 30 181.5 30C182.328 30 183 30.6716 183 31.5Z" fill="url(#paint138_linear_564_8779)"/>
  <path d="M198 31.5C198 32.3284 197.328 33 196.5 33C195.672 33 195 32.3284 195 31.5C195 30.6716 195.672 30 196.5 30C197.328 30 198 30.6716 198 31.5Z" fill="url(#paint139_linear_564_8779)"/>
  <path d="M213 31.5C213 32.3284 212.328 33 211.5 33C210.672 33 210 32.3284 210 31.5C210 30.6716 210.672 30 211.5 30C212.328 30 213 30.6716 213 31.5Z" fill="url(#paint140_linear_564_8779)"/>
  <path d="M228 31.5C228 32.3284 227.328 33 226.5 33C225.672 33 225 32.3284 225 31.5C225 30.6716 225.672 30 226.5 30C227.328 30 228 30.6716 228 31.5Z" fill="url(#paint141_linear_564_8779)"/>
  <path d="M243 31.5C243 32.3284 242.328 33 241.5 33C240.672 33 240 32.3284 240 31.5C240 30.6716 240.672 30 241.5 30C242.328 30 243 30.6716 243 31.5Z" fill="url(#paint142_linear_564_8779)"/>
  <path d="M258 31.5C258 32.3284 257.328 33 256.5 33C255.672 33 255 32.3284 255 31.5C255 30.6716 255.672 30 256.5 30C257.328 30 258 30.6716 258 31.5Z" fill="url(#paint143_linear_564_8779)"/>
  <path d="M273 31.5C273 32.3284 272.328 33 271.5 33C270.672 33 270 32.3284 270 31.5C270 30.6716 270.672 30 271.5 30C272.328 30 273 30.6716 273 31.5Z" fill="url(#paint144_linear_564_8779)"/>
  <path d="M288 31.5C288 32.3284 287.328 33 286.5 33C285.672 33 285 32.3284 285 31.5C285 30.6716 285.672 30 286.5 30C287.328 30 288 30.6716 288 31.5Z" fill="url(#paint145_linear_564_8779)"/>
  <path d="M303 31.5C303 32.3284 302.328 33 301.5 33C300.672 33 300 32.3284 300 31.5C300 30.6716 300.672 30 301.5 30C302.328 30 303 30.6716 303 31.5Z" fill="url(#paint146_linear_564_8779)"/>
  <path d="M3 46.5C3 47.3284 2.32843 48 1.5 48C0.671573 48 0 47.3284 0 46.5C0 45.6716 0.671573 45 1.5 45C2.32843 45 3 45.6716 3 46.5Z" fill="url(#paint147_linear_564_8779)"/>
  <path d="M18 46.5C18 47.3284 17.3284 48 16.5 48C15.6716 48 15 47.3284 15 46.5C15 45.6716 15.6716 45 16.5 45C17.3284 45 18 45.6716 18 46.5Z" fill="url(#paint148_linear_564_8779)"/>
  <path d="M33 46.5C33 47.3284 32.3284 48 31.5 48C30.6716 48 30 47.3284 30 46.5C30 45.6716 30.6716 45 31.5 45C32.3284 45 33 45.6716 33 46.5Z" fill="url(#paint149_linear_564_8779)"/>
  <path d="M48 46.5C48 47.3284 47.3284 48 46.5 48C45.6716 48 45 47.3284 45 46.5C45 45.6716 45.6716 45 46.5 45C47.3284 45 48 45.6716 48 46.5Z" fill="url(#paint150_linear_564_8779)"/>
  <path d="M63 46.5C63 47.3284 62.3284 48 61.5 48C60.6716 48 60 47.3284 60 46.5C60 45.6716 60.6716 45 61.5 45C62.3284 45 63 45.6716 63 46.5Z" fill="url(#paint151_linear_564_8779)"/>
  <path d="M78 46.5C78 47.3284 77.3284 48 76.5 48C75.6716 48 75 47.3284 75 46.5C75 45.6716 75.6716 45 76.5 45C77.3284 45 78 45.6716 78 46.5Z" fill="url(#paint152_linear_564_8779)"/>
  <path d="M93 46.5C93 47.3284 92.3284 48 91.5 48C90.6716 48 90 47.3284 90 46.5C90 45.6716 90.6716 45 91.5 45C92.3284 45 93 45.6716 93 46.5Z" fill="url(#paint153_linear_564_8779)"/>
  <path d="M108 46.5C108 47.3284 107.328 48 106.5 48C105.672 48 105 47.3284 105 46.5C105 45.6716 105.672 45 106.5 45C107.328 45 108 45.6716 108 46.5Z" fill="url(#paint154_linear_564_8779)"/>
  <path d="M123 46.5C123 47.3284 122.328 48 121.5 48C120.672 48 120 47.3284 120 46.5C120 45.6716 120.672 45 121.5 45C122.328 45 123 45.6716 123 46.5Z" fill="url(#paint155_linear_564_8779)"/>
  <path d="M138 46.5C138 47.3284 137.328 48 136.5 48C135.672 48 135 47.3284 135 46.5C135 45.6716 135.672 45 136.5 45C137.328 45 138 45.6716 138 46.5Z" fill="url(#paint156_linear_564_8779)"/>
  <path d="M153 46.5C153 47.3284 152.328 48 151.5 48C150.672 48 150 47.3284 150 46.5C150 45.6716 150.672 45 151.5 45C152.328 45 153 45.6716 153 46.5Z" fill="url(#paint157_linear_564_8779)"/>
  <path d="M168 46.5C168 47.3284 167.328 48 166.5 48C165.672 48 165 47.3284 165 46.5C165 45.6716 165.672 45 166.5 45C167.328 45 168 45.6716 168 46.5Z" fill="url(#paint158_linear_564_8779)"/>
  <path d="M183 46.5C183 47.3284 182.328 48 181.5 48C180.672 48 180 47.3284 180 46.5C180 45.6716 180.672 45 181.5 45C182.328 45 183 45.6716 183 46.5Z" fill="url(#paint159_linear_564_8779)"/>
  <path d="M198 46.5C198 47.3284 197.328 48 196.5 48C195.672 48 195 47.3284 195 46.5C195 45.6716 195.672 45 196.5 45C197.328 45 198 45.6716 198 46.5Z" fill="url(#paint160_linear_564_8779)"/>
  <path d="M213 46.5C213 47.3284 212.328 48 211.5 48C210.672 48 210 47.3284 210 46.5C210 45.6716 210.672 45 211.5 45C212.328 45 213 45.6716 213 46.5Z" fill="url(#paint161_linear_564_8779)"/>
  <path d="M228 46.5C228 47.3284 227.328 48 226.5 48C225.672 48 225 47.3284 225 46.5C225 45.6716 225.672 45 226.5 45C227.328 45 228 45.6716 228 46.5Z" fill="url(#paint162_linear_564_8779)"/>
  <path d="M243 46.5C243 47.3284 242.328 48 241.5 48C240.672 48 240 47.3284 240 46.5C240 45.6716 240.672 45 241.5 45C242.328 45 243 45.6716 243 46.5Z" fill="url(#paint163_linear_564_8779)"/>
  <path d="M258 46.5C258 47.3284 257.328 48 256.5 48C255.672 48 255 47.3284 255 46.5C255 45.6716 255.672 45 256.5 45C257.328 45 258 45.6716 258 46.5Z" fill="url(#paint164_linear_564_8779)"/>
  <path d="M273 46.5C273 47.3284 272.328 48 271.5 48C270.672 48 270 47.3284 270 46.5C270 45.6716 270.672 45 271.5 45C272.328 45 273 45.6716 273 46.5Z" fill="url(#paint165_linear_564_8779)"/>
  <path d="M288 46.5C288 47.3284 287.328 48 286.5 48C285.672 48 285 47.3284 285 46.5C285 45.6716 285.672 45 286.5 45C287.328 45 288 45.6716 288 46.5Z" fill="url(#paint166_linear_564_8779)"/>
  <path d="M303 46.5C303 47.3284 302.328 48 301.5 48C300.672 48 300 47.3284 300 46.5C300 45.6716 300.672 45 301.5 45C302.328 45 303 45.6716 303 46.5Z" fill="url(#paint167_linear_564_8779)"/>
  <defs>
    <linearGradient id="paint0_linear_564_8779" x1="-119.548" y1="24" x2="516" y2="24" gradientUnits="userSpaceOnUse">
      <stop stop-color="#F54900"/>
      <stop offset="1" stop-color="#F9FAFB" stop-opacity="0"/>
    </linearGradient>
    <linearGradient id="paint1_linear_564_8779" x1="-119.548" y1="24" x2="516" y2="24" gradientUnits="userSpaceOnUse">
      <stop stop-color="#F54900"/>
      <stop offset="1" stop-color="#F9FAFB" stop-opacity="0"/>
    </linearGradient>
    <linearGradient id="paint2_linear_564_8779" x1="-119.548" y1="24" x2="516" y2="24" gradientUnits="userSpaceOnUse">
      <stop stop-color="#F54900"/>
      <stop offset="1" stop-color="#F9FAFB" stop-opacity="0"/>
    </linearGradient>
    <linearGradient id="paint3_linear_564_8779" x1="-119.548" y1="24" x2="516" y2="24" gradientUnits="userSpaceOnUse">
      <stop stop-color="#F54900"/>
      <stop offset="1" stop-color="#F9FAFB" stop-opacity="0"/>
    </linearGradient>
    <linearGradient id="paint4_linear_564_8779" x1="-119.548" y1="24" x2="516" y2="24" gradientUnits="userSpaceOnUse">
      <stop stop-color="#F54900"/>
      <stop offset="1" stop-color="#F9FAFB" stop-opacity="0"/>
    </linearGradient>
    <linearGradient id="paint5_linear_564_8779" x1="-119.548" y1="24" x2="516" y2="24" gradientUnits="userSpaceOnUse">
      <stop stop-color="#F54900"/>
      <stop offset="1" stop-color="#F9FAFB" stop-opacity="0"/>
    </linearGradient>
    <linearGradient id="paint6_linear_564_8779" x1="-119.548" y1="24" x2="516" y2="24" gradientUnits="userSpaceOnUse">
      <stop stop-color="#F54900"/>
      <stop offset="1" stop-color="#F9FAFB" stop-opacity="0"/>
    </linearGradient>
    <linearGradient id="paint7_linear_564_8779" x1="-119.548" y1="24" x2="516" y2="24" gradientUnits="userSpaceOnUse">
      <stop stop-color="#F54900"/>
      <stop offset="1" stop-color="#F9FAFB" stop-opacity="0"/>
    </linearGradient>
    <linearGradient id="paint8_linear_564_8779" x1="-119.548" y1="24" x2="516" y2="24" gradientUnits="userSpaceOnUse">
      <stop stop-color="#F54900"/>
      <stop offset="1" stop-color="#F9FAFB" stop-opacity="0"/>
    </linearGradient>
    <linearGradient id="paint9_linear_564_8779" x1="-119.548" y1="24" x2="516" y2="24" gradientUnits="userSpaceOnUse">
      <stop stop-color="#F54900"/>
      <stop offset="1" stop-color="#F9FAFB" stop-opacity="0"/>
    </linearGradient>
    <linearGradient id="paint10_linear_564_8779" x1="-119.548" y1="24" x2="516" y2="24" gradientUnits="userSpaceOnUse">
      <stop stop-color="#F54900"/>
      <stop offset="1" stop-color="#F9FAFB" stop-opacity="0"/>
    </linearGradient>
    <linearGradient id="paint11_linear_564_8779" x1="-119.548" y1="24" x2="516" y2="24" gradientUnits="userSpaceOnUse">
      <stop stop-color="#F54900"/>
      <stop offset="1" stop-color="#F9FAFB" stop-opacity="0"/>
    </linearGradient>
    <linearGradient id="paint12_linear_564_8779" x1="-119.548" y1="24" x2="516" y2="24" gradientUnits="userSpaceOnUse">
      <stop stop-color="#F54900"/>
      <stop offset="1" stop-color="#F9FAFB" stop-opacity="0"/>
    </linearGradient>
    <linearGradient id="paint13_linear_564_8779" x1="-119.548" y1="24" x2="516" y2="24" gradientUnits="userSpaceOnUse">
      <stop stop-color="#F54900"/>
      <stop offset="1" stop-color="#F9FAFB" stop-opacity="0"/>
    </linearGradient>
    <linearGradient id="paint14_linear_564_8779" x1="-119.548" y1="24" x2="516" y2="24" gradientUnits="userSpaceOnUse">
      <stop stop-color="#F54900"/>
      <stop offset="1" stop-color="#F9FAFB" stop-opacity="0"/>
    </linearGradient>
    <linearGradient id="paint15_linear_564_8779" x1="-119.548" y1="24" x2="516" y2="24" gradientUnits="userSpaceOnUse">
      <stop stop-color="#F54900"/>
      <stop offset="1" stop-color="#F9FAFB" stop-opacity="0"/>
    </linearGradient>
    <linearGradient id="paint16_linear_564_8779" x1="-119.548" y1="24" x2="516" y2="24" gradientUnits="userSpaceOnUse">
      <stop stop-color="#F54900"/>
      <stop offset="1" stop-color="#F9FAFB" stop-opacity="0"/>
    </linearGradient>
    <linearGradient id="paint17_linear_564_8779" x1="-119.548" y1="24" x2="516" y2="24" gradientUnits="userSpaceOnUse">
      <stop stop-color="#F54900"/>
      <stop offset="1" stop-color="#F9FAFB" stop-opacity="0"/>
    </linearGradient>
    <linearGradient id="paint18_linear_564_8779" x1="-119.548" y1="24" x2="516" y2="24" gradientUnits="userSpaceOnUse">
      <stop stop-color="#F54900"/>
      <stop offset="1" stop-color="#F9FAFB" stop-opacity="0"/>
    </linearGradient>
    <linearGradient id="paint19_linear_564_8779" x1="-119.548" y1="24" x2="516" y2="24" gradientUnits="userSpaceOnUse">
      <stop stop-color="#F54900"/>
      <stop offset="1" stop-color="#F9FAFB" stop-opacity="0"/>
    </linearGradient>
    <linearGradient id="paint20_linear_564_8779" x1="-119.548" y1="24" x2="516" y2="24" gradientUnits="userSpaceOnUse">
      <stop stop-color="#F54900"/>
      <stop offset="1" stop-color="#F9FAFB" stop-opacity="0"/>
    </linearGradient>
  </defs>
</svg>