<svg xmlns="http://www.w3.org/2000/svg" width="550" height="48" viewBox="0 0 550 48" fill="none">
  <defs>
    <linearGradient id="jobsDotsGradient" x1="550" y1="24" x2="0" y2="24" gradientUnits="userSpaceOnUse">
      <stop stop-color="#F54900"/>
      <stop offset="1" stop-color="#F9FAFB" stop-opacity="0"/>
    </linearGradient>
  </defs>
  <g fill="url(#jobsDotsGradient)">
    <circle cx="8.5" cy="1.5" r="1.5"/>
    <circle cx="23.5" cy="1.5" r="1.5"/>
    <circle cx="38.5" cy="1.5" r="1.5"/>
    <circle cx="53.5" cy="1.5" r="1.5"/>
    <circle cx="68.5" cy="1.5" r="1.5"/>
    <circle cx="83.5" cy="1.5" r="1.5"/>
    <circle cx="98.5" cy="1.5" r="1.5"/>
    <circle cx="113.5" cy="1.5" r="1.5"/>
    <circle cx="128.5" cy="1.5" r="1.5"/>
    <circle cx="143.5" cy="1.5" r="1.5"/>
    <circle cx="158.5" cy="1.5" r="1.5"/>
    <circle cx="173.5" cy="1.5" r="1.5"/>
    <circle cx="188.5" cy="1.5" r="1.5"/>
    <circle cx="203.5" cy="1.5" r="1.5"/>
    <circle cx="218.5" cy="1.5" r="1.5"/>
    <circle cx="233.5" cy="1.5" r="1.5"/>
    <circle cx="248.5" cy="1.5" r="1.5"/>
    <circle cx="263.5" cy="1.5" r="1.5"/>
    <circle cx="278.5" cy="1.5" r="1.5"/>
    <circle cx="293.5" cy="1.5" r="1.5"/>
    <circle cx="308.5" cy="1.5" r="1.5"/>
    <circle cx="323.5" cy="1.5" r="1.5"/>
    <circle cx="338.5" cy="1.5" r="1.5"/>
    <circle cx="353.5" cy="1.5" r="1.5"/>
    <circle cx="368.5" cy="1.5" r="1.5"/>
    <circle cx="383.5" cy="1.5" r="1.5"/>
    <circle cx="398.5" cy="1.5" r="1.5"/>
    <circle cx="413.5" cy="1.5" r="1.5"/>
    <circle cx="428.5" cy="1.5" r="1.5"/>
    <circle cx="443.5" cy="1.5" r="1.5"/>
    <circle cx="458.5" cy="1.5" r="1.5"/>
    <circle cx="473.5" cy="1.5" r="1.5"/>
    <circle cx="488.5" cy="1.5" r="1.5"/>
    <circle cx="503.5" cy="1.5" r="1.5"/>
    <circle cx="518.5" cy="1.5" r="1.5"/>
    <circle cx="533.5" cy="1.5" r="1.5"/>
    <circle cx="548.5" cy="1.5" r="1.5"/>

    <circle cx="8.5" cy="16.5" r="1.5"/>
    <circle cx="23.5" cy="16.5" r="1.5"/>
    <circle cx="38.5" cy="16.5" r="1.5"/>
    <circle cx="53.5" cy="16.5" r="1.5"/>
    <circle cx="68.5" cy="16.5" r="1.5"/>
    <circle cx="83.5" cy="16.5" r="1.5"/>
    <circle cx="98.5" cy="16.5" r="1.5"/>
    <circle cx="113.5" cy="16.5" r="1.5"/>
    <circle cx="128.5" cy="16.5" r="1.5"/>
    <circle cx="143.5" cy="16.5" r="1.5"/>
    <circle cx="158.5" cy="16.5" r="1.5"/>
    <circle cx="173.5" cy="16.5" r="1.5"/>
    <circle cx="188.5" cy="16.5" r="1.5"/>
    <circle cx="203.5" cy="16.5" r="1.5"/>
    <circle cx="218.5" cy="16.5" r="1.5"/>
    <circle cx="233.5" cy="16.5" r="1.5"/>
    <circle cx="248.5" cy="16.5" r="1.5"/>
    <circle cx="263.5" cy="16.5" r="1.5"/>
    <circle cx="278.5" cy="16.5" r="1.5"/>
    <circle cx="293.5" cy="16.5" r="1.5"/>
    <circle cx="308.5" cy="16.5" r="1.5"/>
    <circle cx="323.5" cy="16.5" r="1.5"/>
    <circle cx="338.5" cy="16.5" r="1.5"/>
    <circle cx="353.5" cy="16.5" r="1.5"/>
    <circle cx="368.5" cy="16.5" r="1.5"/>
    <circle cx="383.5" cy="16.5" r="1.5"/>
    <circle cx="398.5" cy="16.5" r="1.5"/>
    <circle cx="413.5" cy="16.5" r="1.5"/>
    <circle cx="428.5" cy="16.5" r="1.5"/>
    <circle cx="443.5" cy="16.5" r="1.5"/>
    <circle cx="458.5" cy="16.5" r="1.5"/>
    <circle cx="473.5" cy="16.5" r="1.5"/>
    <circle cx="488.5" cy="16.5" r="1.5"/>
    <circle cx="503.5" cy="16.5" r="1.5"/>
    <circle cx="518.5" cy="16.5" r="1.5"/>
    <circle cx="533.5" cy="16.5" r="1.5"/>
    <circle cx="548.5" cy="16.5" r="1.5"/>

    <circle cx="8.5" cy="31.5" r="1.5"/>
    <circle cx="23.5" cy="31.5" r="1.5"/>
    <circle cx="38.5" cy="31.5" r="1.5"/>
    <circle cx="53.5" cy="31.5" r="1.5"/>
    <circle cx="68.5" cy="31.5" r="1.5"/>
    <circle cx="83.5" cy="31.5" r="1.5"/>
    <circle cx="98.5" cy="31.5" r="1.5"/>
    <circle cx="113.5" cy="31.5" r="1.5"/>
    <circle cx="128.5" cy="31.5" r="1.5"/>
    <circle cx="143.5" cy="31.5" r="1.5"/>
    <circle cx="158.5" cy="31.5" r="1.5"/>
    <circle cx="173.5" cy="31.5" r="1.5"/>
    <circle cx="188.5" cy="31.5" r="1.5"/>
    <circle cx="203.5" cy="31.5" r="1.5"/>
    <circle cx="218.5" cy="31.5" r="1.5"/>
    <circle cx="233.5" cy="31.5" r="1.5"/>
    <circle cx="248.5" cy="31.5" r="1.5"/>
    <circle cx="263.5" cy="31.5" r="1.5"/>
    <circle cx="278.5" cy="31.5" r="1.5"/>
    <circle cx="293.5" cy="31.5" r="1.5"/>
    <circle cx="308.5" cy="31.5" r="1.5"/>
    <circle cx="323.5" cy="31.5" r="1.5"/>
    <circle cx="338.5" cy="31.5" r="1.5"/>
    <circle cx="353.5" cy="31.5" r="1.5"/>
    <circle cx="368.5" cy="31.5" r="1.5"/>
    <circle cx="383.5" cy="31.5" r="1.5"/>
    <circle cx="398.5" cy="31.5" r="1.5"/>
    <circle cx="413.5" cy="31.5" r="1.5"/>
    <circle cx="428.5" cy="31.5" r="1.5"/>
    <circle cx="443.5" cy="31.5" r="1.5"/>
    <circle cx="458.5" cy="31.5" r="1.5"/>
    <circle cx="473.5" cy="31.5" r="1.5"/>
    <circle cx="488.5" cy="31.5" r="1.5"/>
    <circle cx="503.5" cy="31.5" r="1.5"/>
    <circle cx="518.5" cy="31.5" r="1.5"/>
    <circle cx="533.5" cy="31.5" r="1.5"/>
    <circle cx="548.5" cy="31.5" r="1.5"/>

    <circle cx="8.5" cy="46.5" r="1.5"/>
    <circle cx="23.5" cy="46.5" r="1.5"/>
    <circle cx="38.5" cy="46.5" r="1.5"/>
    <circle cx="53.5" cy="46.5" r="1.5"/>
    <circle cx="68.5" cy="46.5" r="1.5"/>
    <circle cx="83.5" cy="46.5" r="1.5"/>
    <circle cx="98.5" cy="46.5" r="1.5"/>
    <circle cx="113.5" cy="46.5" r="1.5"/>
    <circle cx="128.5" cy="46.5" r="1.5"/>
    <circle cx="143.5" cy="46.5" r="1.5"/>
    <circle cx="158.5" cy="46.5" r="1.5"/>
    <circle cx="173.5" cy="46.5" r="1.5"/>
    <circle cx="188.5" cy="46.5" r="1.5"/>
    <circle cx="203.5" cy="46.5" r="1.5"/>
    <circle cx="218.5" cy="46.5" r="1.5"/>
    <circle cx="233.5" cy="46.5" r="1.5"/>
    <circle cx="248.5" cy="46.5" r="1.5"/>
    <circle cx="263.5" cy="46.5" r="1.5"/>
    <circle cx="278.5" cy="46.5" r="1.5"/>
    <circle cx="293.5" cy="46.5" r="1.5"/>
    <circle cx="308.5" cy="46.5" r="1.5"/>
    <circle cx="323.5" cy="46.5" r="1.5"/>
    <circle cx="338.5" cy="46.5" r="1.5"/>
    <circle cx="353.5" cy="46.5" r="1.5"/>
    <circle cx="368.5" cy="46.5" r="1.5"/>
    <circle cx="383.5" cy="46.5" r="1.5"/>
    <circle cx="398.5" cy="46.5" r="1.5"/>
    <circle cx="413.5" cy="46.5" r="1.5"/>
    <circle cx="428.5" cy="46.5" r="1.5"/>
    <circle cx="443.5" cy="46.5" r="1.5"/>
    <circle cx="458.5" cy="46.5" r="1.5"/>
    <circle cx="473.5" cy="46.5" r="1.5"/>
    <circle cx="488.5" cy="46.5" r="1.5"/>
    <circle cx="503.5" cy="46.5" r="1.5"/>
    <circle cx="518.5" cy="46.5" r="1.5"/>
    <circle cx="533.5" cy="46.5" r="1.5"/>
    <circle cx="548.5" cy="46.5" r="1.5"/>
  </g>
</svg>
