<svg xmlns="http://www.w3.org/2000/svg" width="554" height="48" viewBox="0 0 554 48" fill="none">
  <defs>
    <linearGradient id="platformDotsGradient" x1="0" y1="24" x2="554" y2="24" gradientUnits="userSpaceOnUse">
      <stop stop-color="#F54900"/>
      <stop offset="1" stop-color="#F9FAFB" stop-opacity="0"/>
    </linearGradient>
  </defs>
  <g fill="url(#platformDotsGradient)">
    <circle cx="1.5" cy="1.5" r="1.5"/>
    <circle cx="16.5" cy="1.5" r="1.5"/>
    <circle cx="31.5" cy="1.5" r="1.5"/>
    <circle cx="46.5" cy="1.5" r="1.5"/>
    <circle cx="61.5" cy="1.5" r="1.5"/>
    <circle cx="76.5" cy="1.5" r="1.5"/>
    <circle cx="91.5" cy="1.5" r="1.5"/>
    <circle cx="106.5" cy="1.5" r="1.5"/>
    <circle cx="121.5" cy="1.5" r="1.5"/>
    <circle cx="136.5" cy="1.5" r="1.5"/>
    <circle cx="151.5" cy="1.5" r="1.5"/>
    <circle cx="166.5" cy="1.5" r="1.5"/>
    <circle cx="181.5" cy="1.5" r="1.5"/>
    <circle cx="196.5" cy="1.5" r="1.5"/>
    <circle cx="211.5" cy="1.5" r="1.5"/>
    <circle cx="226.5" cy="1.5" r="1.5"/>
    <circle cx="241.5" cy="1.5" r="1.5"/>
    <circle cx="256.5" cy="1.5" r="1.5"/>
    <circle cx="271.5" cy="1.5" r="1.5"/>
    <circle cx="286.5" cy="1.5" r="1.5"/>
    <circle cx="301.5" cy="1.5" r="1.5"/>
    <circle cx="316.5" cy="1.5" r="1.5"/>
    <circle cx="331.5" cy="1.5" r="1.5"/>
    <circle cx="346.5" cy="1.5" r="1.5"/>
    <circle cx="361.5" cy="1.5" r="1.5"/>
    <circle cx="376.5" cy="1.5" r="1.5"/>
    <circle cx="391.5" cy="1.5" r="1.5"/>
    <circle cx="406.5" cy="1.5" r="1.5"/>
    <circle cx="421.5" cy="1.5" r="1.5"/>
    <circle cx="436.5" cy="1.5" r="1.5"/>
    <circle cx="451.5" cy="1.5" r="1.5"/>
    <circle cx="466.5" cy="1.5" r="1.5"/>
    <circle cx="481.5" cy="1.5" r="1.5"/>
    <circle cx="496.5" cy="1.5" r="1.5"/>
    <circle cx="511.5" cy="1.5" r="1.5"/>
    <circle cx="526.5" cy="1.5" r="1.5"/>
    <circle cx="541.5" cy="1.5" r="1.5"/>

    <circle cx="1.5" cy="16.5" r="1.5"/>
    <circle cx="16.5" cy="16.5" r="1.5"/>
    <circle cx="31.5" cy="16.5" r="1.5"/>
    <circle cx="46.5" cy="16.5" r="1.5"/>
    <circle cx="61.5" cy="16.5" r="1.5"/>
    <circle cx="76.5" cy="16.5" r="1.5"/>
    <circle cx="91.5" cy="16.5" r="1.5"/>
    <circle cx="106.5" cy="16.5" r="1.5"/>
    <circle cx="121.5" cy="16.5" r="1.5"/>
    <circle cx="136.5" cy="16.5" r="1.5"/>
    <circle cx="151.5" cy="16.5" r="1.5"/>
    <circle cx="166.5" cy="16.5" r="1.5"/>
    <circle cx="181.5" cy="16.5" r="1.5"/>
    <circle cx="196.5" cy="16.5" r="1.5"/>
    <circle cx="211.5" cy="16.5" r="1.5"/>
    <circle cx="226.5" cy="16.5" r="1.5"/>
    <circle cx="241.5" cy="16.5" r="1.5"/>
    <circle cx="256.5" cy="16.5" r="1.5"/>
    <circle cx="271.5" cy="16.5" r="1.5"/>
    <circle cx="286.5" cy="16.5" r="1.5"/>
    <circle cx="301.5" cy="16.5" r="1.5"/>
    <circle cx="316.5" cy="16.5" r="1.5"/>
    <circle cx="331.5" cy="16.5" r="1.5"/>
    <circle cx="346.5" cy="16.5" r="1.5"/>
    <circle cx="361.5" cy="16.5" r="1.5"/>
    <circle cx="376.5" cy="16.5" r="1.5"/>
    <circle cx="391.5" cy="16.5" r="1.5"/>
    <circle cx="406.5" cy="16.5" r="1.5"/>
    <circle cx="421.5" cy="16.5" r="1.5"/>
    <circle cx="436.5" cy="16.5" r="1.5"/>
    <circle cx="451.5" cy="16.5" r="1.5"/>
    <circle cx="466.5" cy="16.5" r="1.5"/>
    <circle cx="481.5" cy="16.5" r="1.5"/>
    <circle cx="496.5" cy="16.5" r="1.5"/>
    <circle cx="511.5" cy="16.5" r="1.5"/>
    <circle cx="526.5" cy="16.5" r="1.5"/>
    <circle cx="541.5" cy="16.5" r="1.5"/>

    <circle cx="1.5" cy="31.5" r="1.5"/>
    <circle cx="16.5" cy="31.5" r="1.5"/>
    <circle cx="31.5" cy="31.5" r="1.5"/>
    <circle cx="46.5" cy="31.5" r="1.5"/>
    <circle cx="61.5" cy="31.5" r="1.5"/>
    <circle cx="76.5" cy="31.5" r="1.5"/>
    <circle cx="91.5" cy="31.5" r="1.5"/>
    <circle cx="106.5" cy="31.5" r="1.5"/>
    <circle cx="121.5" cy="31.5" r="1.5"/>
    <circle cx="136.5" cy="31.5" r="1.5"/>
    <circle cx="151.5" cy="31.5" r="1.5"/>
    <circle cx="166.5" cy="31.5" r="1.5"/>
    <circle cx="181.5" cy="31.5" r="1.5"/>
    <circle cx="196.5" cy="31.5" r="1.5"/>
    <circle cx="211.5" cy="31.5" r="1.5"/>
    <circle cx="226.5" cy="31.5" r="1.5"/>
    <circle cx="241.5" cy="31.5" r="1.5"/>
    <circle cx="256.5" cy="31.5" r="1.5"/>
    <circle cx="271.5" cy="31.5" r="1.5"/>
    <circle cx="286.5" cy="31.5" r="1.5"/>
    <circle cx="301.5" cy="31.5" r="1.5"/>
    <circle cx="316.5" cy="31.5" r="1.5"/>
    <circle cx="331.5" cy="31.5" r="1.5"/>
    <circle cx="346.5" cy="31.5" r="1.5"/>
    <circle cx="361.5" cy="31.5" r="1.5"/>
    <circle cx="376.5" cy="31.5" r="1.5"/>
    <circle cx="391.5" cy="31.5" r="1.5"/>
    <circle cx="406.5" cy="31.5" r="1.5"/>
    <circle cx="421.5" cy="31.5" r="1.5"/>
    <circle cx="436.5" cy="31.5" r="1.5"/>
    <circle cx="451.5" cy="31.5" r="1.5"/>
    <circle cx="466.5" cy="31.5" r="1.5"/>
    <circle cx="481.5" cy="31.5" r="1.5"/>
    <circle cx="496.5" cy="31.5" r="1.5"/>
    <circle cx="511.5" cy="31.5" r="1.5"/>
    <circle cx="526.5" cy="31.5" r="1.5"/>
    <circle cx="541.5" cy="31.5" r="1.5"/>

    <circle cx="1.5" cy="46.5" r="1.5"/>
    <circle cx="16.5" cy="46.5" r="1.5"/>
    <circle cx="31.5" cy="46.5" r="1.5"/>
    <circle cx="46.5" cy="46.5" r="1.5"/>
    <circle cx="61.5" cy="46.5" r="1.5"/>
    <circle cx="76.5" cy="46.5" r="1.5"/>
    <circle cx="91.5" cy="46.5" r="1.5"/>
    <circle cx="106.5" cy="46.5" r="1.5"/>
    <circle cx="121.5" cy="46.5" r="1.5"/>
    <circle cx="136.5" cy="46.5" r="1.5"/>
    <circle cx="151.5" cy="46.5" r="1.5"/>
    <circle cx="166.5" cy="46.5" r="1.5"/>
    <circle cx="181.5" cy="46.5" r="1.5"/>
    <circle cx="196.5" cy="46.5" r="1.5"/>
    <circle cx="211.5" cy="46.5" r="1.5"/>
    <circle cx="226.5" cy="46.5" r="1.5"/>
    <circle cx="241.5" cy="46.5" r="1.5"/>
    <circle cx="256.5" cy="46.5" r="1.5"/>
    <circle cx="271.5" cy="46.5" r="1.5"/>
    <circle cx="286.5" cy="46.5" r="1.5"/>
    <circle cx="301.5" cy="46.5" r="1.5"/>
    <circle cx="316.5" cy="46.5" r="1.5"/>
    <circle cx="331.5" cy="46.5" r="1.5"/>
    <circle cx="346.5" cy="46.5" r="1.5"/>
    <circle cx="361.5" cy="46.5" r="1.5"/>
    <circle cx="376.5" cy="46.5" r="1.5"/>
    <circle cx="391.5" cy="46.5" r="1.5"/>
    <circle cx="406.5" cy="46.5" r="1.5"/>
    <circle cx="421.5" cy="46.5" r="1.5"/>
    <circle cx="436.5" cy="46.5" r="1.5"/>
    <circle cx="451.5" cy="46.5" r="1.5"/>
    <circle cx="466.5" cy="46.5" r="1.5"/>
    <circle cx="481.5" cy="46.5" r="1.5"/>
    <circle cx="496.5" cy="46.5" r="1.5"/>
    <circle cx="511.5" cy="46.5" r="1.5"/>
    <circle cx="526.5" cy="46.5" r="1.5"/>
    <circle cx="541.5" cy="46.5" r="1.5"/>
  </g>
</svg>
