<svg width="34" height="34" viewBox="0 0 34 34" fill="none" xmlns="http://www.w3.org/2000/svg">
<rect width="34" height="34" rx="10" fill="#262626"/>
<path d="M7.64105 16.6252C12.5847 14.4261 15.8813 12.9763 17.5307 12.2758C22.2402 10.2758 23.2188 9.92836 23.8566 9.91677C23.9969 9.91437 24.3106 9.94986 24.5138 10.1182C24.6853 10.2603 24.7325 10.4523 24.7551 10.5871C24.7777 10.7219 24.8058 11.0288 24.7835 11.2687C24.5283 14.0066 23.424 20.6507 22.8622 23.7171C22.6245 25.0146 22.1564 25.4497 21.7032 25.4923C20.7184 25.5848 19.9706 24.8278 19.0168 24.1894C17.5243 23.1904 16.6811 22.5686 15.2323 21.5938C13.558 20.4673 14.6434 19.8481 15.5976 18.8362C15.8473 18.5714 20.1863 14.5417 20.2703 14.1762C20.2808 14.1305 20.2905 13.9601 20.1914 13.8701C20.0922 13.7801 19.9459 13.8109 19.8403 13.8353C19.6906 13.87 17.3062 15.4791 12.6872 18.6626C12.0104 19.1371 11.3974 19.3683 10.8481 19.3562C10.2426 19.3429 9.0779 19.0067 8.21204 18.7193C7.15003 18.3668 6.30596 18.1805 6.37946 17.5819C6.41774 17.2701 6.83827 16.9512 7.64105 16.6252Z" fill="white"/>
</svg>
