<svg width="34" height="34" viewBox="0 0 34 34" fill="none" xmlns="http://www.w3.org/2000/svg">
<rect width="34" height="34" rx="10" fill="#F3F4F6"/>
<path d="M5.6741 17.0147C5.44758 11.0508 10.6714 5.53945 16.6413 5.46795C19.6841 5.20843 22.6443 6.39001 24.9469 8.31715C24.0024 9.35572 23.0413 10.3823 22.0147 11.3434C19.9876 10.1118 17.5469 9.1732 15.1777 10.0068C11.3565 11.0948 9.04233 15.6066 10.4564 19.3449C11.6275 23.2492 16.3763 25.3918 20.0981 23.7517C22.0252 23.0617 23.2958 21.2835 23.8533 19.3729C21.6447 19.3289 19.4355 19.3564 17.2269 19.2954C17.2214 17.9813 17.2159 16.6722 17.2214 15.3581C20.9046 15.3526 24.5934 15.3416 28.2822 15.3746C28.5087 18.5944 28.0336 22.0401 25.9405 24.6243C23.0743 28.313 17.7789 29.3956 13.4711 27.9485C8.89932 26.4469 5.57459 21.8411 5.6741 17.0147Z" fill="#101828"/>
</svg>
