<svg width="34" height="34" viewBox="0 0 34 34" fill="none" xmlns="http://www.w3.org/2000/svg">
<rect width="34" height="34" rx="10" fill="#262626"/>
<path d="M12.6369 13.8742V23.9987H9.20003V13.8742H12.6369ZM12.8554 10.7485C12.856 10.7666 12.8567 10.7878 12.8567 10.8097C12.8567 11.2777 12.6541 11.6989 12.3305 11.9939L12.3292 11.9945C11.982 12.3057 11.5176 12.4963 11.0073 12.4963C10.9761 12.4963 10.9443 12.4957 10.913 12.4944H10.9175H10.8965C10.8704 12.4957 10.8398 12.4963 10.8092 12.4963C10.3098 12.4963 9.85619 12.3051 9.51919 11.9939L9.51983 11.9945C9.19876 11.6896 9 11.2634 9 10.7916C9 10.7766 9 10.7616 9.00064 10.746V10.7485C9 10.7353 9 10.7203 9 10.7053C9 10.2292 9.2064 9.80049 9.53575 9.49992L9.53703 9.49929C9.88358 9.18997 10.3467 9 10.8544 9C10.8837 9 10.9124 9.00062 10.9417 9.00187H10.9379C10.9653 9.00062 10.9965 9 11.029 9C11.5291 9 11.9846 9.18934 12.3247 9.49867L12.3235 9.49742C12.6515 9.80799 12.8554 10.2429 12.8554 10.7247V10.751V10.7497V10.7485ZM24.9987 18.1972V23.9987H21.5727V18.584C21.5759 18.5347 21.5772 18.4772 21.5772 18.4197C21.5772 17.8598 21.4185 17.3367 21.1427 16.8906L21.1503 16.9037C20.8783 16.5312 20.4388 16.2919 19.9425 16.2919C19.9043 16.2919 19.8661 16.2932 19.8278 16.2963H19.8329C19.8157 16.2957 19.796 16.295 19.7762 16.295C19.3813 16.295 19.0182 16.4281 18.7308 16.6512L18.7347 16.6487C18.4461 16.8781 18.2199 17.1711 18.0772 17.508L18.0721 17.5223C17.9982 17.7442 17.9562 17.9991 17.9562 18.2641C17.9562 18.2941 17.9568 18.3241 17.9581 18.3541V18.3497V24H14.5321C14.5461 21.2825 14.5531 19.0792 14.5531 17.3899C14.5531 15.7005 14.5497 14.6926 14.5429 14.366L14.5327 13.8754H17.9588V15.3464H17.9377C18.0741 15.1309 18.2148 14.944 18.3696 14.769L18.3645 14.7747C18.5436 14.5816 18.7359 14.4072 18.943 14.251L18.9532 14.2435C19.2105 14.0492 19.5125 13.8967 19.8399 13.8036L19.8591 13.7992C20.2018 13.6986 20.5961 13.6405 21.0038 13.6405H21.0541H21.0516C21.0968 13.6386 21.1497 13.6374 21.2026 13.6374C22.2735 13.6374 23.2379 14.0835 23.9138 14.7972L23.9157 14.7997C24.6386 15.5729 25 16.7052 25 18.1966L24.9987 18.1972Z" fill="white"/>
</svg>
