<svg width="20" height="20" viewBox="0 0 20 20" fill="none" xmlns="http://www.w3.org/2000/svg">
<rect width="20" height="20" rx="10" fill="#262626"/>
<g clip-path="url(#clip0_850_2915)">
<path d="M14.3463 4.75317C14.1412 4.75322 13.9392 4.80276 13.7574 4.89758C13.5756 4.99239 13.4194 5.12969 13.302 5.2978L11.0362 4.7784C11 4.77029 10.9629 4.76667 10.9257 4.76762C10.8328 4.76953 10.7427 4.8 10.6676 4.85488C10.5926 4.90977 10.5362 4.98641 10.5062 5.07442L9.66845 7.53448C8.32972 7.58725 7.06126 7.9572 6.08576 8.57938C5.84363 8.42884 5.56422 8.34899 5.2791 8.34888C5.07829 8.34885 4.87944 8.38839 4.69391 8.46523C4.50838 8.54206 4.33981 8.65469 4.19781 8.79669C4.05582 8.93868 3.94318 9.10726 3.86635 9.29279C3.78951 9.47832 3.74998 9.67717 3.75 9.87798C3.75004 10.1053 3.80077 10.3298 3.89851 10.535C3.99624 10.7403 4.13851 10.9211 4.31497 11.0645C4.30173 11.1713 4.29508 11.2784 4.29503 11.3855C4.29502 11.8921 4.44259 12.3938 4.7293 12.8618C5.01601 13.3299 5.43625 13.7551 5.96604 14.1134C6.49582 14.4716 7.12476 14.7558 7.81696 14.9496C8.50915 15.1435 9.25104 15.2433 10.0003 15.2433C10.7495 15.2433 11.4914 15.1435 12.1836 14.9496C12.8758 14.7558 13.5047 14.4716 14.0345 14.1134C14.5643 13.7551 14.9845 13.3299 15.2712 12.8618C15.5579 12.3938 15.7055 11.8921 15.7055 11.3855C15.7055 11.2784 15.6988 11.1713 15.6856 11.0645C15.862 10.9211 16.0043 10.7403 16.102 10.535C16.1998 10.3298 16.2505 10.1053 16.2505 9.87798C16.2506 9.67717 16.211 9.47832 16.1342 9.29279C16.0573 9.10726 15.9447 8.93868 15.8027 8.79669C15.6607 8.65469 15.4922 8.54206 15.3066 8.46523C15.1211 8.38839 14.9222 8.34885 14.7214 8.34888C14.4362 8.34896 14.1568 8.4288 13.9146 8.57938C13.0111 8.00323 11.8543 7.64215 10.6198 7.55096L11.2317 5.75311L13.0808 6.17628C13.1174 6.48625 13.2664 6.77204 13.4996 6.97942C13.7329 7.18681 14.0342 7.30135 14.3463 7.30133C14.6842 7.30136 15.0083 7.16715 15.2472 6.92823C15.4862 6.68932 15.6204 6.36526 15.6205 6.02736C15.6205 5.86003 15.5875 5.69433 15.5235 5.53973C15.4595 5.38514 15.3656 5.24467 15.2473 5.12635C15.129 5.00803 14.9885 4.91417 14.8339 4.85014C14.6793 4.78611 14.5136 4.75316 14.3463 4.75317ZM8.00568 9.83587C8.00934 9.83584 8.01301 9.83584 8.01667 9.83587C8.1245 9.83586 8.23127 9.8571 8.3309 9.89836C8.43052 9.93963 8.52104 10.0001 8.59729 10.0764C8.67353 10.1526 8.73402 10.2431 8.77528 10.3427C8.81654 10.4424 8.83778 10.5491 8.83778 10.657C8.83778 10.7648 8.81654 10.8716 8.77528 10.9712C8.73402 11.0708 8.67353 11.1613 8.59729 11.2376C8.52104 11.3138 8.43052 11.3743 8.3309 11.4156C8.23127 11.4568 8.1245 11.4781 8.01667 11.4781C7.90884 11.4781 7.80206 11.4568 7.70244 11.4156C7.60282 11.3743 7.5123 11.3138 7.43605 11.2376C7.3598 11.1613 7.29932 11.0708 7.25806 10.9712C7.21679 10.8716 7.19556 10.7648 7.19556 10.657C7.19554 10.4411 7.28053 10.2339 7.43215 10.0802C7.58378 9.92653 7.78982 9.83875 8.00568 9.83587ZM11.9729 9.83587C11.9765 9.83584 11.9802 9.83584 11.9839 9.83587C12.0917 9.83586 12.1985 9.8571 12.2981 9.89836C12.3977 9.93963 12.4882 10.0001 12.5645 10.0764C12.6407 10.1526 12.7012 10.2431 12.7425 10.3427C12.7837 10.4424 12.805 10.5491 12.805 10.657C12.805 10.7648 12.7837 10.8716 12.7425 10.9712C12.7012 11.0708 12.6407 11.1613 12.5645 11.2376C12.4882 11.3138 12.3977 11.3743 12.2981 11.4156C12.1985 11.4568 12.0917 11.4781 11.9839 11.4781C11.876 11.4781 11.7693 11.4568 11.6696 11.4156C11.57 11.3743 11.4795 11.3138 11.4032 11.2376C11.327 11.1613 11.2665 11.0708 11.2253 10.9712C11.184 10.8716 11.1628 10.7648 11.1628 10.657C11.1627 10.4411 11.2477 10.2339 11.3993 10.0802C11.551 9.92653 11.757 9.83875 11.9729 9.83587ZM8.15094 12.3246C8.24444 12.3259 8.33526 12.356 8.41095 12.4109C8.41095 12.4109 9.78346 13.4673 11.6565 12.3859C11.7605 12.3259 11.8841 12.3097 12 12.3407C12.116 12.3718 12.2149 12.4476 12.275 12.5515C12.335 12.6555 12.3513 12.779 12.3203 12.895C12.2893 13.011 12.2135 13.11 12.1096 13.1701C9.82887 14.4869 7.88016 13.1449 7.88016 13.1449C7.78292 13.0746 7.71756 12.9686 7.69841 12.8501C7.67926 12.7316 7.7079 12.6104 7.77803 12.513C7.8187 12.4565 7.87185 12.4101 7.93335 12.3775C7.99485 12.3449 8.06304 12.3268 8.13263 12.3248C8.13873 12.3246 8.14484 12.3246 8.15094 12.3246Z" fill="white"/>
</g>
<defs>
<clipPath id="clip0_850_2915">
<rect width="13.3333" height="13.3333" fill="white" transform="translate(3.33594 3.33325)"/>
</clipPath>
</defs>
</svg>
