<svg width="20" height="20" viewBox="0 0 20 20" fill="none" xmlns="http://www.w3.org/2000/svg">
<rect x="0.00195312" width="20" height="20" rx="10" fill="#262626"/>
<g clip-path="url(#clip0_850_3222)">
<path d="M14.3482 4.75317C14.1432 4.75322 13.9412 4.80276 13.7594 4.89758C13.5776 4.99239 13.4213 5.12969 13.3039 5.2978L11.0382 4.7784C11.0019 4.77029 10.9648 4.76667 10.9277 4.76762C10.8347 4.76953 10.7446 4.8 10.6696 4.85488C10.5945 4.90977 10.5382 4.98641 10.5082 5.07442L9.6704 7.53448C8.33167 7.58725 7.06322 7.9572 6.08772 8.57938C5.84558 8.42884 5.56617 8.34899 5.28105 8.34888C5.08024 8.34885 4.88139 8.38839 4.69586 8.46523C4.51033 8.54206 4.34176 8.65469 4.19976 8.79669C4.05777 8.93868 3.94514 9.10726 3.8683 9.29279C3.79146 9.47832 3.75193 9.67717 3.75195 9.87798C3.75199 10.1053 3.80272 10.3298 3.90046 10.535C3.99819 10.7403 4.14047 10.9211 4.31692 11.0645C4.30369 11.1713 4.29703 11.2784 4.29698 11.3855C4.29697 11.8921 4.44454 12.3938 4.73125 12.8618C5.01796 13.3299 5.43821 13.7551 5.96799 14.1134C6.49777 14.4716 7.12672 14.7558 7.81891 14.9496C8.51111 15.1435 9.253 15.2433 10.0022 15.2433C10.7514 15.2433 11.4933 15.1435 12.1855 14.9496C12.8777 14.7558 13.5067 14.4716 14.0365 14.1134C14.5662 13.7551 14.9865 13.3299 15.2732 12.8618C15.5599 12.3938 15.7075 11.8921 15.7075 11.3855C15.7074 11.2784 15.7008 11.1713 15.6875 11.0645C15.864 10.9211 16.0062 10.7403 16.104 10.535C16.2017 10.3298 16.2524 10.1053 16.2525 9.87798C16.2525 9.67717 16.213 9.47832 16.1361 9.29279C16.0593 9.10726 15.9467 8.93868 15.8047 8.79669C15.6627 8.65469 15.4941 8.54206 15.3086 8.46523C15.123 8.38839 14.9242 8.34885 14.7234 8.34888C14.4382 8.34896 14.1587 8.4288 13.9165 8.57938C13.0131 8.00323 11.8562 7.64215 10.6217 7.55096L11.2337 5.75311L13.0828 6.17628C13.1193 6.48625 13.2683 6.77204 13.5016 6.97942C13.7348 7.18681 14.0361 7.30135 14.3482 7.30133C14.6861 7.30136 15.0102 7.16715 15.2492 6.92823C15.4881 6.68932 15.6224 6.36526 15.6224 6.02736C15.6224 5.86003 15.5895 5.69433 15.5254 5.53973C15.4614 5.38514 15.3676 5.24467 15.2492 5.12635C15.1309 5.00803 14.9904 4.91417 14.8359 4.85014C14.6813 4.78611 14.5156 4.75316 14.3482 4.75317ZM8.00764 9.83587C8.0113 9.83584 8.01496 9.83584 8.01862 9.83587C8.12645 9.83586 8.23323 9.8571 8.33285 9.89836C8.43247 9.93963 8.52299 10.0001 8.59924 10.0764C8.67549 10.1526 8.73597 10.2431 8.77723 10.3427C8.8185 10.4424 8.83973 10.5491 8.83973 10.657C8.83973 10.7648 8.8185 10.8716 8.77723 10.9712C8.73597 11.0708 8.67549 11.1613 8.59924 11.2376C8.52299 11.3138 8.43247 11.3743 8.33285 11.4156C8.23323 11.4568 8.12645 11.4781 8.01862 11.4781C7.91079 11.4781 7.80402 11.4568 7.70439 11.4156C7.60477 11.3743 7.51425 11.3138 7.438 11.2376C7.36176 11.1613 7.30127 11.0708 7.26001 10.9712C7.21875 10.8716 7.19751 10.7648 7.19751 10.657C7.19749 10.4411 7.28249 10.2339 7.43411 10.0802C7.58573 9.92653 7.79177 9.83875 8.00764 9.83587ZM11.9748 9.83587C11.9785 9.83584 11.9822 9.83584 11.9858 9.83587C12.0936 9.83586 12.2004 9.8571 12.3 9.89836C12.3997 9.93963 12.4902 10.0001 12.5664 10.0764C12.6427 10.1526 12.7032 10.2431 12.7444 10.3427C12.7857 10.4424 12.8069 10.5491 12.8069 10.657C12.8069 10.7648 12.7857 10.8716 12.7444 10.9712C12.7032 11.0708 12.6427 11.1613 12.5664 11.2376C12.4902 11.3138 12.3997 11.3743 12.3 11.4156C12.2004 11.4568 12.0936 11.4781 11.9858 11.4781C11.878 11.4781 11.7712 11.4568 11.6716 11.4156C11.572 11.3743 11.4814 11.3138 11.4052 11.2376C11.329 11.1613 11.2685 11.0708 11.2272 10.9712C11.1859 10.8716 11.1647 10.7648 11.1647 10.657C11.1647 10.4411 11.2497 10.2339 11.4013 10.0802C11.5529 9.92653 11.759 9.83875 11.9748 9.83587ZM8.1529 12.3246C8.24639 12.3259 8.33721 12.356 8.4129 12.4109C8.4129 12.4109 9.78541 13.4673 11.6585 12.3859C11.7625 12.3259 11.886 12.3097 12.002 12.3407C12.1179 12.3718 12.2168 12.4476 12.2769 12.5515C12.337 12.6555 12.3533 12.779 12.3223 12.895C12.2913 13.011 12.2155 13.11 12.1115 13.1701C9.83082 14.4869 7.88211 13.1449 7.88211 13.1449C7.78487 13.0746 7.71951 12.9686 7.70036 12.8501C7.68122 12.7316 7.70985 12.6104 7.77998 12.513C7.82065 12.4565 7.8738 12.4101 7.9353 12.3775C7.9968 12.3449 8.06499 12.3268 8.13459 12.3248C8.14069 12.3246 8.14679 12.3246 8.1529 12.3246Z" fill="white"/>
</g>
<defs>
<clipPath id="clip0_850_3222">
<rect width="13.3333" height="13.3333" fill="white" transform="translate(3.33594 3.33325)"/>
</clipPath>
</defs>
</svg>
