<svg width="328" height="264" viewBox="0 0 328 264" fill="none" xmlns="http://www.w3.org/2000/svg">
<g clip-path="url(#clip0_699_8551)">
<path d="M30.7188 232.58H225.155" stroke="#E5E7EB" stroke-width="0.87766" stroke-dasharray="2.63 2.63"/>
<path d="M30.7188 61.4365H322.102" stroke="#E5E7EB" stroke-width="0.87766" stroke-dasharray="2.63 2.63"/>
<path d="M30.7188 118.484H322.102" stroke="#E5E7EB" stroke-width="0.87766" stroke-dasharray="2.63 2.63"/>
<path d="M30.7188 175.532H322.102" stroke="#E5E7EB" stroke-width="0.87766" stroke-dasharray="2.63 2.63"/>
<path d="M30.7188 4.38867H322.102" stroke="#E5E7EB" stroke-width="0.87766" stroke-dasharray="2.63 2.63"/>
<path d="M30.7188 4.38867V232.58" stroke="#E5E7EB" stroke-width="0.87766" stroke-dasharray="2.63 2.63"/>
<path d="M79.2827 4.38876V232.58" stroke="#E5E7EB" stroke-width="0.87766" stroke-dasharray="2.63 2.63"/>
<path d="M127.846 4.38867V232.58" stroke="#E5E7EB" stroke-width="0.87766" stroke-dasharray="2.63 2.63"/>
<path d="M176.41 4.38867V232.58" stroke="#E5E7EB" stroke-width="0.87766" stroke-dasharray="2.63 2.63"/>
<path d="M224.974 4.38876V232.58" stroke="#E5E7EB" stroke-width="0.87766" stroke-dasharray="2.63 2.63"/>
<path d="M273.538 4.38867V232.58" stroke="#E5E7EB" stroke-width="0.87766" stroke-dasharray="2.63 2.63"/>
<path d="M322.102 4.38867V232.58" stroke="#E5E7EB" stroke-width="0.87766" stroke-dasharray="2.63 2.63"/>
<path d="M24.5742 232.58H322.101" stroke="#495057" stroke-width="0.87766"/>
<path d="M24.8848 237.846V232.58" stroke="#495057" stroke-width="0.87766"/>
<path d="M15.9599 245.845C15.4903 245.845 15.0904 245.717 14.76 245.462C14.4296 245.204 14.1772 244.831 14.0026 244.343C13.8281 243.852 13.7408 243.26 13.7408 242.566C13.7408 241.876 13.8281 241.287 14.0026 240.799C14.1793 240.309 14.4328 239.935 14.7631 239.677C15.0956 239.417 15.4945 239.288 15.9599 239.288C16.4254 239.288 16.8233 239.417 17.1536 239.677C17.4861 239.935 17.7396 240.309 17.9141 240.799C18.0907 241.287 18.179 241.876 18.179 242.566C18.179 243.26 18.0917 243.852 17.9172 244.343C17.7427 244.831 17.4902 245.204 17.1599 245.462C16.8295 245.717 16.4295 245.845 15.9599 245.845ZM15.9599 245.159C16.4254 245.159 16.7869 244.935 17.0445 244.486C17.3022 244.037 17.431 243.397 17.431 242.566C17.431 242.014 17.3718 241.543 17.2534 241.154C17.137 240.766 16.9687 240.47 16.7485 240.266C16.5303 240.063 16.2674 239.961 15.9599 239.961C15.4987 239.961 15.1382 240.188 14.8784 240.643C14.6187 241.096 14.4889 241.737 14.4889 242.566C14.4889 243.119 14.547 243.589 14.6634 243.975C14.7797 244.362 14.947 244.656 15.1652 244.857C15.3854 245.059 15.6503 245.159 15.9599 245.159ZM21.4453 245.845C20.9757 245.845 20.5757 245.717 20.2454 245.462C19.915 245.204 19.6626 244.831 19.488 244.343C19.3135 243.852 19.2262 243.26 19.2262 242.566C19.2262 241.876 19.3135 241.287 19.488 240.799C19.6646 240.309 19.9181 239.935 20.2485 239.677C20.5809 239.417 20.9799 239.288 21.4453 239.288C21.9107 239.288 22.3086 239.417 22.639 239.677C22.9714 239.935 23.2249 240.309 23.3995 240.799C23.5761 241.287 23.6644 241.876 23.6644 242.566C23.6644 243.26 23.5771 243.852 23.4026 244.343C23.228 244.831 22.9756 245.204 22.6452 245.462C22.3149 245.717 21.9149 245.845 21.4453 245.845ZM21.4453 245.159C21.9107 245.159 22.2723 244.935 22.5299 244.486C22.7876 244.037 22.9164 243.397 22.9164 242.566C22.9164 242.014 22.8572 241.543 22.7387 241.154C22.6224 240.766 22.4541 240.47 22.2338 240.266C22.0157 240.063 21.7528 239.961 21.4453 239.961C20.984 239.961 20.6235 240.188 20.3638 240.643C20.1041 241.096 19.9742 241.737 19.9742 242.566C19.9742 243.119 20.0324 243.589 20.1488 243.975C20.2651 244.362 20.4324 244.656 20.6505 244.857C20.8708 245.059 21.1357 245.159 21.4453 245.159ZM25.3973 244.941C25.2435 244.941 25.1116 244.886 25.0014 244.776C24.8913 244.666 24.8363 244.534 24.8363 244.38C24.8363 244.226 24.8913 244.095 25.0014 243.984C25.1116 243.874 25.2435 243.819 25.3973 243.819C25.551 243.819 25.683 243.874 25.7931 243.984C25.9032 244.095 25.9583 244.226 25.9583 244.38C25.9583 244.482 25.9323 244.576 25.8804 244.661C25.8305 244.746 25.763 244.814 25.6778 244.866C25.5947 244.916 25.5012 244.941 25.3973 244.941ZM25.3973 241.712C25.2435 241.712 25.1116 241.657 25.0014 241.547C24.8913 241.437 24.8363 241.305 24.8363 241.151C24.8363 240.998 24.8913 240.866 25.0014 240.756C25.1116 240.645 25.2435 240.59 25.3973 240.59C25.551 240.59 25.683 240.645 25.7931 240.756C25.9032 240.866 25.9583 240.998 25.9583 241.151C25.9583 241.253 25.9323 241.347 25.8804 241.432C25.8305 241.517 25.763 241.586 25.6778 241.638C25.5947 241.687 25.5012 241.712 25.3973 241.712ZM29.3477 245.845C28.8781 245.845 28.4781 245.717 28.1477 245.462C27.8174 245.204 27.5649 244.831 27.3904 244.343C27.2159 243.852 27.1286 243.26 27.1286 242.566C27.1286 241.876 27.2159 241.287 27.3904 240.799C27.567 240.309 27.8205 239.935 28.1509 239.677C28.4833 239.417 28.8822 239.288 29.3477 239.288C29.8131 239.288 30.211 239.417 30.5414 239.677C30.8738 239.935 31.1273 240.309 31.3018 240.799C31.4784 241.287 31.5667 241.876 31.5667 242.566C31.5667 243.26 31.4795 243.852 31.3049 244.343C31.1304 244.831 30.878 245.204 30.5476 245.462C30.2172 245.717 29.8172 245.845 29.3477 245.845ZM29.3477 245.159C29.8131 245.159 30.1746 244.935 30.4323 244.486C30.6899 244.037 30.8187 243.397 30.8187 242.566C30.8187 242.014 30.7595 241.543 30.6411 241.154C30.5247 240.766 30.3564 240.47 30.1362 240.266C29.918 240.063 29.6552 239.961 29.3477 239.961C28.8864 239.961 28.5259 240.188 28.2662 240.643C28.0065 241.096 27.8766 241.737 27.8766 242.566C27.8766 243.119 27.9348 243.589 28.0511 243.975C28.1675 244.362 28.3347 244.656 28.5529 244.857C28.7732 245.059 29.0381 245.159 29.3477 245.159ZM34.833 245.845C34.3635 245.845 33.9635 245.717 33.6331 245.462C33.3027 245.204 33.0503 244.831 32.8758 244.343C32.7012 243.852 32.614 243.26 32.614 242.566C32.614 241.876 32.7012 241.287 32.8758 240.799C33.0524 240.309 33.3059 239.935 33.6362 239.677C33.9687 239.417 34.3676 239.288 34.833 239.288C35.2985 239.288 35.6964 239.417 36.0267 239.677C36.3592 239.935 36.6127 240.309 36.7872 240.799C36.9638 241.287 37.0521 241.876 37.0521 242.566C37.0521 243.26 36.9649 243.852 36.7903 244.343C36.6158 244.831 36.3633 245.204 36.033 245.462C35.7026 245.717 35.3026 245.845 34.833 245.845ZM34.833 245.159C35.2985 245.159 35.66 244.935 35.9176 244.486C36.1753 244.037 36.3041 243.397 36.3041 242.566C36.3041 242.014 36.2449 241.543 36.1265 241.154C36.0101 240.766 35.8418 240.47 35.6216 240.266C35.4034 240.063 35.1406 239.961 34.833 239.961C34.3718 239.961 34.0113 240.188 33.7515 240.643C33.4918 241.096 33.362 241.737 33.362 242.566C33.362 243.119 33.4201 243.589 33.5365 243.975C33.6529 244.362 33.8201 244.656 34.0383 244.857C34.2585 245.059 34.5234 245.159 34.833 245.159Z" fill="#495057"/>
<path d="M305.446 245.758V245.197L307.553 242.89C307.8 242.62 308.003 242.386 308.163 242.186C308.323 241.985 308.442 241.795 308.519 241.619C308.598 241.44 308.637 241.253 308.637 241.058C308.637 240.833 308.583 240.639 308.475 240.475C308.369 240.311 308.224 240.184 308.039 240.095C307.854 240.005 307.646 239.961 307.415 239.961C307.17 239.961 306.956 240.012 306.773 240.113C306.593 240.213 306.452 240.353 306.353 240.534C306.255 240.715 306.206 240.927 306.206 241.17H305.471C305.471 240.796 305.557 240.468 305.729 240.185C305.902 239.903 306.137 239.682 306.434 239.524C306.733 239.367 307.068 239.288 307.44 239.288C307.814 239.288 308.146 239.367 308.435 239.524C308.723 239.682 308.95 239.895 309.114 240.163C309.278 240.431 309.36 240.73 309.36 241.058C309.36 241.293 309.318 241.522 309.233 241.747C309.149 241.969 309.004 242.217 308.796 242.492C308.59 242.764 308.305 243.096 307.939 243.489L306.505 245.022V245.072H309.472V245.758H305.446ZM310.473 244.449V243.813L313.278 239.375H313.739V240.36H313.428L311.308 243.713V243.763H315.086V244.449H310.473ZM313.477 245.758V244.256V243.959V239.375H314.213V245.758H313.477ZM316.802 244.941C316.648 244.941 316.516 244.886 316.406 244.776C316.296 244.666 316.241 244.534 316.241 244.38C316.241 244.226 316.296 244.095 316.406 243.984C316.516 243.874 316.648 243.819 316.802 243.819C316.956 243.819 317.088 243.874 317.198 243.984C317.308 244.095 317.363 244.226 317.363 244.38C317.363 244.482 317.337 244.576 317.285 244.661C317.235 244.746 317.168 244.814 317.083 244.866C317 244.916 316.906 244.941 316.802 244.941ZM316.802 241.712C316.648 241.712 316.516 241.657 316.406 241.547C316.296 241.437 316.241 241.305 316.241 241.151C316.241 240.998 316.296 240.866 316.406 240.756C316.516 240.645 316.648 240.59 316.802 240.59C316.956 240.59 317.088 240.645 317.198 240.756C317.308 240.866 317.363 240.998 317.363 241.151C317.363 241.253 317.337 241.347 317.285 241.432C317.235 241.517 317.168 241.586 317.083 241.638C317 241.687 316.906 241.712 316.802 241.712ZM320.753 245.845C320.283 245.845 319.883 245.717 319.553 245.462C319.222 245.204 318.97 244.831 318.795 244.343C318.621 243.852 318.533 243.26 318.533 242.566C318.533 241.876 318.621 241.287 318.795 240.799C318.972 240.309 319.225 239.935 319.556 239.677C319.888 239.417 320.287 239.288 320.753 239.288C321.218 239.288 321.616 239.417 321.946 239.677C322.279 239.935 322.532 240.309 322.707 240.799C322.883 241.287 322.972 241.876 322.972 242.566C322.972 243.26 322.884 243.852 322.71 244.343C322.535 244.831 322.283 245.204 321.952 245.462C321.622 245.717 321.222 245.845 320.753 245.845ZM320.753 245.159C321.218 245.159 321.58 244.935 321.837 244.486C322.095 244.037 322.224 243.397 322.224 242.566C322.224 242.014 322.164 241.543 322.046 241.154C321.93 240.766 321.761 240.47 321.541 240.266C321.323 240.063 321.06 239.961 320.753 239.961C320.291 239.961 319.931 240.188 319.671 240.643C319.411 241.096 319.281 241.737 319.281 242.566C319.281 243.119 319.34 243.589 319.456 243.975C319.572 244.362 319.74 244.656 319.958 244.857C320.178 245.059 320.443 245.159 320.753 245.159ZM326.238 245.845C325.768 245.845 325.368 245.717 325.038 245.462C324.708 245.204 324.455 244.831 324.281 244.343C324.106 243.852 324.019 243.26 324.019 242.566C324.019 241.876 324.106 241.287 324.281 240.799C324.457 240.309 324.711 239.935 325.041 239.677C325.374 239.417 325.773 239.288 326.238 239.288C326.703 239.288 327.101 239.417 327.432 239.677C327.764 239.935 328.018 240.309 328.192 240.799C328.369 241.287 328.457 241.876 328.457 242.566C328.457 243.26 328.37 243.852 328.195 244.343C328.021 244.831 327.768 245.204 327.438 245.462C327.108 245.717 326.708 245.845 326.238 245.845ZM326.238 245.159C326.703 245.159 327.065 244.935 327.323 244.486C327.58 244.037 327.709 243.397 327.709 242.566C327.709 242.014 327.65 241.543 327.531 241.154C327.415 240.766 327.247 240.47 327.026 240.266C326.808 240.063 326.545 239.961 326.238 239.961C325.777 239.961 325.416 240.188 325.156 240.643C324.897 241.096 324.767 241.737 324.767 242.566C324.767 243.119 324.825 243.589 324.941 243.975C325.058 244.362 325.225 244.656 325.443 244.857C325.663 245.059 325.928 245.159 326.238 245.159Z" fill="#495057"/>
<path d="M79.8672 237.846V232.58" stroke="#495057" stroke-width="0.87766"/>
<path d="M70.5707 245.634C70.1011 245.634 69.7011 245.506 69.3707 245.251C69.0404 244.993 68.7879 244.62 68.6134 244.132C68.4389 243.642 68.3516 243.049 68.3516 242.355C68.3516 241.666 68.4389 241.077 68.6134 240.588C68.79 240.098 69.0435 239.724 69.3739 239.466C69.7063 239.206 70.1052 239.077 70.5707 239.077C71.0361 239.077 71.434 239.206 71.7644 239.466C72.0968 239.724 72.3503 240.098 72.5248 240.588C72.7014 241.077 72.7898 241.666 72.7898 242.355C72.7898 243.049 72.7025 243.642 72.528 244.132C72.3534 244.62 72.101 244.993 71.7706 245.251C71.4402 245.506 71.0403 245.634 70.5707 245.634ZM70.5707 244.948C71.0361 244.948 71.3976 244.724 71.6553 244.275C71.9129 243.826 72.0417 243.187 72.0417 242.355C72.0417 241.803 71.9825 241.332 71.8641 240.944C71.7477 240.555 71.5794 240.259 71.3592 240.055C71.141 239.852 70.8782 239.75 70.5707 239.75C70.1094 239.75 69.7489 239.977 69.4892 240.432C69.2295 240.885 69.0996 241.526 69.0996 242.355C69.0996 242.908 69.1578 243.378 69.2741 243.764C69.3905 244.151 69.5577 244.445 69.7759 244.646C69.9962 244.848 70.2611 244.948 70.5707 244.948ZM73.8245 244.238V243.602L76.6295 239.164H77.0908V240.149H76.7791L74.6598 243.502V243.552H78.4372V244.238H73.8245ZM76.829 245.547V244.045V243.749V239.164H77.5645V245.547H76.829ZM80.1537 244.73C80 244.73 79.868 244.675 79.7579 244.565C79.6478 244.455 79.5927 244.323 79.5927 244.169C79.5927 244.016 79.6478 243.884 79.7579 243.773C79.868 243.663 80 243.608 80.1537 243.608C80.3075 243.608 80.4394 243.663 80.5495 243.773C80.6597 243.884 80.7147 244.016 80.7147 244.169C80.7147 244.271 80.6887 244.365 80.6368 244.45C80.5869 244.535 80.5194 244.604 80.4342 244.656C80.3511 244.705 80.2576 244.73 80.1537 244.73ZM80.1537 241.501C80 241.501 79.868 241.446 79.7579 241.336C79.6478 241.226 79.5927 241.094 79.5927 240.94C79.5927 240.787 79.6478 240.655 79.7579 240.545C79.868 240.434 80 240.379 80.1537 240.379C80.3075 240.379 80.4394 240.434 80.5495 240.545C80.6597 240.655 80.7147 240.787 80.7147 240.94C80.7147 241.042 80.6887 241.136 80.6368 241.221C80.5869 241.306 80.5194 241.375 80.4342 241.427C80.3511 241.476 80.2576 241.501 80.1537 241.501ZM84.1041 245.634C83.6345 245.634 83.2346 245.506 82.9042 245.251C82.5738 244.993 82.3214 244.62 82.1468 244.132C81.9723 243.642 81.885 243.049 81.885 242.355C81.885 241.666 81.9723 241.077 82.1468 240.588C82.3234 240.098 82.5769 239.724 82.9073 239.466C83.2398 239.206 83.6387 239.077 84.1041 239.077C84.5695 239.077 84.9674 239.206 85.2978 239.466C85.6303 239.724 85.8837 240.098 86.0583 240.588C86.2349 241.077 86.3232 241.666 86.3232 242.355C86.3232 243.049 86.2359 243.642 86.0614 244.132C85.8869 244.62 85.6344 244.993 85.304 245.251C84.9737 245.506 84.5737 245.634 84.1041 245.634ZM84.1041 244.948C84.5695 244.948 84.9311 244.724 85.1887 244.275C85.4464 243.826 85.5752 243.187 85.5752 242.355C85.5752 241.803 85.516 241.332 85.3975 240.944C85.2812 240.555 85.1129 240.259 84.8926 240.055C84.6745 239.852 84.4116 239.75 84.1041 239.75C83.6428 239.75 83.2823 239.977 83.0226 240.432C82.7629 240.885 82.633 241.526 82.633 242.355C82.633 242.908 82.6912 243.378 82.8076 243.764C82.9239 244.151 83.0912 244.445 83.3094 244.646C83.5296 244.848 83.7945 244.948 84.1041 244.948ZM89.5895 245.634C89.1199 245.634 88.7199 245.506 88.3896 245.251C88.0592 244.993 87.8067 244.62 87.6322 244.132C87.4577 243.642 87.3704 243.049 87.3704 242.355C87.3704 241.666 87.4577 241.077 87.6322 240.588C87.8088 240.098 88.0623 239.724 88.3927 239.466C88.7251 239.206 89.1241 239.077 89.5895 239.077C90.0549 239.077 90.4528 239.206 90.7832 239.466C91.1156 239.724 91.3691 240.098 91.5436 240.588C91.7203 241.077 91.8086 241.666 91.8086 242.355C91.8086 243.049 91.7213 243.642 91.5468 244.132C91.3722 244.62 91.1198 244.993 90.7894 245.251C90.459 245.506 90.0591 245.634 89.5895 245.634ZM89.5895 244.948C90.0549 244.948 90.4164 244.724 90.6741 244.275C90.9317 243.826 91.0606 243.187 91.0606 242.355C91.0606 241.803 91.0013 241.332 90.8829 240.944C90.7666 240.555 90.5983 240.259 90.378 240.055C90.1598 239.852 89.897 239.75 89.5895 239.75C89.1282 239.75 88.7677 239.977 88.508 240.432C88.2483 240.885 88.1184 241.526 88.1184 242.355C88.1184 242.908 88.1766 243.378 88.2929 243.764C88.4093 244.151 88.5766 244.445 88.7947 244.646C89.015 244.848 89.2799 244.948 89.5895 244.948Z" fill="#495057"/>
<path d="M127.48 237.846V232.58" stroke="#495057" stroke-width="0.87766"/>
<path d="M118.295 245.634C117.826 245.634 117.426 245.506 117.095 245.251C116.765 244.993 116.513 244.62 116.338 244.132C116.164 243.642 116.076 243.049 116.076 242.355C116.076 241.666 116.164 241.077 116.338 240.588C116.515 240.098 116.768 239.724 117.099 239.466C117.431 239.206 117.83 239.077 118.295 239.077C118.761 239.077 119.159 239.206 119.489 239.466C119.822 239.724 120.075 240.098 120.25 240.588C120.426 241.077 120.514 241.666 120.514 242.355C120.514 243.049 120.427 243.642 120.253 244.132C120.078 244.62 119.826 244.993 119.495 245.251C119.165 245.506 118.765 245.634 118.295 245.634ZM118.295 244.948C118.761 244.948 119.122 244.724 119.38 244.275C119.638 243.826 119.766 243.187 119.766 242.355C119.766 241.803 119.707 241.332 119.589 240.944C119.472 240.555 119.304 240.259 119.084 240.055C118.866 239.852 118.603 239.75 118.295 239.75C117.834 239.75 117.474 239.977 117.214 240.432C116.954 240.885 116.824 241.526 116.824 242.355C116.824 242.908 116.882 243.378 116.999 243.764C117.115 244.151 117.282 244.445 117.501 244.646C117.721 244.848 117.986 244.948 118.295 244.948ZM123.743 245.634C123.315 245.634 122.937 245.558 122.609 245.407C122.283 245.253 122.028 245.042 121.845 244.774C121.662 244.504 121.572 244.196 121.574 243.851C121.572 243.581 121.625 243.332 121.733 243.103C121.841 242.873 121.989 242.681 122.176 242.527C122.365 242.371 122.576 242.272 122.808 242.231V242.193C122.503 242.114 122.26 241.943 122.079 241.679C121.898 241.413 121.809 241.111 121.811 240.772C121.809 240.448 121.891 240.158 122.057 239.903C122.223 239.647 122.452 239.445 122.743 239.298C123.036 239.15 123.369 239.077 123.743 239.077C124.113 239.077 124.444 239.15 124.734 239.298C125.025 239.445 125.254 239.647 125.42 239.903C125.588 240.158 125.674 240.448 125.676 240.772C125.674 241.111 125.581 241.413 125.398 241.679C125.218 241.943 124.978 242.114 124.678 242.193V242.231C124.909 242.272 125.117 242.371 125.302 242.527C125.487 242.681 125.634 242.873 125.744 243.103C125.854 243.332 125.91 243.581 125.913 243.851C125.91 244.196 125.817 244.504 125.632 244.774C125.449 245.042 125.195 245.253 124.868 245.407C124.544 245.558 124.169 245.634 123.743 245.634ZM123.743 244.948C124.032 244.948 124.281 244.902 124.491 244.808C124.701 244.715 124.863 244.583 124.978 244.412C125.092 244.242 125.15 244.043 125.152 243.814C125.15 243.573 125.088 243.36 124.965 243.175C124.842 242.99 124.675 242.845 124.463 242.739C124.253 242.633 124.013 242.58 123.743 242.58C123.471 242.58 123.228 242.633 123.014 242.739C122.802 242.845 122.635 242.99 122.512 243.175C122.392 243.36 122.333 243.573 122.335 243.814C122.333 244.043 122.388 244.242 122.5 244.412C122.614 244.583 122.777 244.715 122.989 244.808C123.201 244.902 123.452 244.948 123.743 244.948ZM123.743 241.919C123.972 241.919 124.174 241.873 124.351 241.782C124.53 241.69 124.67 241.563 124.772 241.399C124.874 241.234 124.926 241.042 124.928 240.822C124.926 240.606 124.875 240.418 124.775 240.258C124.675 240.096 124.537 239.971 124.36 239.884C124.184 239.795 123.978 239.75 123.743 239.75C123.504 239.75 123.296 239.795 123.117 239.884C122.938 239.971 122.8 240.096 122.702 240.258C122.605 240.418 122.557 240.606 122.559 240.822C122.557 241.042 122.606 241.234 122.705 241.399C122.807 241.563 122.948 241.69 123.126 241.782C123.305 241.873 123.511 241.919 123.743 241.919ZM127.656 244.73C127.502 244.73 127.37 244.675 127.26 244.565C127.15 244.455 127.095 244.323 127.095 244.169C127.095 244.016 127.15 243.884 127.26 243.773C127.37 243.663 127.502 243.608 127.656 243.608C127.809 243.608 127.941 243.663 128.051 243.773C128.162 243.884 128.217 244.016 128.217 244.169C128.217 244.271 128.191 244.365 128.139 244.45C128.089 244.535 128.021 244.604 127.936 244.656C127.853 244.705 127.759 244.73 127.656 244.73ZM127.656 241.501C127.502 241.501 127.37 241.446 127.26 241.336C127.15 241.226 127.095 241.094 127.095 240.94C127.095 240.787 127.15 240.655 127.26 240.545C127.37 240.434 127.502 240.379 127.656 240.379C127.809 240.379 127.941 240.434 128.051 240.545C128.162 240.655 128.217 240.787 128.217 240.94C128.217 241.042 128.191 241.136 128.139 241.221C128.089 241.306 128.021 241.375 127.936 241.427C127.853 241.476 127.759 241.501 127.656 241.501ZM131.606 245.634C131.136 245.634 130.736 245.506 130.406 245.251C130.076 244.993 129.823 244.62 129.649 244.132C129.474 243.642 129.387 243.049 129.387 242.355C129.387 241.666 129.474 241.077 129.649 240.588C129.825 240.098 130.079 239.724 130.409 239.466C130.742 239.206 131.141 239.077 131.606 239.077C132.071 239.077 132.469 239.206 132.8 239.466C133.132 239.724 133.386 240.098 133.56 240.588C133.737 241.077 133.825 241.666 133.825 242.355C133.825 243.049 133.738 243.642 133.563 244.132C133.389 244.62 133.136 244.993 132.806 245.251C132.476 245.506 132.076 245.634 131.606 245.634ZM131.606 244.948C132.071 244.948 132.433 244.724 132.691 244.275C132.948 243.826 133.077 243.187 133.077 242.355C133.077 241.803 133.018 241.332 132.899 240.944C132.783 240.555 132.615 240.259 132.394 240.055C132.176 239.852 131.913 239.75 131.606 239.75C131.145 239.75 130.784 239.977 130.524 240.432C130.265 240.885 130.135 241.526 130.135 242.355C130.135 242.908 130.193 243.378 130.309 243.764C130.426 244.151 130.593 244.445 130.811 244.646C131.031 244.848 131.296 244.948 131.606 244.948ZM137.091 245.634C136.622 245.634 136.222 245.506 135.891 245.251C135.561 244.993 135.309 244.62 135.134 244.132C134.96 243.642 134.872 243.049 134.872 242.355C134.872 241.666 134.96 241.077 135.134 240.588C135.311 240.098 135.564 239.724 135.895 239.466C136.227 239.206 136.626 239.077 137.091 239.077C137.557 239.077 137.955 239.206 138.285 239.466C138.617 239.724 138.871 240.098 139.046 240.588C139.222 241.077 139.31 241.666 139.31 242.355C139.31 243.049 139.223 243.642 139.049 244.132C138.874 244.62 138.622 244.993 138.291 245.251C137.961 245.506 137.561 245.634 137.091 245.634ZM137.091 244.948C137.557 244.948 137.918 244.724 138.176 244.275C138.434 243.826 138.562 243.187 138.562 242.355C138.562 241.803 138.503 241.332 138.385 240.944C138.268 240.555 138.1 240.259 137.88 240.055C137.662 239.852 137.399 239.75 137.091 239.75C136.63 239.75 136.27 239.977 136.01 240.432C135.75 240.885 135.62 241.526 135.62 242.355C135.62 242.908 135.678 243.378 135.795 243.764C135.911 244.151 136.078 244.445 136.297 244.646C136.517 244.848 136.782 244.948 137.091 244.948Z" fill="#495057"/>
<path d="M175.531 237.846V232.58" stroke="#495057" stroke-width="0.87766"/>
<path d="M166.258 239.164V245.547H165.485V239.974H165.448L163.889 241.009V240.224L165.485 239.164H166.258ZM168.094 245.547V244.986L170.201 242.68C170.448 242.409 170.652 242.175 170.812 241.975C170.972 241.774 171.09 241.585 171.167 241.408C171.246 241.229 171.285 241.042 171.285 240.847C171.285 240.623 171.231 240.428 171.123 240.264C171.017 240.1 170.872 239.973 170.687 239.884C170.502 239.795 170.294 239.75 170.064 239.75C169.818 239.75 169.604 239.801 169.422 239.903C169.241 240.002 169.101 240.143 169.001 240.323C168.903 240.504 168.854 240.716 168.854 240.959H168.119C168.119 240.585 168.205 240.257 168.378 239.974C168.55 239.692 168.785 239.471 169.082 239.313C169.381 239.156 169.717 239.077 170.089 239.077C170.463 239.077 170.794 239.156 171.083 239.313C171.372 239.471 171.598 239.684 171.762 239.952C171.926 240.22 172.008 240.519 172.008 240.847C172.008 241.082 171.966 241.311 171.881 241.536C171.798 241.758 171.652 242.006 171.444 242.281C171.239 242.553 170.953 242.885 170.587 243.278L169.154 244.811V244.861H172.121V245.547H168.094ZM173.956 244.73C173.803 244.73 173.671 244.675 173.561 244.565C173.45 244.455 173.395 244.323 173.395 244.169C173.395 244.016 173.45 243.884 173.561 243.773C173.671 243.663 173.803 243.608 173.956 243.608C174.11 243.608 174.242 243.663 174.352 243.773C174.462 243.884 174.517 244.016 174.517 244.169C174.517 244.271 174.491 244.365 174.439 244.45C174.39 244.535 174.322 244.604 174.237 244.656C174.154 244.705 174.06 244.73 173.956 244.73ZM173.956 241.501C173.803 241.501 173.671 241.446 173.561 241.336C173.45 241.226 173.395 241.094 173.395 240.94C173.395 240.787 173.45 240.655 173.561 240.545C173.671 240.434 173.803 240.379 173.956 240.379C174.11 240.379 174.242 240.434 174.352 240.545C174.462 240.655 174.517 240.787 174.517 240.94C174.517 241.042 174.491 241.136 174.439 241.221C174.39 241.306 174.322 241.375 174.237 241.427C174.154 241.476 174.06 241.501 173.956 241.501ZM177.907 245.634C177.437 245.634 177.037 245.506 176.707 245.251C176.377 244.993 176.124 244.62 175.95 244.132C175.775 243.642 175.688 243.049 175.688 242.355C175.688 241.666 175.775 241.077 175.95 240.588C176.126 240.098 176.38 239.724 176.71 239.466C177.042 239.206 177.441 239.077 177.907 239.077C178.372 239.077 178.77 239.206 179.1 239.466C179.433 239.724 179.686 240.098 179.861 240.588C180.038 241.077 180.126 241.666 180.126 242.355C180.126 243.049 180.039 243.642 179.864 244.132C179.69 244.62 179.437 244.993 179.107 245.251C178.776 245.506 178.376 245.634 177.907 245.634ZM177.907 244.948C178.372 244.948 178.734 244.724 178.991 244.275C179.249 243.826 179.378 243.187 179.378 242.355C179.378 241.803 179.319 241.332 179.2 240.944C179.084 240.555 178.916 240.259 178.695 240.055C178.477 239.852 178.214 239.75 177.907 239.75C177.446 239.75 177.085 239.977 176.825 240.432C176.566 240.885 176.436 241.526 176.436 242.355C176.436 242.908 176.494 243.378 176.61 243.764C176.727 244.151 176.894 244.445 177.112 244.646C177.332 244.848 177.597 244.948 177.907 244.948ZM183.392 245.634C182.923 245.634 182.523 245.506 182.192 245.251C181.862 244.993 181.609 244.62 181.435 244.132C181.26 243.642 181.173 243.049 181.173 242.355C181.173 241.666 181.26 241.077 181.435 240.588C181.612 240.098 181.865 239.724 182.195 239.466C182.528 239.206 182.927 239.077 183.392 239.077C183.858 239.077 184.255 239.206 184.586 239.466C184.918 239.724 185.172 240.098 185.346 240.588C185.523 241.077 185.611 241.666 185.611 242.355C185.611 243.049 185.524 243.642 185.349 244.132C185.175 244.62 184.922 244.993 184.592 245.251C184.262 245.506 183.862 245.634 183.392 245.634ZM183.392 244.948C183.858 244.948 184.219 244.724 184.477 244.275C184.734 243.826 184.863 243.187 184.863 242.355C184.863 241.803 184.804 241.332 184.686 240.944C184.569 240.555 184.401 240.259 184.181 240.055C183.963 239.852 183.7 239.75 183.392 239.75C182.931 239.75 182.57 239.977 182.311 240.432C182.051 240.885 181.921 241.526 181.921 242.355C181.921 242.908 181.979 243.378 182.096 243.764C182.212 244.151 182.379 244.445 182.597 244.646C182.818 244.848 183.083 244.948 183.392 244.948Z" fill="#495057"/>
<path d="M224.682 237.846V232.58" stroke="#495057" stroke-width="0.87766"/>
<path d="M215.327 239.164V245.547H214.554V239.974H214.517L212.958 241.009V240.224L214.554 239.164H215.327ZM219.282 245.634C219.02 245.63 218.759 245.58 218.497 245.485C218.235 245.389 217.996 245.228 217.78 245.001C217.564 244.773 217.39 244.464 217.259 244.076C217.129 243.685 217.063 243.195 217.063 242.605C217.063 242.04 217.116 241.539 217.222 241.102C217.328 240.664 217.482 240.295 217.683 239.996C217.885 239.695 218.128 239.466 218.413 239.31C218.699 239.155 219.022 239.077 219.382 239.077C219.739 239.077 220.057 239.148 220.336 239.292C220.616 239.433 220.845 239.63 221.021 239.884C221.198 240.137 221.312 240.429 221.364 240.76H220.604C220.533 240.473 220.396 240.235 220.192 240.046C219.989 239.857 219.719 239.762 219.382 239.762C218.887 239.762 218.498 239.977 218.213 240.407C217.931 240.838 217.788 241.441 217.786 242.218H217.836C217.952 242.042 218.091 241.891 218.251 241.766C218.413 241.64 218.591 241.542 218.787 241.473C218.982 241.405 219.189 241.371 219.407 241.371C219.773 241.371 220.107 241.462 220.41 241.645C220.714 241.826 220.957 242.076 221.14 242.396C221.323 242.714 221.414 243.078 221.414 243.49C221.414 243.885 221.326 244.246 221.149 244.574C220.973 244.901 220.724 245.16 220.404 245.354C220.086 245.545 219.712 245.638 219.282 245.634ZM219.282 244.948C219.544 244.948 219.779 244.883 219.987 244.752C220.196 244.621 220.362 244.446 220.482 244.225C220.605 244.005 220.666 243.76 220.666 243.49C220.666 243.226 220.607 242.986 220.488 242.77C220.372 242.552 220.211 242.378 220.005 242.249C219.802 242.121 219.569 242.056 219.307 242.056C219.11 242.056 218.926 242.096 218.756 242.175C218.585 242.251 218.436 242.357 218.307 242.493C218.18 242.628 218.08 242.782 218.007 242.957C217.935 243.129 217.898 243.311 217.898 243.502C217.898 243.756 217.958 243.993 218.076 244.213C218.197 244.433 218.361 244.611 218.568 244.746C218.778 244.881 219.016 244.948 219.282 244.948ZM223.188 244.73C223.034 244.73 222.903 244.675 222.792 244.565C222.682 244.455 222.627 244.323 222.627 244.169C222.627 244.016 222.682 243.884 222.792 243.773C222.903 243.663 223.034 243.608 223.188 243.608C223.342 243.608 223.474 243.663 223.584 243.773C223.694 243.884 223.749 244.016 223.749 244.169C223.749 244.271 223.723 244.365 223.671 244.45C223.621 244.535 223.554 244.604 223.469 244.656C223.386 244.705 223.292 244.73 223.188 244.73ZM223.188 241.501C223.034 241.501 222.903 241.446 222.792 241.336C222.682 241.226 222.627 241.094 222.627 240.94C222.627 240.787 222.682 240.655 222.792 240.545C222.903 240.434 223.034 240.379 223.188 240.379C223.342 240.379 223.474 240.434 223.584 240.545C223.694 240.655 223.749 240.787 223.749 240.94C223.749 241.042 223.723 241.136 223.671 241.221C223.621 241.306 223.554 241.375 223.469 241.427C223.386 241.476 223.292 241.501 223.188 241.501ZM227.139 245.634C226.669 245.634 226.269 245.506 225.939 245.251C225.608 244.993 225.356 244.62 225.181 244.132C225.007 243.642 224.92 243.049 224.92 242.355C224.92 241.666 225.007 241.077 225.181 240.588C225.358 240.098 225.611 239.724 225.942 239.466C226.274 239.206 226.673 239.077 227.139 239.077C227.604 239.077 228.002 239.206 228.332 239.466C228.665 239.724 228.918 240.098 229.093 240.588C229.269 241.077 229.358 241.666 229.358 242.355C229.358 243.049 229.27 243.642 229.096 244.132C228.921 244.62 228.669 244.993 228.339 245.251C228.008 245.506 227.608 245.634 227.139 245.634ZM227.139 244.948C227.604 244.948 227.966 244.724 228.223 244.275C228.481 243.826 228.61 243.187 228.61 242.355C228.61 241.803 228.55 241.332 228.432 240.944C228.316 240.555 228.147 240.259 227.927 240.055C227.709 239.852 227.446 239.75 227.139 239.75C226.677 239.75 226.317 239.977 226.057 240.432C225.797 240.885 225.668 241.526 225.668 242.355C225.668 242.908 225.726 243.378 225.842 243.764C225.958 244.151 226.126 244.445 226.344 244.646C226.564 244.848 226.829 244.948 227.139 244.948ZM232.624 245.634C232.154 245.634 231.754 245.506 231.424 245.251C231.094 244.993 230.841 244.62 230.667 244.132C230.492 243.642 230.405 243.049 230.405 242.355C230.405 241.666 230.492 241.077 230.667 240.588C230.843 240.098 231.097 239.724 231.427 239.466C231.76 239.206 232.159 239.077 232.624 239.077C233.089 239.077 233.487 239.206 233.818 239.466C234.15 239.724 234.404 240.098 234.578 240.588C234.755 241.077 234.843 241.666 234.843 242.355C234.843 243.049 234.756 243.642 234.581 244.132C234.407 244.62 234.154 244.993 233.824 245.251C233.494 245.506 233.094 245.634 232.624 245.634ZM232.624 244.948C233.089 244.948 233.451 244.724 233.709 244.275C233.966 243.826 234.095 243.187 234.095 242.355C234.095 241.803 234.036 241.332 233.917 240.944C233.801 240.555 233.633 240.259 233.413 240.055C233.194 239.852 232.932 239.75 232.624 239.75C232.163 239.75 231.802 239.977 231.542 240.432C231.283 240.885 231.153 241.526 231.153 242.355C231.153 242.908 231.211 243.378 231.327 243.764C231.444 244.151 231.611 244.445 231.829 244.646C232.049 244.848 232.314 244.948 232.624 244.948Z" fill="#495057"/>
<path d="M272.951 237.846V232.58" stroke="#495057" stroke-width="0.87766"/>
<path d="M260.854 245.547V244.986L262.961 242.68C263.208 242.41 263.412 242.175 263.572 241.975C263.732 241.774 263.85 241.585 263.927 241.408C264.006 241.229 264.046 241.042 264.046 240.847C264.046 240.623 263.992 240.428 263.884 240.264C263.778 240.1 263.632 239.973 263.447 239.884C263.262 239.795 263.055 239.75 262.824 239.75C262.579 239.75 262.365 239.801 262.182 239.903C262.001 240.002 261.861 240.143 261.761 240.323C261.664 240.504 261.615 240.716 261.615 240.959H260.879C260.879 240.585 260.965 240.257 261.138 239.974C261.31 239.692 261.545 239.472 261.842 239.314C262.142 239.156 262.477 239.077 262.849 239.077C263.223 239.077 263.554 239.156 263.843 239.314C264.132 239.472 264.359 239.685 264.523 239.953C264.687 240.221 264.769 240.519 264.769 240.847C264.769 241.082 264.726 241.311 264.641 241.536C264.558 241.758 264.413 242.006 264.205 242.281C263.999 242.553 263.713 242.885 263.348 243.278L261.914 244.812V244.861H264.881V245.547H260.854ZM268.25 245.634C267.781 245.634 267.381 245.507 267.05 245.251C266.72 244.993 266.467 244.62 266.293 244.132C266.118 243.642 266.031 243.05 266.031 242.356C266.031 241.666 266.118 241.077 266.293 240.588C266.47 240.098 266.723 239.724 267.053 239.466C267.386 239.207 267.785 239.077 268.25 239.077C268.716 239.077 269.114 239.207 269.444 239.466C269.776 239.724 270.03 240.098 270.204 240.588C270.381 241.077 270.469 241.666 270.469 242.356C270.469 243.05 270.382 243.642 270.207 244.132C270.033 244.62 269.781 244.993 269.45 245.251C269.12 245.507 268.72 245.634 268.25 245.634ZM268.25 244.949C268.716 244.949 269.077 244.724 269.335 244.275C269.592 243.827 269.721 243.187 269.721 242.356C269.721 241.803 269.662 241.332 269.544 240.944C269.427 240.555 269.259 240.259 269.039 240.055C268.821 239.852 268.558 239.75 268.25 239.75C267.789 239.75 267.428 239.978 267.169 240.433C266.909 240.886 266.779 241.527 266.779 242.356C266.779 242.908 266.837 243.378 266.954 243.764C267.07 244.151 267.237 244.445 267.455 244.646C267.676 244.848 267.941 244.949 268.25 244.949ZM272.202 244.73C272.048 244.73 271.916 244.675 271.806 244.565C271.696 244.455 271.641 244.323 271.641 244.169C271.641 244.016 271.696 243.884 271.806 243.774C271.916 243.664 272.048 243.608 272.202 243.608C272.356 243.608 272.488 243.664 272.598 243.774C272.708 243.884 272.763 244.016 272.763 244.169C272.763 244.271 272.737 244.365 272.685 244.45C272.635 244.535 272.568 244.604 272.483 244.656C272.4 244.706 272.306 244.73 272.202 244.73ZM272.202 241.502C272.048 241.502 271.916 241.447 271.806 241.336C271.696 241.226 271.641 241.094 271.641 240.941C271.641 240.787 271.696 240.655 271.806 240.545C271.916 240.435 272.048 240.38 272.202 240.38C272.356 240.38 272.488 240.435 272.598 240.545C272.708 240.655 272.763 240.787 272.763 240.941C272.763 241.042 272.737 241.136 272.685 241.221C272.635 241.306 272.568 241.375 272.483 241.427C272.4 241.477 272.306 241.502 272.202 241.502ZM276.153 245.634C275.683 245.634 275.283 245.507 274.953 245.251C274.622 244.993 274.37 244.62 274.195 244.132C274.021 243.642 273.934 243.05 273.934 242.356C273.934 241.666 274.021 241.077 274.195 240.588C274.372 240.098 274.625 239.724 274.956 239.466C275.288 239.207 275.687 239.077 276.153 239.077C276.618 239.077 277.016 239.207 277.346 239.466C277.679 239.724 277.932 240.098 278.107 240.588C278.283 241.077 278.372 241.666 278.372 242.356C278.372 243.05 278.284 243.642 278.11 244.132C277.935 244.62 277.683 244.993 277.353 245.251C277.022 245.507 276.622 245.634 276.153 245.634ZM276.153 244.949C276.618 244.949 276.98 244.724 277.237 244.275C277.495 243.827 277.624 243.187 277.624 242.356C277.624 241.803 277.564 241.332 277.446 240.944C277.33 240.555 277.161 240.259 276.941 240.055C276.723 239.852 276.46 239.75 276.153 239.75C275.691 239.75 275.331 239.978 275.071 240.433C274.811 240.886 274.682 241.527 274.682 242.356C274.682 242.908 274.74 243.378 274.856 243.764C274.972 244.151 275.14 244.445 275.358 244.646C275.578 244.848 275.843 244.949 276.153 244.949ZM281.638 245.634C281.168 245.634 280.768 245.507 280.438 245.251C280.108 244.993 279.855 244.62 279.681 244.132C279.506 243.642 279.419 243.05 279.419 242.356C279.419 241.666 279.506 241.077 279.681 240.588C279.857 240.098 280.111 239.724 280.441 239.466C280.774 239.207 281.173 239.077 281.638 239.077C282.103 239.077 282.501 239.207 282.832 239.466C283.164 239.724 283.418 240.098 283.592 240.588C283.769 241.077 283.857 241.666 283.857 242.356C283.857 243.05 283.77 243.642 283.595 244.132C283.421 244.62 283.168 244.993 282.838 245.251C282.508 245.507 282.108 245.634 281.638 245.634ZM281.638 244.949C282.103 244.949 282.465 244.724 282.723 244.275C282.98 243.827 283.109 243.187 283.109 242.356C283.109 241.803 283.05 241.332 282.931 240.944C282.815 240.555 282.647 240.259 282.426 240.055C282.208 239.852 281.945 239.75 281.638 239.75C281.177 239.75 280.816 239.978 280.556 240.433C280.297 240.886 280.167 241.527 280.167 242.356C280.167 242.908 280.225 243.378 280.341 243.764C280.458 244.151 280.625 244.445 280.843 244.646C281.063 244.848 281.328 244.949 281.638 244.949Z" fill="#495057"/>
<path d="M29.8398 4.16135V232.353" stroke="#495057" stroke-width="0.87766"/>
<path d="M25.4727 232.353H29.8395" stroke="#495057" stroke-width="0.87766"/>
<path d="M20.5468 234.524C20.0772 234.524 19.6772 234.396 19.3469 234.141C19.0165 233.883 18.764 233.51 18.5895 233.022C18.415 232.531 18.3277 231.939 18.3277 231.245C18.3277 230.555 18.415 229.966 18.5895 229.478C18.7661 228.988 19.0196 228.614 19.35 228.356C19.6824 228.096 20.0814 227.967 20.5468 227.967C21.0122 227.967 21.4101 228.096 21.7405 228.356C22.0729 228.614 22.3264 228.988 22.5009 229.478C22.6776 229.966 22.7659 230.555 22.7659 231.245C22.7659 231.939 22.6786 232.531 22.5041 233.022C22.3295 233.51 22.0771 233.883 21.7467 234.141C21.4163 234.396 21.0164 234.524 20.5468 234.524ZM20.5468 233.838C21.0122 233.838 21.3737 233.614 21.6314 233.165C21.889 232.716 22.0179 232.076 22.0179 231.245C22.0179 230.693 21.9586 230.222 21.8402 229.833C21.7239 229.445 21.5555 229.149 21.3353 228.945C21.1171 228.742 20.8543 228.64 20.5468 228.64C20.0855 228.64 19.725 228.867 19.4653 229.322C19.2056 229.775 19.0757 230.416 19.0757 231.245C19.0757 231.798 19.1339 232.268 19.2502 232.654C19.3666 233.04 19.5339 233.334 19.752 233.536C19.9723 233.738 20.2372 233.838 20.5468 233.838Z" fill="#495057"/>
<path d="M25.4727 175.305H29.8395" stroke="#495057" stroke-width="0.87766"/>
<path d="M5.07757 171.006V177.389H4.30463V171.816H4.26723L2.70889 172.851V172.066L4.30463 171.006H5.07757ZM8.90798 177.476C8.54229 177.476 8.21296 177.404 7.91999 177.258C7.62702 177.113 7.39223 176.913 7.21562 176.66C7.03901 176.406 6.94239 176.117 6.92577 175.793H7.67377C7.70286 176.082 7.83376 176.321 8.06647 176.51C8.30126 176.697 8.58177 176.791 8.90798 176.791C9.16978 176.791 9.40249 176.729 9.60612 176.607C9.81182 176.484 9.97285 176.316 10.0892 176.102C10.2076 175.886 10.2669 175.642 10.2669 175.369C10.2669 175.091 10.2056 174.843 10.083 174.624C9.96246 174.404 9.79624 174.231 9.5843 174.104C9.37237 173.977 9.1303 173.913 8.85811 173.911C8.6628 173.909 8.46229 173.939 8.25659 174.001C8.05089 174.061 7.88155 174.139 7.74857 174.235L7.0255 174.148L7.41197 171.006H10.7281V171.692H8.06024L7.83584 173.574H7.87324C8.00414 173.47 8.16829 173.384 8.36568 173.315C8.56307 173.247 8.76877 173.213 8.98278 173.213C9.37341 173.213 9.72144 173.306 10.0269 173.493C10.3344 173.678 10.5754 173.932 10.7499 174.254C10.9266 174.576 11.0149 174.943 11.0149 175.357C11.0149 175.764 10.9234 176.128 10.7406 176.448C10.5598 176.766 10.3105 177.017 9.99259 177.202C9.67469 177.385 9.31315 177.476 8.90798 177.476ZM14.3349 177.476C13.8653 177.476 13.4654 177.348 13.135 177.093C12.8046 176.835 12.5522 176.462 12.3776 175.974C12.2031 175.484 12.1158 174.891 12.1158 174.197C12.1158 173.508 12.2031 172.919 12.3776 172.43C12.5542 171.94 12.8077 171.566 13.1381 171.308C13.4706 171.049 13.8695 170.919 14.3349 170.919C14.8003 170.919 15.1982 171.049 15.5286 171.308C15.8611 171.566 16.1145 171.94 16.2891 172.43C16.4657 172.919 16.554 173.508 16.554 174.197C16.554 174.891 16.4667 175.484 16.2922 175.974C16.1177 176.462 15.8652 176.835 15.5348 177.093C15.2045 177.348 14.8045 177.476 14.3349 177.476ZM14.3349 176.791C14.8003 176.791 15.1619 176.566 15.4195 176.117C15.6772 175.669 15.806 175.029 15.806 174.197C15.806 173.645 15.7468 173.174 15.6283 172.786C15.512 172.397 15.3437 172.101 15.1234 171.897C14.9053 171.694 14.6424 171.592 14.3349 171.592C13.8736 171.592 13.5131 171.819 13.2534 172.274C12.9937 172.727 12.8638 173.368 12.8638 174.197C12.8638 174.75 12.922 175.22 13.0384 175.606C13.1547 175.993 13.322 176.287 13.5402 176.488C13.7604 176.69 14.0253 176.791 14.3349 176.791ZM19.8203 177.476C19.3507 177.476 18.9507 177.348 18.6204 177.093C18.29 176.835 18.0375 176.462 17.863 175.974C17.6885 175.484 17.6012 174.891 17.6012 174.197C17.6012 173.508 17.6885 172.919 17.863 172.43C18.0396 171.94 18.2931 171.566 18.6235 171.308C18.9559 171.049 19.3549 170.919 19.8203 170.919C20.2857 170.919 20.6836 171.049 21.014 171.308C21.3464 171.566 21.5999 171.94 21.7745 172.43C21.9511 172.919 22.0394 173.508 22.0394 174.197C22.0394 174.891 21.9521 175.484 21.7776 175.974C21.603 176.462 21.3506 176.835 21.0202 177.093C20.6898 177.348 20.2899 177.476 19.8203 177.476ZM19.8203 176.791C20.2857 176.791 20.6472 176.566 20.9049 176.117C21.1625 175.669 21.2914 175.029 21.2914 174.197C21.2914 173.645 21.2321 173.174 21.1137 172.786C20.9974 172.397 20.8291 172.101 20.6088 171.897C20.3906 171.694 20.1278 171.592 19.8203 171.592C19.359 171.592 18.9985 171.819 18.7388 172.274C18.4791 172.727 18.3492 173.368 18.3492 174.197C18.3492 174.75 18.4074 175.22 18.5237 175.606C18.6401 175.993 18.8074 176.287 19.0255 176.488C19.2458 176.69 19.5107 176.791 19.8203 176.791Z" fill="#495057"/>
<path d="M25.4727 118.257H29.8395" stroke="#495057" stroke-width="0.87766"/>
<path d="M4.79175 120.428C4.38035 120.428 4.01362 120.358 3.69156 120.216C3.37158 120.075 3.11705 119.879 2.92797 119.627C2.74097 119.374 2.63916 119.08 2.62253 118.745H3.40794C3.42456 118.951 3.49521 119.129 3.61987 119.278C3.74454 119.426 3.90765 119.54 4.10919 119.621C4.31074 119.702 4.5341 119.743 4.77928 119.743C5.05355 119.743 5.29665 119.695 5.50859 119.599C5.72052 119.504 5.88675 119.371 6.00726 119.2C6.12777 119.03 6.18803 118.833 6.18803 118.608C6.18803 118.373 6.12985 118.167 6.01349 117.988C5.89713 117.807 5.72676 117.666 5.50235 117.564C5.27795 117.462 5.00368 117.411 4.67955 117.411H4.16841V116.726H4.67955C4.93304 116.726 5.15536 116.68 5.34652 116.589C5.53975 116.497 5.69039 116.368 5.79844 116.202C5.90856 116.036 5.96362 115.841 5.96362 115.616C5.96362 115.4 5.91583 115.212 5.82026 115.052C5.72468 114.892 5.58962 114.767 5.41509 114.678C5.24263 114.589 5.03901 114.544 4.80422 114.544C4.58397 114.544 4.37619 114.585 4.18088 114.666C3.98764 114.745 3.82973 114.86 3.70714 115.012C3.58455 115.161 3.51806 115.342 3.50767 115.554H2.75967C2.77213 115.219 2.87291 114.926 3.06199 114.675C3.25107 114.421 3.49832 114.224 3.80376 114.083C4.11127 113.942 4.44891 113.871 4.81668 113.871C5.21146 113.871 5.55014 113.951 5.83272 114.111C6.1153 114.269 6.33243 114.478 6.48411 114.737C6.63579 114.997 6.71163 115.278 6.71163 115.579C6.71163 115.938 6.61709 116.245 6.42801 116.498C6.24101 116.752 5.98648 116.927 5.66442 117.025V117.075C6.06751 117.141 6.3823 117.313 6.60878 117.589C6.83526 117.863 6.9485 118.203 6.9485 118.608C6.9485 118.955 6.85396 119.267 6.66488 119.543C6.47788 119.818 6.22231 120.034 5.89817 120.192C5.57404 120.349 5.20523 120.428 4.79175 120.428ZM10.3052 120.428C9.83559 120.428 9.43562 120.301 9.10525 120.045C8.77488 119.787 8.52243 119.414 8.34789 118.926C8.17336 118.436 8.08609 117.844 8.08609 117.15C8.08609 116.46 8.17336 115.871 8.34789 115.382C8.5245 114.892 8.77799 114.518 9.10836 114.26C9.44081 114.001 9.83975 113.871 10.3052 113.871C10.7706 113.871 11.1685 114.001 11.4989 114.26C11.8313 114.518 12.0848 114.892 12.2593 115.382C12.4359 115.871 12.5243 116.46 12.5243 117.15C12.5243 117.844 12.437 118.436 12.2625 118.926C12.0879 119.414 11.8355 119.787 11.5051 120.045C11.1747 120.301 10.7748 120.428 10.3052 120.428ZM10.3052 119.743C10.7706 119.743 11.1321 119.518 11.3898 119.07C11.6474 118.621 11.7762 117.981 11.7762 117.15C11.7762 116.597 11.717 116.126 11.5986 115.738C11.4822 115.349 11.3139 115.053 11.0937 114.85C10.8755 114.646 10.6127 114.544 10.3052 114.544C9.8439 114.544 9.48341 114.772 9.22368 115.227C8.96396 115.68 8.83409 116.321 8.83409 117.15C8.83409 117.702 8.89227 118.172 9.00863 118.558C9.12499 118.945 9.29225 119.239 9.51042 119.44C9.73066 119.642 9.99558 119.743 10.3052 119.743ZM15.7905 120.428C15.321 120.428 14.921 120.301 14.5906 120.045C14.2603 119.787 14.0078 119.414 13.8333 118.926C13.6587 118.436 13.5715 117.844 13.5715 117.15C13.5715 116.46 13.6587 115.871 13.8333 115.382C14.0099 114.892 14.2634 114.518 14.5937 114.26C14.9262 114.001 15.3251 113.871 15.7905 113.871C16.256 113.871 16.6539 114.001 16.9842 114.26C17.3167 114.518 17.5702 114.892 17.7447 115.382C17.9213 115.871 18.0096 116.46 18.0096 117.15C18.0096 117.844 17.9224 118.436 17.7478 118.926C17.5733 119.414 17.3208 119.787 16.9905 120.045C16.6601 120.301 16.2601 120.428 15.7905 120.428ZM15.7905 119.743C16.256 119.743 16.6175 119.518 16.8752 119.07C17.1328 118.621 17.2616 117.981 17.2616 117.15C17.2616 116.597 17.2024 116.126 17.084 115.738C16.9676 115.349 16.7993 115.053 16.5791 114.85C16.3609 114.646 16.0981 114.544 15.7905 114.544C15.3293 114.544 14.9688 114.772 14.7091 115.227C14.4493 115.68 14.3195 116.321 14.3195 117.15C14.3195 117.702 14.3776 118.172 14.494 118.558C14.6104 118.945 14.7776 119.239 14.9958 119.44C15.216 119.642 15.481 119.743 15.7905 119.743ZM21.2759 120.428C20.8063 120.428 20.4064 120.301 20.076 120.045C19.7456 119.787 19.4932 119.414 19.3186 118.926C19.1441 118.436 19.0568 117.844 19.0568 117.15C19.0568 116.46 19.1441 115.871 19.3186 115.382C19.4952 114.892 19.7487 114.518 20.0791 114.26C20.4116 114.001 20.8105 113.871 21.2759 113.871C21.7413 113.871 22.1392 114.001 22.4696 114.26C22.8021 114.518 23.0555 114.892 23.2301 115.382C23.4067 115.871 23.495 116.46 23.495 117.15C23.495 117.844 23.4077 118.436 23.2332 118.926C23.0587 119.414 22.8062 119.787 22.4758 120.045C22.1455 120.301 21.7455 120.428 21.2759 120.428ZM21.2759 119.743C21.7413 119.743 22.1029 119.518 22.3605 119.07C22.6182 118.621 22.747 117.981 22.747 117.15C22.747 116.597 22.6878 116.126 22.5693 115.738C22.453 115.349 22.2847 115.053 22.0644 114.85C21.8463 114.646 21.5834 114.544 21.2759 114.544C20.8146 114.544 20.4541 114.772 20.1944 115.227C19.9347 115.68 19.8048 116.321 19.8048 117.15C19.8048 117.702 19.863 118.172 19.9794 118.558C20.0957 118.945 20.263 119.239 20.4812 119.44C20.7014 119.642 20.9663 119.743 21.2759 119.743Z" fill="#495057"/>
<path d="M25.4727 61.2092H29.8395" stroke="#495057" stroke-width="0.87766"/>
<path d="M1.85974 61.9842V61.3484L4.66476 56.9103H5.12603V57.8951H4.81436L2.69501 61.2487V61.2986H6.47244V61.9842H1.85974ZM4.86422 63.2932V61.791V61.4949V56.9103H5.59976V63.2932H4.86422ZM9.6351 63.3805C9.2694 63.3805 8.94007 63.3078 8.6471 63.1623C8.35414 63.0169 8.11935 62.8174 7.94273 62.5639C7.76612 62.3104 7.6695 62.0216 7.65288 61.6975H8.40089C8.42998 61.9863 8.56088 62.2253 8.79359 62.4143C9.02838 62.6013 9.30888 62.6948 9.6351 62.6948C9.8969 62.6948 10.1296 62.6335 10.3332 62.511C10.5389 62.3884 10.7 62.2201 10.8163 62.0061C10.9348 61.79 10.994 61.5458 10.994 61.2736C10.994 60.9952 10.9327 60.7469 10.8101 60.5287C10.6896 60.3085 10.5234 60.135 10.3114 60.0083C10.0995 59.8815 9.85742 59.8171 9.58523 59.815C9.38992 59.8129 9.18941 59.8431 8.98371 59.9054C8.77801 59.9657 8.60867 60.0436 8.47569 60.1392L7.75262 60.0519L8.13908 56.9103H11.4552V57.5959H8.78736L8.56295 59.4784H8.60035C8.73126 59.3745 8.8954 59.2883 9.09279 59.2197C9.29018 59.1512 9.49588 59.1169 9.7099 59.1169C10.1005 59.1169 10.4486 59.2104 10.754 59.3974C11.0615 59.5823 11.3025 59.8358 11.4771 60.1579C11.6537 60.4799 11.742 60.8477 11.742 61.2612C11.742 61.6684 11.6506 62.032 11.4677 62.352C11.2869 62.6699 11.0376 62.9213 10.7197 63.1062C10.4018 63.2891 10.0403 63.3805 9.6351 63.3805ZM15.062 63.3805C14.5924 63.3805 14.1925 63.2527 13.8621 62.9972C13.5317 62.7395 13.2793 62.3665 13.1047 61.8783C12.9302 61.3879 12.8429 60.7957 12.8429 60.1018C12.8429 59.4119 12.9302 58.8229 13.1047 58.3346C13.2814 57.8442 13.5349 57.4702 13.8652 57.2126C14.1977 56.9529 14.5966 56.823 15.062 56.823C15.5275 56.823 15.9254 56.9529 16.2557 57.2126C16.5882 57.4702 16.8417 57.8442 17.0162 58.3346C17.1928 58.8229 17.2811 59.4119 17.2811 60.1018C17.2811 60.7957 17.1938 61.3879 17.0193 61.8783C16.8448 62.3665 16.5923 62.7395 16.262 62.9972C15.9316 63.2527 15.5316 63.3805 15.062 63.3805ZM15.062 62.6948C15.5275 62.6948 15.889 62.4704 16.1466 62.0216C16.4043 61.5728 16.5331 60.9329 16.5331 60.1018C16.5331 59.5491 16.4739 59.0784 16.3555 58.6899C16.2391 58.3013 16.0708 58.0053 15.8506 57.8016C15.6324 57.598 15.3695 57.4962 15.062 57.4962C14.6008 57.4962 14.2403 57.7237 13.9805 58.1788C13.7208 58.6317 13.591 59.2727 13.591 60.1018C13.591 60.6544 13.6491 61.124 13.7655 61.5105C13.8818 61.897 14.0491 62.191 14.2673 62.3925C14.4875 62.5941 14.7524 62.6948 15.062 62.6948ZM20.5474 63.3805C20.0778 63.3805 19.6778 63.2527 19.3475 62.9972C19.0171 62.7395 18.7647 62.3665 18.5901 61.8783C18.4156 61.3879 18.3283 60.7957 18.3283 60.1018C18.3283 59.4119 18.4156 58.8229 18.5901 58.3346C18.7667 57.8442 19.0202 57.4702 19.3506 57.2126C19.683 56.9529 20.082 56.823 20.5474 56.823C21.0128 56.823 21.4107 56.9529 21.7411 57.2126C22.0735 57.4702 22.327 57.8442 22.5016 58.3346C22.6782 58.8229 22.7665 59.4119 22.7665 60.1018C22.7665 60.7957 22.6792 61.3879 22.5047 61.8783C22.3301 62.3665 22.0777 62.7395 21.7473 62.9972C21.417 63.2527 21.017 63.3805 20.5474 63.3805ZM20.5474 62.6948C21.0128 62.6948 21.3744 62.4704 21.632 62.0216C21.8897 61.5728 22.0185 60.9329 22.0185 60.1018C22.0185 59.5491 21.9593 59.0784 21.8408 58.6899C21.7245 58.3013 21.5562 58.0053 21.3359 57.8016C21.1178 57.598 20.8549 57.4962 20.5474 57.4962C20.0861 57.4962 19.7256 57.7237 19.4659 58.1788C19.2062 58.6317 19.0763 59.2727 19.0763 60.1018C19.0763 60.6544 19.1345 61.124 19.2509 61.5105C19.3672 61.897 19.5345 62.191 19.7526 62.3925C19.9729 62.5941 20.2378 62.6948 20.5474 62.6948Z" fill="#495057"/>
<path d="M25.4727 4.16135H29.8395" stroke="#495057" stroke-width="0.87766"/>
<path d="M4.13726 8.96541C3.87545 8.96126 3.61365 8.91139 3.35185 8.81581C3.09005 8.72023 2.8511 8.5592 2.63501 8.33272C2.41892 8.10417 2.24543 7.79561 2.11453 7.40707C1.98362 7.01644 1.91817 6.52608 1.91817 5.93599C1.91817 5.37083 1.97116 4.87008 2.07713 4.43374C2.18309 3.99533 2.33685 3.62652 2.5384 3.32732C2.73994 3.02604 2.98304 2.79748 3.2677 2.64165C3.55444 2.48581 3.87753 2.4079 4.23699 2.4079C4.59437 2.4079 4.91227 2.47958 5.1907 2.62295C5.4712 2.76424 5.69976 2.96163 5.87637 3.21512C6.05298 3.46861 6.16726 3.76054 6.21921 4.09091H5.45873C5.38809 3.80417 5.25095 3.56627 5.04733 3.37719C4.84371 3.18811 4.57359 3.09357 4.23699 3.09357C3.74248 3.09357 3.35289 3.30862 3.06823 3.73872C2.78565 4.16883 2.64332 4.77242 2.64125 5.54952H2.69111C2.80747 5.37291 2.94564 5.22227 3.10563 5.0976C3.2677 4.97085 3.44639 4.8732 3.6417 4.80463C3.83702 4.73606 4.04376 4.70178 4.26192 4.70178C4.62762 4.70178 4.96214 4.7932 5.2655 4.97605C5.56886 5.15682 5.81196 5.40719 5.9948 5.72717C6.17765 6.04507 6.26907 6.40973 6.26907 6.82113C6.26907 7.21591 6.18077 7.57745 6.00415 7.90574C5.82754 8.23195 5.57924 8.49167 5.25926 8.68491C4.94136 8.87607 4.56736 8.96957 4.13726 8.96541ZM4.13726 8.27974C4.39906 8.27974 4.63385 8.21429 4.84163 8.08339C5.05149 7.95249 5.21667 7.77691 5.33718 7.55667C5.45977 7.33642 5.52107 7.09124 5.52107 6.82113C5.52107 6.55725 5.46185 6.31726 5.34342 6.10117C5.22706 5.88301 5.06603 5.70951 4.86033 5.58069C4.6567 5.45186 4.42399 5.38745 4.16219 5.38745C3.9648 5.38745 3.78092 5.42693 3.61054 5.50589C3.44016 5.58276 3.29056 5.68873 3.16173 5.82379C3.03499 5.95884 2.93525 6.11364 2.86253 6.28817C2.78981 6.46063 2.75345 6.64244 2.75345 6.8336C2.75345 7.08709 2.81266 7.32395 2.9311 7.5442C3.05161 7.76445 3.21576 7.9421 3.42353 8.07715C3.63339 8.21221 3.8713 8.27974 4.13726 8.27974ZM9.57666 8.96541C9.10708 8.96541 8.7071 8.83763 8.37673 8.58206C8.04636 8.32441 7.79391 7.95145 7.61938 7.46317C7.44484 6.97281 7.35758 6.38064 7.35758 5.68665C7.35758 4.99683 7.44484 4.40777 7.61938 3.91949C7.79599 3.42913 8.04948 3.05513 8.37985 2.79748C8.7123 2.53776 9.11123 2.4079 9.57666 2.4079C10.0421 2.4079 10.44 2.53776 10.7704 2.79748C11.1028 3.05513 11.3563 3.42913 11.5308 3.91949C11.7074 4.40777 11.7957 4.99683 11.7957 5.68665C11.7957 6.38064 11.7085 6.97281 11.5339 7.46317C11.3594 7.95145 11.107 8.32441 10.7766 8.58206C10.4462 8.83763 10.0462 8.96541 9.57666 8.96541ZM9.57666 8.27974C10.0421 8.27974 10.4036 8.05534 10.6613 7.60653C10.9189 7.15773 11.0477 6.51777 11.0477 5.68665C11.0477 5.13396 10.9885 4.66334 10.8701 4.27479C10.7537 3.88625 10.5854 3.59016 10.3652 3.38654C10.147 3.18291 9.88417 3.0811 9.57666 3.0811C9.11539 3.0811 8.75489 3.30862 8.49517 3.76366C8.23544 4.21662 8.10558 4.85761 8.10558 5.68665C8.10558 6.23935 8.16376 6.70893 8.28012 7.0954C8.39647 7.48187 8.56373 7.77587 8.7819 7.97742C9.00215 8.17897 9.26707 8.27974 9.57666 8.27974ZM15.062 8.96541C14.5924 8.96541 14.1925 8.83763 13.8621 8.58206C13.5317 8.32441 13.2793 7.95145 13.1048 7.46317C12.9302 6.97281 12.8429 6.38064 12.8429 5.68665C12.8429 4.99683 12.9302 4.40777 13.1048 3.91949C13.2814 3.42913 13.5349 3.05513 13.8652 2.79748C14.1977 2.53776 14.5966 2.4079 15.062 2.4079C15.5275 2.4079 15.9254 2.53776 16.2557 2.79748C16.5882 3.05513 16.8417 3.42913 17.0162 3.91949C17.1928 4.40777 17.2811 4.99683 17.2811 5.68665C17.2811 6.38064 17.1938 6.97281 17.0193 7.46317C16.8448 7.95145 16.5923 8.32441 16.262 8.58206C15.9316 8.83763 15.5316 8.96541 15.062 8.96541ZM15.062 8.27974C15.5275 8.27974 15.889 8.05534 16.1466 7.60653C16.4043 7.15773 16.5331 6.51777 16.5331 5.68665C16.5331 5.13396 16.4739 4.66334 16.3555 4.27479C16.2391 3.88625 16.0708 3.59016 15.8506 3.38654C15.6324 3.18291 15.3695 3.0811 15.062 3.0811C14.6008 3.0811 14.2403 3.30862 13.9805 3.76366C13.7208 4.21662 13.591 4.85761 13.591 5.68665C13.591 6.23935 13.6491 6.70893 13.7655 7.0954C13.8818 7.48187 14.0491 7.77587 14.2673 7.97742C14.4875 8.17897 14.7524 8.27974 15.062 8.27974ZM20.5474 8.96541C20.0778 8.96541 19.6778 8.83763 19.3475 8.58206C19.0171 8.32441 18.7647 7.95145 18.5901 7.46317C18.4156 6.97281 18.3283 6.38064 18.3283 5.68665C18.3283 4.99683 18.4156 4.40777 18.5901 3.91949C18.7667 3.42913 19.0202 3.05513 19.3506 2.79748C19.683 2.53776 20.082 2.4079 20.5474 2.4079C21.0128 2.4079 21.4107 2.53776 21.7411 2.79748C22.0735 3.05513 22.327 3.42913 22.5016 3.91949C22.6782 4.40777 22.7665 4.99683 22.7665 5.68665C22.7665 6.38064 22.6792 6.97281 22.5047 7.46317C22.3302 7.95145 22.0777 8.32441 21.7473 8.58206C21.417 8.83763 21.017 8.96541 20.5474 8.96541ZM20.5474 8.27974C21.0128 8.27974 21.3744 8.05534 21.632 7.60653C21.8897 7.15773 22.0185 6.51777 22.0185 5.68665C22.0185 5.13396 21.9593 4.66334 21.8408 4.27479C21.7245 3.88625 21.5562 3.59016 21.3359 3.38654C21.1178 3.18291 20.8549 3.0811 20.5474 3.0811C20.0861 3.0811 19.7256 3.30862 19.4659 3.76366C19.2062 4.21662 19.0763 4.85761 19.0763 5.68665C19.0763 6.23935 19.1345 6.70893 19.2509 7.0954C19.3672 7.48187 19.5345 7.77587 19.7526 7.97742C19.9729 8.17897 20.2378 8.27974 20.5474 8.27974Z" fill="#495057"/>
<path d="M29.8398 83.3381C46.0767 76.6093 62.3132 69.8806 78.5501 69.8806C94.7866 69.8806 111.023 85.1331 127.26 85.1331C143.497 85.1331 159.733 69.2823 175.97 63.6012C192.207 57.918 208.444 51.0402 224.68 51.0402C240.917 51.0402 257.154 57.3196 273.39 57.3196C289.627 57.3196 305.864 51.0402 322.101 44.7607" stroke="#FF6B00" stroke-width="2.63298"/>
<path d="M34.2294 86.0115C36.1683 86.0115 37.74 84.4397 37.74 82.5009C37.74 80.562 36.1683 78.9902 34.2294 78.9902C32.2905 78.9902 30.7188 80.562 30.7188 82.5009C30.7188 84.4397 32.2905 86.0115 34.2294 86.0115Z" fill="#FF6B00" stroke="#FF6B00" stroke-width="2.63298"/>
<path d="M78.9892 73.7234C80.928 73.7234 82.4998 72.1517 82.4998 70.2128C82.4998 68.2739 80.928 66.7021 78.9892 66.7021C77.0503 66.7021 75.4785 68.2739 75.4785 70.2128C75.4785 72.1517 77.0503 73.7234 78.9892 73.7234Z" fill="#FF6B00" stroke="#FF6B00" stroke-width="2.63298"/>
<path d="M128.138 89.5213C130.076 89.5213 131.648 87.9495 131.648 86.0106C131.648 84.0718 130.076 82.5 128.138 82.5C126.199 82.5 124.627 84.0718 124.627 86.0106C124.627 87.9495 126.199 89.5213 128.138 89.5213Z" fill="#FF6B00" stroke="#FF6B00" stroke-width="2.63298"/>
<path d="M176.409 64.9471C178.348 64.9471 179.92 63.3753 179.92 61.4364C179.92 59.4975 178.348 57.9258 176.409 57.9258C174.47 57.9258 172.898 59.4975 172.898 61.4364C172.898 63.3753 174.47 64.9471 176.409 64.9471Z" fill="#FF6B00" stroke="#FF6B00" stroke-width="2.63298"/>
<path d="M224.681 55.2928C226.619 55.2928 228.191 53.721 228.191 51.7821C228.191 49.8433 226.619 48.2715 224.681 48.2715C222.742 48.2715 221.17 49.8433 221.17 51.7821C221.17 53.721 222.742 55.2928 224.681 55.2928Z" fill="#FF6B00" stroke="#FF6B00" stroke-width="2.63298"/>
<path d="M273.829 60.5594C275.768 60.5594 277.34 58.9876 277.34 57.0487C277.34 55.1099 275.768 53.5381 273.829 53.5381C271.89 53.5381 270.318 55.1099 270.318 57.0487C270.318 58.9876 271.89 60.5594 273.829 60.5594Z" fill="#FF6B00" stroke="#FF6B00" stroke-width="2.63298"/>
<path d="M321.224 50.0271C323.162 50.0271 324.734 48.4553 324.734 46.5164C324.734 44.5776 323.162 43.0058 321.224 43.0058C319.285 43.0058 317.713 44.5776 317.713 46.5164C317.713 48.4553 319.285 50.0271 321.224 50.0271Z" fill="#FF6B00" stroke="#FF6B00" stroke-width="2.63298"/>
</g>
<defs>
<clipPath id="clip0_699_8551">
<rect width="327.367" height="263.298" fill="white"/>
</clipPath>
</defs>
</svg>
