<svg width="50" height="50" viewBox="0 0 50 50" fill="none" xmlns="http://www.w3.org/2000/svg">
<path d="M0 25C0 11.1929 11.1929 0 25 0C38.8071 0 50 11.1929 50 25C50 38.8071 38.8071 50 25 50C11.1929 50 0 38.8071 0 25Z" fill="#F54900" fill-opacity="0.1"/>
<path d="M33.3337 26.0418C33.3337 31.2501 29.6878 33.8543 25.3545 35.3647C25.1276 35.4416 24.8811 35.4379 24.6566 35.3543C20.3128 33.8543 16.667 31.2501 16.667 26.0418V18.7501C16.667 18.4739 16.7767 18.2089 16.9721 18.0136C17.1674 17.8182 17.4324 17.7085 17.7087 17.7085C19.792 17.7085 22.3962 16.4585 24.2087 14.8751C24.4293 14.6866 24.7101 14.583 25.0003 14.583C25.2906 14.583 25.5713 14.6866 25.792 14.8751C27.6149 16.4689 30.2087 17.7085 32.292 17.7085C32.5683 17.7085 32.8332 17.8182 33.0286 18.0136C33.2239 18.2089 33.3337 18.4739 33.3337 18.7501V26.0418Z" stroke="url(#paint0_linear_576_6633)" stroke-width="2.08333" stroke-linecap="round" stroke-linejoin="round"/>
<defs>
<linearGradient id="paint0_linear_576_6633" x1="25.0003" y1="14.583" x2="25.0003" y2="35.4198" gradientUnits="userSpaceOnUse">
<stop stop-color="#F9992A"/>
<stop offset="1" stop-color="#E27C26"/>
</linearGradient>
</defs>
</svg>
