<svg width="20" height="20" viewBox="0 0 20 20" fill="none" xmlns="http://www.w3.org/2000/svg">
<rect width="20" height="20" rx="10" fill="#262626"/>
<g clip-path="url(#clip0_850_2909)">
<path d="M15.2593 7.0083C14.5745 7.0083 13.9426 6.78143 13.4352 6.39869C12.8532 5.95994 12.4351 5.31635 12.2874 4.57455C12.2509 4.39127 12.2312 4.20213 12.2293 4.0083H10.273V9.35393L10.2706 12.282C10.2706 13.0648 9.76087 13.7285 9.05423 13.962C8.84916 14.0297 8.62767 14.0618 8.39705 14.0492C8.10267 14.033 7.82681 13.9442 7.58705 13.8007C7.07681 13.4956 6.73087 12.942 6.7215 12.3087C6.70673 11.3189 7.50689 10.512 8.49595 10.512C8.69119 10.512 8.87869 10.5438 9.05423 10.6017V9.14064V8.61541C8.86908 8.58799 8.68064 8.57369 8.49009 8.57369C7.40751 8.57369 6.39501 9.02369 5.67126 9.83439C5.12423 10.4471 4.79611 11.2287 4.74548 12.0483C4.67916 13.125 5.07314 14.1485 5.8372 14.9037C5.94947 15.0146 6.06736 15.1174 6.19064 15.2124C6.84572 15.7165 7.64658 15.9898 8.49009 15.9898C8.68064 15.9898 8.86908 15.9757 9.05423 15.9483C9.8422 15.8316 10.5692 15.4709 11.143 14.9037C11.848 14.2069 12.2375 13.2818 12.2417 12.2972L12.2317 7.92471C12.568 8.18416 12.9357 8.39885 13.3304 8.56549C13.9442 8.82447 14.5951 8.95572 15.2649 8.95549V7.53494V7.00783C15.2654 7.0083 15.2598 7.0083 15.2593 7.0083Z" fill="white"/>
</g>
<defs>
<clipPath id="clip0_850_2909">
<rect width="12" height="12" fill="white" transform="translate(4 4)"/>
</clipPath>
</defs>
</svg>
