<?xml version="1.0" encoding="UTF-8" standalone="no"?>
<!DOCTYPE svg PUBLIC "-//W3C//DTD SVG 1.1//EN" "https://www.w3.org/Graphics/SVG/1.1/DTD/svg11.dtd">
<svg width="100%" height="100%" viewBox="0 0 200 102" version="1.1" xmlns="https://www.w3.org/2000/svg" xmlns:xlink="https://www.w3.org/1999/xlink" xml:space="preserve" xmlns:serif="https://www.serif.com/" style="fill-rule:evenodd;clip-rule:evenodd;stroke-linejoin:round;stroke-miterlimit:2;">
    <g transform="matrix(1,0,0,1,0,-49)">
        <rect x="10.2" y="106.5" width="33.2" height="33.2" style="fill:rgb(29,172,116);"/>
        <path d="M27.3,128.4L31.1,125.6L38.1,120.6L29.4,120.6L26.8,112.3L24.1,120.6L15.4,120.6L22.5,125.7L19.8,133.9L26.8,128.8L33.7,133.9L31.6,127.4L27.3,128.4Z" style="fill:rgb(253,254,254);fill-rule:nonzero;"/>
    </g>
    <g transform="matrix(1,0,0,1,0,-49)">
        <rect x="47" y="106.5" width="33.2" height="33.2" style="fill:rgb(29,172,116);"/>
        <path d="M64.1,128.4L67.9,125.6L74.9,120.6L66.3,120.6L63.6,112.3L61,120.6L52.3,120.6L59.3,125.7L56.7,133.9L63.6,128.8L70.6,133.9L68.5,127.4L64.1,128.4Z" style="fill:rgb(253,254,254);fill-rule:nonzero;"/>
    </g>
    <g transform="matrix(1,0,0,1,0,-49)">
        <rect x="83.9" y="106.5" width="33.2" height="33.2" style="fill:rgb(29,172,116);"/>
        <path d="M101,128.4L104.8,125.6L111.8,120.6L103.1,120.6L100.5,112.3L97.8,120.6L89.2,120.6L96.2,125.7L93.6,133.9L100.5,128.8L107.4,133.9L105.3,127.4L101,128.4Z" style="fill:rgb(253,254,254);fill-rule:nonzero;"/>
    </g>
    <g transform="matrix(1,0,0,1,0,-49)">
        <path d="M190.8,106.5L190.8,139.7L174.2,139.7L174.2,128.8L181.2,133.9L179.1,127.4L174.7,128.4L178.6,125.6L185.5,120.6L176.9,120.6L174.2,112.3L174.2,106.5L190.8,106.5Z" style="fill:rgb(221,220,230);fill-rule:nonzero;"/>
    </g>
    <g transform="matrix(1,0,0,1,0,-49)">
        <path d="M179.1,127.4L181.2,133.9L174.2,128.8L174.2,139.7L157.6,139.7L157.6,106.5L174.2,106.5L174.2,112.3L176.9,120.6L185.5,120.6L178.6,125.6L174.7,128.4L179.1,127.4Z" style="fill:rgb(29,172,116);fill-rule:nonzero;"/>
    </g>
    <g transform="matrix(1,0,0,1,0,-49)">
        <path d="M179.1,127.4L181.2,133.9L174.2,128.8L167.3,133.9L169.9,125.7L162.9,120.6L171.6,120.6L174.2,112.3L176.9,120.6L185.5,120.6L178.6,125.6L174.7,128.4L179.1,127.4Z" style="fill:rgb(253,254,254);fill-rule:nonzero;"/>
    </g>
    <g transform="matrix(1,0,0,1,0,-49)">
        <rect x="120.8" y="106.5" width="33.2" height="33.2" style="fill:rgb(29,172,116);"/>
        <path d="M137.9,128.4L141.7,125.6L148.7,120.6L140,120.6L137.4,112.3L134.7,120.6L126.1,120.6L133.1,125.7L130.4,133.9L137.4,128.8L144.3,133.9L142.2,127.4L137.9,128.4Z" style="fill:rgb(253,254,254);fill-rule:nonzero;"/>
    </g>
    <g transform="matrix(1,0,0,1,0,-49)">
        <path d="M38.5,76.8L51.5,67.3L35.4,67.3L30.5,52L25.6,67.3L9.5,67.3L22.5,76.8L17.6,92.1L30.5,82.7L43.4,92.1L38.5,76.8Z" style="fill:rgb(29,172,116);fill-rule:nonzero;"/>
    </g>
    <g transform="matrix(1,0,0,1,0,-49)">
        <path d="M38.5,76.8L31.4,81.9L39.5,80L38.5,76.8Z" style="fill:rgb(6,77,43);fill-rule:nonzero;"/>
    </g>
    <g transform="matrix(1,0,0,1,0,-49)">
        <g>
            <path d="M134.6,88.1L134.6,96.1L131,96.1L131,73.6L134.3,73.6C134.3,74.2 134.4,74.8 134.4,75.4L134.6,75.4C135.7,73.9 137.2,73.2 139,73.1C141,73 142.7,73.3 144.3,74.5C145.5,75.4 146.3,76.6 146.7,78C147.5,80.8 147.6,83.6 146.4,86.3C145.3,88.7 143.5,90.1 140.8,90.3C138.4,90.7 136.9,90.1 134.6,88.1ZM143.7,81.9C143.6,80.5 143.4,79.1 142.6,78C141.6,76.5 140.2,75.9 138.4,76.1C136.8,76.3 135.7,77.2 135.1,78.6C134.2,80.7 134.2,82.9 135.1,85C135.9,86.9 137.5,87.8 139.6,87.7C141.3,87.6 142.9,86.1 143.3,84.4C143.5,83.5 143.6,82.7 143.7,81.9Z" style="fill:rgb(23,24,24);fill-rule:nonzero;"/>
            <path d="M172.2,90.5C169.6,90.6 167.4,89.9 165.6,88.1C164.7,87.1 164.1,85.9 163.8,84.6C163.2,82.1 163.3,79.6 164.5,77.3C165.8,74.8 167.9,73.5 170.6,73.3C172,73.2 173.4,73.2 174.7,73.6C177.5,74.5 179.3,76.5 179.9,79.4C180.4,81.7 180.3,84 179.3,86.2C178.1,88.7 176.1,90.1 173.4,90.5L172.2,90.5ZM176.5,82.3C176.5,80.5 176.3,79.3 175.6,78.1C173.9,75.1 169.7,75.3 168.1,78C167.6,78.9 167.3,79.8 167.2,80.8C167,82.4 167.2,84 168.1,85.5C169.7,88.3 174,88.4 175.6,85.4C176.2,84.3 176.5,83.1 176.5,82.3Z" style="fill:rgb(23,24,24);fill-rule:nonzero;"/>
            <path d="M67.7,90L63.7,90L63.7,70.7L56.5,70.7L56.5,67.4L56.6,67.3C56.6,67.3 56.6,67.2 56.7,67.2C56.9,67.2 57,67.1 57.2,67.1L74.6,67.1C74.7,67.1 74.8,67.2 74.9,67.2L74.9,70.6L67.7,70.6L67.7,90Z" style="fill:rgb(23,24,24);fill-rule:nonzero;"/>
            <path d="M106.6,84.8C107.3,87 108.3,87.7 110.6,87.6C111.3,87.6 112.1,87.5 112.8,87.2C113.5,87 114.1,86.6 114.1,85.7C114.2,84.8 113.8,84.2 113,83.8C112.3,83.5 111.5,83.2 110.7,83C109.5,82.7 108.3,82.5 107.1,82.1C106.3,81.8 105.5,81.5 104.9,81C102.9,79.4 102.6,75.6 105.8,73.9C106.8,73.4 107.9,73.1 109,73C110,73 111,72.9 111.9,73C113.9,73.2 115.6,74.1 116.7,76C117,76.6 117.2,77.2 117.2,78L113.6,78C113.5,77.9 113.4,77.8 113.4,77.7C113,76.4 112.1,75.9 110.9,75.9C110,75.9 109.2,75.9 108.3,76.1C107.7,76.2 107.2,76.6 107.1,77.3C107,78 107.4,78.6 108,78.8C109.1,79.2 110.2,79.5 111.4,79.8C112.6,80.1 113.7,80.4 114.9,80.8C116,81.2 116.8,81.9 117.4,82.9C118.3,84.6 117.9,86.8 116.5,88.2C115.3,89.4 113.8,89.9 112.1,90.1C110.6,90.3 109.1,90.3 107.7,89.9C105.5,89.4 103.9,88.2 103.3,85.8C103.3,85.6 103.2,85.5 103.2,85.3L103.2,84.5C104.3,84.7 105.4,84.8 106.6,84.8Z" style="fill:rgb(23,24,24);fill-rule:nonzero;"/>
            <path d="M86,73.6L89.6,73.6L89.6,82.7C89.6,83.5 89.7,84.2 89.8,85C90,86.6 91.1,87.5 92.7,87.6C93.1,87.6 93.6,87.6 94,87.5C95.8,87.1 96.9,85.7 96.9,83.8L96.9,73.7C98.1,73.6 99.3,73.6 100.5,73.7L100.5,90.1L97,90.1C97,89.5 96.9,88.9 96.9,88.2C96.2,88.8 95.7,89.3 95,89.8C93.5,90.8 91.9,90.7 90.2,90.4C87.3,89.9 86.5,88.1 86.1,86.1C86,85.5 86,84.9 86,84.3L86,73.6Z" style="fill:rgb(23,24,24);fill-rule:nonzero;"/>
            <path d="M128.3,87.4L128.3,90C126.7,90.3 125.2,90.4 123.7,90C122.3,89.6 121.7,88.6 121.5,87.3C121.4,86.7 121.4,86.2 121.4,85.6L121.4,76.3L118.8,76.3L118.8,73.7L121.5,73.7L121.5,68.7L125.1,68.7L125.1,73.6L128.3,73.6L128.3,76.2L125.2,76.2C125.1,76.5 125.1,76.6 125.1,76.8L125.1,85.6C125.1,87 125.6,87.4 127,87.4L128.3,87.4Z" style="fill:rgb(23,24,24);fill-rule:nonzero;"/>
            <path d="M190.8,73.6C190.8,73.9 190.9,74.1 190.9,74.3L190.9,76.2L187.8,76.2C187.8,76.6 187.7,76.9 187.7,77.2L187.7,85.2C187.7,87.1 188.1,87.5 190,87.4L190.9,87.4L190.9,90.1C189.2,90.4 187.6,90.5 186,90C184.9,89.6 184.3,88.8 184.2,87.7C184.1,86.9 184,86 184,85.2L184,76.4L181.4,76.4L181.4,73.7L184,73.7L184,68.7L187.6,68.7C187.7,70.3 187.6,71.9 187.7,73.7C188.7,73.6 189.7,73.6 190.8,73.6Z" style="fill:rgb(23,24,24);fill-rule:nonzero;"/>
            <rect x="157" y="67.3" width="3.5" height="22.7" style="fill:rgb(23,24,24);fill-rule:nonzero;"/>
            <path d="M74.2,73.6L77.6,73.6L77.6,76.2C79.7,73.4 81.3,72.6 83.9,73.2L83.9,75.8C83.9,76 83.9,76.3 83.8,76.6C83.4,76.6 83,76.5 82.7,76.5C80.9,76.4 79.5,77.1 78.6,78.7C78.1,79.6 77.8,80.6 77.8,81.7L77.8,89.8C77.1,90 75.6,90.1 74.2,89.9L74.2,73.6Z" style="fill:rgb(23,24,24);fill-rule:nonzero;"/>
            <rect x="150.1" y="73.6" width="3.5" height="16.4" style="fill:rgb(23,24,24);fill-rule:nonzero;"/>
            <path d="M153.6,70.7L150.1,70.7L150.1,67.3C151.2,67.2 152.4,67.3 153.6,67.3L153.6,70.7Z" style="fill:rgb(23,24,24);fill-rule:nonzero;"/>
        </g>
    </g>
</svg>
