<?xml version="1.0" encoding="utf-8"?>
<!-- Generator: Adobe Illustrator 25.0.0, SVG Export Plug-In . SVG Version: 6.00 Build 0)  -->
<svg version="1.1" id="Livello_1" xmlns="https://www.w3.org/2000/svg" xmlns:xlink="https://www.w3.org/1999/xlink" x="0px" y="100px"
	 viewBox="0 100 200 100" style="enable-background:new 0 0 200 200;" xml:space="preserve">
<style type="text/css">
	.st0{fill:#1DAC74;}
	.st1{fill:#FDFEFE;}
	.st2{fill:#DDDCE6;}
	.st3{fill:#064D2B;}
	.st4{fill:#171818;}
	.st5{fill:none;}
</style>
<g>
	<rect x="10.2" y="106.5" class="st0" width="33.2" height="33.2"/>
	<polygon class="st1" points="27.3,128.4 31.1,125.6 31.1,125.6 38.1,120.6 29.4,120.6 26.8,112.3 24.1,120.6 15.4,120.6 
		22.5,125.7 19.8,133.9 26.8,128.8 33.7,133.9 31.6,127.4 	"/>
</g>
<g>
	<rect x="47" y="106.5" class="st0" width="33.2" height="33.2"/>
	<polygon class="st1" points="64.1,128.4 67.9,125.6 67.9,125.6 74.9,120.6 66.3,120.6 63.6,112.3 61,120.6 52.3,120.6 59.3,125.7 
		56.7,133.9 63.6,128.8 70.6,133.9 68.5,127.4 	"/>
</g>
<g>
	<rect x="83.9" y="106.5" class="st0" width="33.2" height="33.2"/>
	<polygon class="st1" points="101,128.4 104.8,125.6 104.8,125.6 111.8,120.6 103.1,120.6 100.5,112.3 97.8,120.6 89.2,120.6 
		96.2,125.7 93.6,133.9 100.5,128.8 107.4,133.9 105.3,127.4 	"/>
</g>
<polygon class="st2" points="190.8,106.5 190.8,139.7 174.2,139.7 174.2,128.8 181.2,133.9 179.1,127.4 174.7,128.4 178.6,125.6 
	185.5,120.6 176.9,120.6 174.2,112.3 174.2,106.5 "/>
<polygon class="st0" points="179.1,127.4 181.2,133.9 174.2,128.8 174.2,139.7 157.6,139.7 157.6,106.5 174.2,106.5 174.2,112.3 
	176.9,120.6 185.5,120.6 178.6,125.6 174.7,128.4 "/>
<polygon class="st1" points="179.1,127.4 181.2,133.9 174.2,128.8 167.3,133.9 169.9,125.7 162.9,120.6 171.6,120.6 174.2,112.3 
	176.9,120.6 185.5,120.6 178.6,125.6 174.7,128.4 "/>
<g>
	<rect x="120.8" y="106.5" class="st0" width="33.2" height="33.2"/>
	<polygon class="st1" points="137.9,128.4 141.7,125.6 141.7,125.6 148.7,120.6 140,120.6 137.4,112.3 134.7,120.6 126.1,120.6 
		133.1,125.7 130.4,133.9 137.4,128.8 144.3,133.9 142.2,127.4 	"/>
</g>
<polygon class="st0" points="38.5,76.8 51.5,67.3 35.4,67.3 30.5,52 25.6,67.3 9.5,67.3 22.5,76.8 17.6,92.1 30.5,82.7 43.4,92.1 
	"/>
<polygon class="st3" points="38.5,76.8 31.4,81.9 39.5,80 "/>
<g>
	<g>
		<path class="st4" d="M134.6,88.1c0,2.8,0,5.3,0,8c-1.2,0-2.4,0-3.6,0c0-7.5,0-14.9,0-22.5c1.1,0,2.1,0,3.3,0
			c0,0.6,0.1,1.2,0.1,1.8c0.1,0,0.2,0,0.2,0c1.1-1.5,2.6-2.2,4.4-2.3c2-0.1,3.7,0.2,5.3,1.4c1.2,0.9,2,2.1,2.4,3.5
			c0.8,2.8,0.9,5.6-0.3,8.3c-1.1,2.4-2.9,3.8-5.6,4C138.4,90.7,136.9,90.1,134.6,88.1z M143.7,81.9c-0.1-1.4-0.3-2.8-1.1-3.9
			c-1-1.5-2.4-2.1-4.2-1.9c-1.6,0.2-2.7,1.1-3.3,2.5c-0.9,2.1-0.9,4.3,0,6.4c0.8,1.9,2.4,2.8,4.5,2.7c1.7-0.1,3.3-1.6,3.7-3.3
			C143.5,83.5,143.6,82.7,143.7,81.9z"/>
		<path class="st4" d="M172.2,90.5c-2.6,0.1-4.8-0.6-6.6-2.4c-0.9-1-1.5-2.2-1.8-3.5c-0.6-2.5-0.5-5,0.7-7.3c1.3-2.5,3.4-3.8,6.1-4
			c1.4-0.1,2.8-0.1,4.1,0.3c2.8,0.9,4.6,2.9,5.2,5.8c0.5,2.3,0.4,4.6-0.6,6.8c-1.2,2.5-3.2,3.9-5.9,4.3
			C172.9,90.5,172.5,90.5,172.2,90.5z M176.5,82.3c0-1.8-0.2-3-0.9-4.2c-1.7-3-5.9-2.8-7.5-0.1c-0.5,0.9-0.8,1.8-0.9,2.8
			c-0.2,1.6,0,3.2,0.9,4.7c1.6,2.8,5.9,2.9,7.5-0.1C176.2,84.3,176.5,83.1,176.5,82.3z"/>
		<path class="st4" d="M67.7,90c-1.4,0-2.6,0-4,0c0-6.4,0-12.8,0-19.3c-2.5,0-4.8,0-7.2,0c0-1.2,0-2.2,0-3.3c0,0,0,0,0.1-0.1
			c0,0,0-0.1,0.1-0.1c0.2,0,0.3-0.1,0.5-0.1c5.8,0,11.6,0,17.4,0c0.1,0,0.2,0.1,0.3,0.1c0,1.1,0,2.2,0,3.4c-2.4,0-4.7,0-7.2,0
			C67.7,77.2,67.7,83.5,67.7,90z"/>
		<path class="st4" d="M106.6,84.8c0.7,2.2,1.7,2.9,4,2.8c0.7,0,1.5-0.1,2.2-0.4c0.7-0.2,1.3-0.6,1.3-1.5c0.1-0.9-0.3-1.5-1.1-1.9
			c-0.7-0.3-1.5-0.6-2.3-0.8c-1.2-0.3-2.4-0.5-3.6-0.9c-0.8-0.3-1.6-0.6-2.2-1.1c-2-1.6-2.3-5.4,0.9-7.1c1-0.5,2.1-0.8,3.2-0.9
			c1,0,2-0.1,2.9,0c2,0.2,3.7,1.1,4.8,3c0.3,0.6,0.5,1.2,0.5,2c-1.2,0-2.4,0-3.6,0c-0.1-0.1-0.2-0.2-0.2-0.3
			c-0.4-1.3-1.3-1.8-2.5-1.8c-0.9,0-1.7,0-2.6,0.2c-0.6,0.1-1.1,0.5-1.2,1.2c-0.1,0.7,0.3,1.3,0.9,1.5c1.1,0.4,2.2,0.7,3.4,1
			c1.2,0.3,2.3,0.6,3.5,1c1.1,0.4,1.9,1.1,2.5,2.1c0.9,1.7,0.5,3.9-0.9,5.3c-1.2,1.2-2.7,1.7-4.4,1.9c-1.5,0.2-3,0.2-4.4-0.2
			c-2.2-0.5-3.8-1.7-4.4-4.1c0-0.2-0.1-0.3-0.1-0.5c0-0.2,0-0.5,0-0.8C104.3,84.7,105.4,84.8,106.6,84.8z"/>
		<path class="st4" d="M86,73.6c1.2,0,2.3,0,3.6,0c0,0.4,0,0.8,0,1.1c0,2.7,0,5.3,0,8c0,0.8,0.1,1.5,0.2,2.3
			c0.2,1.6,1.3,2.5,2.9,2.6c0.4,0,0.9,0,1.3-0.1c1.8-0.4,2.9-1.8,2.9-3.7c0-3,0-5.9,0-8.9c0-0.4,0-0.7,0-1.2c1.2-0.1,2.4-0.1,3.6,0
			c0,5.5,0,10.9,0,16.4c-1.1,0-2.3,0-3.5,0c0-0.6-0.1-1.2-0.1-1.9c-0.7,0.6-1.2,1.1-1.9,1.6c-1.5,1-3.1,0.9-4.8,0.6
			c-2.9-0.5-3.7-2.3-4.1-4.3C86,85.5,86,84.9,86,84.3c0-3.3,0-6.6,0-9.9C86,74.2,86,73.9,86,73.6z"/>
		<path class="st4" d="M128.3,87.4c0,0.8,0,1.7,0,2.6c-1.6,0.3-3.1,0.4-4.6,0c-1.4-0.4-2-1.4-2.2-2.7c-0.1-0.6-0.1-1.1-0.1-1.7
			c0-2.7,0-5.4,0-8.1c0-0.4,0-0.7,0-1.2c-0.9,0-1.8,0-2.6,0c0-0.9,0-1.7,0-2.6c0.8,0,1.7,0,2.7,0c0-1.7,0-3.3,0-5c1.3,0,2.4,0,3.6,0
			c0,1.6,0,3.2,0,4.9c1.1,0,2.2,0,3.2,0c0,0.9,0,1.7,0,2.6c-1,0-2,0-3.1,0c-0.1,0.3-0.1,0.4-0.1,0.6c0,2.9,0,5.9,0,8.8
			c0,1.4,0.5,1.8,1.9,1.8C127.4,87.4,127.8,87.4,128.3,87.4z"/>
		<path class="st4" d="M190.8,73.6c0,0.3,0.1,0.5,0.1,0.7c0,0.6,0,1.2,0,1.9c-1.1,0-2.1,0-3.1,0c0,0.4-0.1,0.7-0.1,1
			c0,2.7,0,5.3,0,8c0,1.9,0.4,2.3,2.3,2.2c0.3,0,0.5,0,0.9,0c0,0.4,0,0.8,0,1.3c0,0.4,0,0.9,0,1.4c-1.7,0.3-3.3,0.4-4.9-0.1
			c-1.1-0.4-1.7-1.2-1.8-2.3c-0.1-0.8-0.2-1.7-0.2-2.5c0-2.6,0-5.1,0-7.7c0-0.3,0-0.7,0-1.1c-0.9,0-1.7,0-2.6,0c0-0.9,0-1.7,0-2.7
			c0.9,0,1.7,0,2.6,0c0-1.7,0-3.3,0-5c1.2,0,2.4,0,3.6,0c0.1,1.6,0,3.2,0.1,5C188.7,73.6,189.7,73.6,190.8,73.6z"/>
		<path class="st4" d="M160.5,90c-1.2,0-2.3,0-3.5,0c0-7.6,0-15.1,0-22.7c1.2,0,2.3,0,3.5,0C160.5,74.8,160.5,82.4,160.5,90z"/>
		<path class="st4" d="M74.2,73.6c1.1,0,2.2,0,3.4,0c0,0.9,0,1.7,0,2.6c2.1-2.8,3.7-3.6,6.3-3c0,0.8,0,1.7,0,2.6
			c0,0.2,0,0.5-0.1,0.8c-0.4,0-0.8-0.1-1.1-0.1c-1.8-0.1-3.2,0.6-4.1,2.2c-0.5,0.9-0.8,1.9-0.8,3c0,2.4,0,4.7,0,7.1c0,0.3,0,0.7,0,1
			c-0.7,0.2-2.2,0.3-3.6,0.1C74.2,84.6,74.2,79.1,74.2,73.6z"/>
		<path class="st4" d="M150.1,73.6c1.2,0,2.3,0,3.5,0c0,5.5,0,10.9,0,16.4c-1.2,0-2.3,0-3.5,0C150.1,84.5,150.1,79.1,150.1,73.6z"/>
		<path class="st4" d="M153.6,70.7c-1.2,0-2.3,0-3.5,0c0-1.1,0-2.2,0-3.4c1.1-0.1,2.3,0,3.5,0C153.6,68.4,153.6,69.5,153.6,70.7z"/>
	</g>
</g>
</svg>
