<svg width="50" height="50" viewBox="0 0 50 50" fill="none" xmlns="http://www.w3.org/2000/svg">
<rect width="50" height="50" rx="12" fill="#FF0000"/>
<rect x="1" y="1" width="48" height="48" rx="24" fill="#FF0000"/>
<path d="M25 14.4976C25.0281 14.4976 34.3942 14.4986 36.7383 15.1401C38.0231 15.4862 39.0359 16.4998 39.3818 17.7847C40.0242 20.1324 40 25.0249 40 25.0249C40 25.0612 39.9973 29.9019 39.3818 32.2407C39.0358 33.5255 38.023 34.5382 36.7383 34.8843C34.3942 35.5011 25.0281 35.5024 25 35.5024C25 35.5024 15.634 35.5024 13.2617 34.8599C11.9768 34.5138 10.9641 33.5003 10.6182 32.2153C10.0005 29.8923 10 24.9995 10 24.9995C10 24.9445 10.004 20.119 10.6182 17.7847C10.9641 16.4998 12.0016 15.4618 13.2617 15.1157C15.6093 14.4979 25 14.4976 25 14.4976ZM22.0098 29.4976L29.8184 24.9995L22.0098 20.5024V29.4976Z" fill="white"/>
</svg>
